<svg id="pcb-stackup_bottom" version="1.1" xmlns:xlink="http://www.w3.org/1999/xlink" stroke-linecap="round" stroke-linejoin="round" stroke-width="0" fill-rule="evenodd" clip-rule="evenodd" viewBox="104180 -118705 51395 31710" width="51.395mm" height="31.71mm" xmlns="http://www.w3.org/2000/svg"><defs><style>.pcb-stackup_fr4 {color: #4D542C;}
.pcb-stackup_cu {color: lightgrey;}
.pcb-stackup_cf {color: goldenrod;}
.pcb-stackup_sm {color: #004400; opacity: 0.9;}
.pcb-stackup_ss {color: white;}
.pcb-stackup_sp {color: #000000; opacity: 0;}
.pcb-stackup_out {color: black;}</style><rect x="-600" y="-800" width="1200" height="1600" rx="600" ry="600" id="cWJKjcQgyv7D_pad-10"/><rect x="-600" y="-600" width="1200" height="1200" rx="600" ry="600" id="cWJKjcQgyv7D_pad-11"/><circle cx="0" cy="0" r="800" id="cWJKjcQgyv7D_pad-12"/><rect x="-3500" y="-1750" width="7000" height="3500" rx="1750" ry="1750" id="cWJKjcQgyv7D_pad-13"/><rect x="-1250" y="-800" width="2500" height="1600" rx="800" ry="800" id="cWJKjcQgyv7D_pad-14"/><rect x="-800" y="-800" width="1600" height="1600" rx="800" ry="800" id="cWJKjcQgyv7D_pad-15"/><rect x="-600" y="-800" width="1200" height="1600" rx="600" ry="600" id="cWJKjcQgyv7D_pad-10"/><rect x="-600" y="-600" width="1200" height="1200" rx="600" ry="600" id="cWJKjcQgyv7D_pad-11"/><circle cx="0" cy="0" r="800" id="cWJKjcQgyv7D_pad-12"/><rect x="-3500" y="-1750" width="7000" height="3500" rx="1750" ry="1750" id="cWJKjcQgyv7D_pad-13"/><rect x="-1250" y="-800" width="2500" height="1600" rx="800" ry="800" id="cWJKjcQgyv7D_pad-14"/><rect x="-800" y="-800" width="1600" height="1600" rx="800" ry="800" id="cWJKjcQgyv7D_pad-15"/><rect x="-600" y="-800" width="1200" height="1600" rx="600" ry="600" id="cWJKjcQgyv7D_pad-10"/><rect x="-600" y="-600" width="1200" height="1200" rx="600" ry="600" id="cWJKjcQgyv7D_pad-11"/><circle cx="0" cy="0" r="800" id="cWJKjcQgyv7D_pad-12"/><rect x="-3500" y="-1750" width="7000" height="3500" rx="1750" ry="1750" id="cWJKjcQgyv7D_pad-13"/><rect x="-1250" y="-800" width="2500" height="1600" rx="800" ry="800" id="cWJKjcQgyv7D_pad-14"/><rect x="-800" y="-800" width="1600" height="1600" rx="800" ry="800" id="cWJKjcQgyv7D_pad-15"/><rect x="-600" y="-800" width="1200" height="1600" rx="600" ry="600" id="cWJKjcQgyv7D_pad-10"/><rect x="-600" y="-600" width="1200" height="1200" rx="600" ry="600" id="cWJKjcQgyv7D_pad-11"/><circle cx="0" cy="0" r="800" id="cWJKjcQgyv7D_pad-12"/><rect x="-3500" y="-1750" width="7000" height="3500" rx="1750" ry="1750" id="cWJKjcQgyv7D_pad-13"/><rect x="-1250" y="-800" width="2500" height="1600" rx="800" ry="800" id="cWJKjcQgyv7D_pad-14"/><rect x="-800" y="-800" width="1600" height="1600" rx="800" ry="800" id="cWJKjcQgyv7D_pad-15"/><rect x="-600" y="-800" width="1200" height="1600" rx="600" ry="600" id="cWJKjcQgyv7D_pad-10"/><rect x="-600" y="-600" width="1200" height="1200" rx="600" ry="600" id="cWJKjcQgyv7D_pad-11"/><circle cx="0" cy="0" r="800" id="cWJKjcQgyv7D_pad-12"/><rect x="-3500" y="-1750" width="7000" height="3500" rx="1750" ry="1750" id="cWJKjcQgyv7D_pad-13"/><rect x="-1250" y="-800" width="2500" height="1600" rx="800" ry="800" id="cWJKjcQgyv7D_pad-14"/><rect x="-800" y="-800" width="1600" height="1600" rx="800" ry="800" id="cWJKjcQgyv7D_pad-15"/><rect x="-600" y="-800" width="1200" height="1600" rx="600" ry="600" id="cWJKjcQgyv7D_pad-10"/><rect x="-600" y="-600" width="1200" height="1200" rx="600" ry="600" id="cWJKjcQgyv7D_pad-11"/><circle cx="0" cy="0" r="800" id="cWJKjcQgyv7D_pad-12"/><rect x="-3500" y="-1750" width="7000" height="3500" rx="1750" ry="1750" id="cWJKjcQgyv7D_pad-13"/><rect x="-1250" y="-800" width="2500" height="1600" rx="800" ry="800" id="cWJKjcQgyv7D_pad-14"/><rect x="-800" y="-800" width="1600" height="1600" rx="800" ry="800" id="cWJKjcQgyv7D_pad-15"/><rect x="-600" y="-800" width="1200" height="1600" rx="600" ry="600" id="cWJKjcQgyv7D_pad-10"/><rect x="-600" y="-600" width="1200" height="1200" rx="600" ry="600" id="cWJKjcQgyv7D_pad-11"/><circle cx="0" cy="0" r="800" id="cWJKjcQgyv7D_pad-12"/><rect x="-3500" y="-1750" width="7000" height="3500" rx="1750" ry="1750" id="cWJKjcQgyv7D_pad-13"/><rect x="-1250" y="-800" width="2500" height="1600" rx="800" ry="800" id="cWJKjcQgyv7D_pad-14"/><rect x="-800" y="-800" width="1600" height="1600" rx="800" ry="800" id="cWJKjcQgyv7D_pad-15"/><rect x="-600" y="-800" width="1200" height="1600" rx="600" ry="600" id="cWJKjcQgyv7D_pad-10"/><rect x="-600" y="-600" width="1200" height="1200" rx="600" ry="600" id="cWJKjcQgyv7D_pad-11"/><circle cx="0" cy="0" r="800" id="cWJKjcQgyv7D_pad-12"/><rect x="-3500" y="-1750" width="7000" height="3500" rx="1750" ry="1750" id="cWJKjcQgyv7D_pad-13"/><rect x="-1250" y="-800" width="2500" height="1600" rx="800" ry="800" id="cWJKjcQgyv7D_pad-14"/><rect x="-800" y="-800" width="1600" height="1600" rx="800" ry="800" id="cWJKjcQgyv7D_pad-15"/><rect x="-600" y="-800" width="1200" height="1600" rx="600" ry="600" id="cWJKjcQgyv7D_pad-10"/><rect x="-600" y="-600" width="1200" height="1200" rx="600" ry="600" id="cWJKjcQgyv7D_pad-11"/><circle cx="0" cy="0" r="800" id="cWJKjcQgyv7D_pad-12"/><rect x="-3500" y="-1750" width="7000" height="3500" rx="1750" ry="1750" id="cWJKjcQgyv7D_pad-13"/><rect x="-1250" y="-800" width="2500" height="1600" rx="800" ry="800" id="cWJKjcQgyv7D_pad-14"/><rect x="-800" y="-800" width="1600" height="1600" rx="800" ry="800" id="cWJKjcQgyv7D_pad-15"/><rect x="-600" y="-800" width="1200" height="1600" rx="600" ry="600" id="cWJKjcQgyv7D_pad-10"/><rect x="-600" y="-600" width="1200" height="1200" rx="600" ry="600" id="cWJKjcQgyv7D_pad-11"/><circle cx="0" cy="0" r="800" id="cWJKjcQgyv7D_pad-12"/><rect x="-3500" y="-1750" width="7000" height="3500" rx="1750" ry="1750" id="cWJKjcQgyv7D_pad-13"/><rect x="-1250" y="-800" width="2500" height="1600" rx="800" ry="800" id="cWJKjcQgyv7D_pad-14"/><rect x="-800" y="-800" width="1600" height="1600" rx="800" ry="800" id="cWJKjcQgyv7D_pad-15"/><rect x="-600" y="-800" width="1200" height="1600" rx="600" ry="600" id="cWJKjcQgyv7D_pad-10"/><rect x="-600" y="-600" width="1200" height="1200" rx="600" ry="600" id="cWJKjcQgyv7D_pad-11"/><circle cx="0" cy="0" r="800" id="cWJKjcQgyv7D_pad-12"/><rect x="-3500" y="-1750" width="7000" height="3500" rx="1750" ry="1750" id="cWJKjcQgyv7D_pad-13"/><rect x="-1250" y="-800" width="2500" height="1600" rx="800" ry="800" id="cWJKjcQgyv7D_pad-14"/><rect x="-800" y="-800" width="1600" height="1600" rx="800" ry="800" id="cWJKjcQgyv7D_pad-15"/><rect x="-600" y="-800" width="1200" height="1600" rx="600" ry="600" id="cWJKjcQgyv7D_pad-10"/><rect x="-600" y="-600" width="1200" height="1200" rx="600" ry="600" id="cWJKjcQgyv7D_pad-11"/><circle cx="0" cy="0" r="800" id="cWJKjcQgyv7D_pad-12"/><rect x="-3500" y="-1750" width="7000" height="3500" rx="1750" ry="1750" id="cWJKjcQgyv7D_pad-13"/><rect x="-1250" y="-800" width="2500" height="1600" rx="800" ry="800" id="cWJKjcQgyv7D_pad-14"/><rect x="-800" y="-800" width="1600" height="1600" rx="800" ry="800" id="cWJKjcQgyv7D_pad-15"/><rect x="-600" y="-800" width="1200" height="1600" rx="600" ry="600" id="cWJKjcQgyv7D_pad-10"/><rect x="-600" y="-600" width="1200" height="1200" rx="600" ry="600" id="cWJKjcQgyv7D_pad-11"/><circle cx="0" cy="0" r="800" id="cWJKjcQgyv7D_pad-12"/><rect x="-3500" y="-1750" width="7000" height="3500" rx="1750" ry="1750" id="cWJKjcQgyv7D_pad-13"/><rect x="-1250" y="-800" width="2500" height="1600" rx="800" ry="800" id="cWJKjcQgyv7D_pad-14"/><rect x="-800" y="-800" width="1600" height="1600" rx="800" ry="800" id="cWJKjcQgyv7D_pad-15"/><rect x="-600" y="-800" width="1200" height="1600" rx="600" ry="600" id="cWJKjcQgyv7D_pad-10"/><rect x="-600" y="-600" width="1200" height="1200" rx="600" ry="600" id="cWJKjcQgyv7D_pad-11"/><circle cx="0" cy="0" r="800" id="cWJKjcQgyv7D_pad-12"/><rect x="-3500" y="-1750" width="7000" height="3500" rx="1750" ry="1750" id="cWJKjcQgyv7D_pad-13"/><rect x="-1250" y="-800" width="2500" height="1600" rx="800" ry="800" id="cWJKjcQgyv7D_pad-14"/><rect x="-800" y="-800" width="1600" height="1600" rx="800" ry="800" id="cWJKjcQgyv7D_pad-15"/><rect x="-600" y="-800" width="1200" height="1600" rx="600" ry="600" id="cWJKjcQgyv7D_pad-10"/><rect x="-600" y="-600" width="1200" height="1200" rx="600" ry="600" id="cWJKjcQgyv7D_pad-11"/><circle cx="0" cy="0" r="800" id="cWJKjcQgyv7D_pad-12"/><rect x="-3500" y="-1750" width="7000" height="3500" rx="1750" ry="1750" id="cWJKjcQgyv7D_pad-13"/><rect x="-1250" y="-800" width="2500" height="1600" rx="800" ry="800" id="cWJKjcQgyv7D_pad-14"/><rect x="-800" y="-800" width="1600" height="1600" rx="800" ry="800" id="cWJKjcQgyv7D_pad-15"/><rect x="-600" y="-800" width="1200" height="1600" rx="600" ry="600" id="cWJKjcQgyv7D_pad-10"/><rect x="-600" y="-600" width="1200" height="1200" rx="600" ry="600" id="cWJKjcQgyv7D_pad-11"/><circle cx="0" cy="0" r="800" id="cWJKjcQgyv7D_pad-12"/><rect x="-3500" y="-1750" width="7000" height="3500" rx="1750" ry="1750" id="cWJKjcQgyv7D_pad-13"/><rect x="-1250" y="-800" width="2500" height="1600" rx="800" ry="800" id="cWJKjcQgyv7D_pad-14"/><rect x="-800" y="-800" width="1600" height="1600" rx="800" ry="800" id="cWJKjcQgyv7D_pad-15"/><rect x="-600" y="-800" width="1200" height="1600" rx="600" ry="600" id="cWJKjcQgyv7D_pad-10"/><rect x="-600" y="-600" width="1200" height="1200" rx="600" ry="600" id="cWJKjcQgyv7D_pad-11"/><circle cx="0" cy="0" r="800" id="cWJKjcQgyv7D_pad-12"/><rect x="-3500" y="-1750" width="7000" height="3500" rx="1750" ry="1750" id="cWJKjcQgyv7D_pad-13"/><rect x="-1250" y="-800" width="2500" height="1600" rx="800" ry="800" id="cWJKjcQgyv7D_pad-14"/><rect x="-800" y="-800" width="1600" height="1600" rx="800" ry="800" id="cWJKjcQgyv7D_pad-15"/><rect x="-600" y="-800" width="1200" height="1600" rx="600" ry="600" id="cWJKjcQgyv7D_pad-10"/><rect x="-600" y="-600" width="1200" height="1200" rx="600" ry="600" id="cWJKjcQgyv7D_pad-11"/><circle cx="0" cy="0" r="800" id="cWJKjcQgyv7D_pad-12"/><rect x="-3500" y="-1750" width="7000" height="3500" rx="1750" ry="1750" id="cWJKjcQgyv7D_pad-13"/><rect x="-1250" y="-800" width="2500" height="1600" rx="800" ry="800" id="cWJKjcQgyv7D_pad-14"/><rect x="-800" y="-800" width="1600" height="1600" rx="800" ry="800" id="cWJKjcQgyv7D_pad-15"/><rect x="-600" y="-800" width="1200" height="1600" rx="600" ry="600" id="cWJKjcQgyv7D_pad-10"/><rect x="-600" y="-600" width="1200" height="1200" rx="600" ry="600" id="cWJKjcQgyv7D_pad-11"/><circle cx="0" cy="0" r="800" id="cWJKjcQgyv7D_pad-12"/><rect x="-3500" y="-1750" width="7000" height="3500" rx="1750" ry="1750" id="cWJKjcQgyv7D_pad-13"/><rect x="-1250" y="-800" width="2500" height="1600" rx="800" ry="800" id="cWJKjcQgyv7D_pad-14"/><rect x="-800" y="-800" width="1600" height="1600" rx="800" ry="800" id="cWJKjcQgyv7D_pad-15"/><rect x="-600" y="-800" width="1200" height="1600" rx="600" ry="600" id="cWJKjcQgyv7D_pad-10"/><rect x="-600" y="-600" width="1200" height="1200" rx="600" ry="600" id="cWJKjcQgyv7D_pad-11"/><circle cx="0" cy="0" r="800" id="cWJKjcQgyv7D_pad-12"/><rect x="-3500" y="-1750" width="7000" height="3500" rx="1750" ry="1750" id="cWJKjcQgyv7D_pad-13"/><rect x="-1250" y="-800" width="2500" height="1600" rx="800" ry="800" id="cWJKjcQgyv7D_pad-14"/><rect x="-800" y="-800" width="1600" height="1600" rx="800" ry="800" id="cWJKjcQgyv7D_pad-15"/><rect x="-600" y="-800" width="1200" height="1600" rx="600" ry="600" id="cWJKjcQgyv7D_pad-10"/><rect x="-600" y="-600" width="1200" height="1200" rx="600" ry="600" id="cWJKjcQgyv7D_pad-11"/><circle cx="0" cy="0" r="800" id="cWJKjcQgyv7D_pad-12"/><rect x="-3500" y="-1750" width="7000" height="3500" rx="1750" ry="1750" id="cWJKjcQgyv7D_pad-13"/><rect x="-1250" y="-800" width="2500" height="1600" rx="800" ry="800" id="cWJKjcQgyv7D_pad-14"/><rect x="-800" y="-800" width="1600" height="1600" rx="800" ry="800" id="cWJKjcQgyv7D_pad-15"/><rect x="-600" y="-800" width="1200" height="1600" rx="600" ry="600" id="cWJKjcQgyv7D_pad-10"/><rect x="-600" y="-600" width="1200" height="1200" rx="600" ry="600" id="cWJKjcQgyv7D_pad-11"/><circle cx="0" cy="0" r="800" id="cWJKjcQgyv7D_pad-12"/><rect x="-3500" y="-1750" width="7000" height="3500" rx="1750" ry="1750" id="cWJKjcQgyv7D_pad-13"/><rect x="-1250" y="-800" width="2500" height="1600" rx="800" ry="800" id="cWJKjcQgyv7D_pad-14"/><rect x="-800" y="-800" width="1600" height="1600" rx="800" ry="800" id="cWJKjcQgyv7D_pad-15"/><rect x="-600" y="-800" width="1200" height="1600" rx="600" ry="600" id="cWJKjcQgyv7D_pad-10"/><rect x="-600" y="-600" width="1200" height="1200" rx="600" ry="600" id="cWJKjcQgyv7D_pad-11"/><circle cx="0" cy="0" r="800" id="cWJKjcQgyv7D_pad-12"/><rect x="-3500" y="-1750" width="7000" height="3500" rx="1750" ry="1750" id="cWJKjcQgyv7D_pad-13"/><rect x="-1250" y="-800" width="2500" height="1600" rx="800" ry="800" id="cWJKjcQgyv7D_pad-14"/><rect x="-800" y="-800" width="1600" height="1600" rx="800" ry="800" id="cWJKjcQgyv7D_pad-15"/><rect x="-600" y="-800" width="1200" height="1600" rx="600" ry="600" id="cWJKjcQgyv7D_pad-10"/><rect x="-600" y="-600" width="1200" height="1200" rx="600" ry="600" id="cWJKjcQgyv7D_pad-11"/><circle cx="0" cy="0" r="800" id="cWJKjcQgyv7D_pad-12"/><rect x="-3500" y="-1750" width="7000" height="3500" rx="1750" ry="1750" id="cWJKjcQgyv7D_pad-13"/><rect x="-1250" y="-800" width="2500" height="1600" rx="800" ry="800" id="cWJKjcQgyv7D_pad-14"/><rect x="-800" y="-800" width="1600" height="1600" rx="800" ry="800" id="cWJKjcQgyv7D_pad-15"/><rect x="-600" y="-800" width="1200" height="1600" rx="600" ry="600" id="cWJKjcQgyv7D_pad-10"/><rect x="-600" y="-600" width="1200" height="1200" rx="600" ry="600" id="cWJKjcQgyv7D_pad-11"/><circle cx="0" cy="0" r="800" id="cWJKjcQgyv7D_pad-12"/><rect x="-3500" y="-1750" width="7000" height="3500" rx="1750" ry="1750" id="cWJKjcQgyv7D_pad-13"/><rect x="-1250" y="-800" width="2500" height="1600" rx="800" ry="800" id="cWJKjcQgyv7D_pad-14"/><rect x="-800" y="-800" width="1600" height="1600" rx="800" ry="800" id="cWJKjcQgyv7D_pad-15"/><rect x="-600" y="-800" width="1200" height="1600" rx="600" ry="600" id="cWJKjcQgyv7D_pad-10"/><rect x="-600" y="-600" width="1200" height="1200" rx="600" ry="600" id="cWJKjcQgyv7D_pad-11"/><circle cx="0" cy="0" r="800" id="cWJKjcQgyv7D_pad-12"/><rect x="-3500" y="-1750" width="7000" height="3500" rx="1750" ry="1750" id="cWJKjcQgyv7D_pad-13"/><rect x="-1250" y="-800" width="2500" height="1600" rx="800" ry="800" id="cWJKjcQgyv7D_pad-14"/><rect x="-800" y="-800" width="1600" height="1600" rx="800" ry="800" id="cWJKjcQgyv7D_pad-15"/><rect x="-600" y="-800" width="1200" height="1600" rx="600" ry="600" id="cWJKjcQgyv7D_pad-10"/><rect x="-600" y="-600" width="1200" height="1200" rx="600" ry="600" id="cWJKjcQgyv7D_pad-11"/><circle cx="0" cy="0" r="800" id="cWJKjcQgyv7D_pad-12"/><rect x="-3500" y="-1750" width="7000" height="3500" rx="1750" ry="1750" id="cWJKjcQgyv7D_pad-13"/><rect x="-1250" y="-800" width="2500" height="1600" rx="800" ry="800" id="cWJKjcQgyv7D_pad-14"/><rect x="-800" y="-800" width="1600" height="1600" rx="800" ry="800" id="cWJKjcQgyv7D_pad-15"/><rect x="-600" y="-800" width="1200" height="1600" rx="600" ry="600" id="cWJKjcQgyv7D_pad-10"/><rect x="-600" y="-600" width="1200" height="1200" rx="600" ry="600" id="cWJKjcQgyv7D_pad-11"/><circle cx="0" cy="0" r="800" id="cWJKjcQgyv7D_pad-12"/><rect x="-3500" y="-1750" width="7000" height="3500" rx="1750" ry="1750" id="cWJKjcQgyv7D_pad-13"/><rect x="-1250" y="-800" width="2500" height="1600" rx="800" ry="800" id="cWJKjcQgyv7D_pad-14"/><rect x="-800" y="-800" width="1600" height="1600" rx="800" ry="800" id="cWJKjcQgyv7D_pad-15"/><rect x="-600" y="-800" width="1200" height="1600" rx="600" ry="600" id="cWJKjcQgyv7D_pad-10"/><rect x="-600" y="-600" width="1200" height="1200" rx="600" ry="600" id="cWJKjcQgyv7D_pad-11"/><circle cx="0" cy="0" r="800" id="cWJKjcQgyv7D_pad-12"/><rect x="-3500" y="-1750" width="7000" height="3500" rx="1750" ry="1750" id="cWJKjcQgyv7D_pad-13"/><rect x="-1250" y="-800" width="2500" height="1600" rx="800" ry="800" id="cWJKjcQgyv7D_pad-14"/><rect x="-800" y="-800" width="1600" height="1600" rx="800" ry="800" id="cWJKjcQgyv7D_pad-15"/><rect x="-600" y="-800" width="1200" height="1600" rx="600" ry="600" id="cWJKjcQgyv7D_pad-10"/><rect x="-600" y="-600" width="1200" height="1200" rx="600" ry="600" id="cWJKjcQgyv7D_pad-11"/><circle cx="0" cy="0" r="800" id="cWJKjcQgyv7D_pad-12"/><rect x="-3500" y="-1750" width="7000" height="3500" rx="1750" ry="1750" id="cWJKjcQgyv7D_pad-13"/><rect x="-1250" y="-800" width="2500" height="1600" rx="800" ry="800" id="cWJKjcQgyv7D_pad-14"/><rect x="-800" y="-800" width="1600" height="1600" rx="800" ry="800" id="cWJKjcQgyv7D_pad-15"/><rect x="-600" y="-800" width="1200" height="1600" rx="600" ry="600" id="cWJKjcQgyv7D_pad-10"/><rect x="-600" y="-600" width="1200" height="1200" rx="600" ry="600" id="cWJKjcQgyv7D_pad-11"/><circle cx="0" cy="0" r="800" id="cWJKjcQgyv7D_pad-12"/><rect x="-3500" y="-1750" width="7000" height="3500" rx="1750" ry="1750" id="cWJKjcQgyv7D_pad-13"/><rect x="-1250" y="-800" width="2500" height="1600" rx="800" ry="800" id="cWJKjcQgyv7D_pad-14"/><rect x="-800" y="-800" width="1600" height="1600" rx="800" ry="800" id="cWJKjcQgyv7D_pad-15"/><rect x="-600" y="-800" width="1200" height="1600" rx="600" ry="600" id="cWJKjcQgyv7D_pad-10"/><rect x="-600" y="-600" width="1200" height="1200" rx="600" ry="600" id="cWJKjcQgyv7D_pad-11"/><circle cx="0" cy="0" r="800" id="cWJKjcQgyv7D_pad-12"/><rect x="-3500" y="-1750" width="7000" height="3500" rx="1750" ry="1750" id="cWJKjcQgyv7D_pad-13"/><rect x="-1250" y="-800" width="2500" height="1600" rx="800" ry="800" id="cWJKjcQgyv7D_pad-14"/><rect x="-800" y="-800" width="1600" height="1600" rx="800" ry="800" id="cWJKjcQgyv7D_pad-15"/><circle cx="0" cy="0" r="350" id="cR1Eo7NdxK_O_pad-1"/><circle cx="0" cy="0" r="400" id="cR1Eo7NdxK_O_pad-2"/><circle cx="0" cy="0" r="445" id="cR1Eo7NdxK_O_pad-3"/><circle cx="0" cy="0" r="1005" id="cR1Eo7NdxK_O_pad-4"/><rect x="-600" y="-800" width="1200" height="1600" rx="600" ry="600" id="cWJKjcQgyv7D_pad-10"/><rect x="-600" y="-600" width="1200" height="1200" rx="600" ry="600" id="cWJKjcQgyv7D_pad-11"/><circle cx="0" cy="0" r="800" id="cWJKjcQgyv7D_pad-12"/><rect x="-3500" y="-1750" width="7000" height="3500" rx="1750" ry="1750" id="cWJKjcQgyv7D_pad-13"/><rect x="-1250" y="-800" width="2500" height="1600" rx="800" ry="800" id="cWJKjcQgyv7D_pad-14"/><rect x="-800" y="-800" width="1600" height="1600" rx="800" ry="800" id="cWJKjcQgyv7D_pad-15"/><rect x="-600" y="-800" width="1200" height="1600" rx="600" ry="600" id="cWJKjcQgyv7D_pad-10"/><rect x="-600" y="-600" width="1200" height="1200" rx="600" ry="600" id="cWJKjcQgyv7D_pad-11"/><circle cx="0" cy="0" r="800" id="cWJKjcQgyv7D_pad-12"/><rect x="-3500" y="-1750" width="7000" height="3500" rx="1750" ry="1750" id="cWJKjcQgyv7D_pad-13"/><rect x="-1250" y="-800" width="2500" height="1600" rx="800" ry="800" id="cWJKjcQgyv7D_pad-14"/><rect x="-800" y="-800" width="1600" height="1600" rx="800" ry="800" id="cWJKjcQgyv7D_pad-15"/><rect x="-600" y="-800" width="1200" height="1600" rx="600" ry="600" id="cWJKjcQgyv7D_pad-10"/><rect x="-600" y="-600" width="1200" height="1200" rx="600" ry="600" id="cWJKjcQgyv7D_pad-11"/><circle cx="0" cy="0" r="800" id="cWJKjcQgyv7D_pad-12"/><rect x="-3500" y="-1750" width="7000" height="3500" rx="1750" ry="1750" id="cWJKjcQgyv7D_pad-13"/><rect x="-1250" y="-800" width="2500" height="1600" rx="800" ry="800" id="cWJKjcQgyv7D_pad-14"/><rect x="-800" y="-800" width="1600" height="1600" rx="800" ry="800" id="cWJKjcQgyv7D_pad-15"/><rect x="-600" y="-800" width="1200" height="1600" rx="600" ry="600" id="cWJKjcQgyv7D_pad-10"/><rect x="-600" y="-600" width="1200" height="1200" rx="600" ry="600" id="cWJKjcQgyv7D_pad-11"/><circle cx="0" cy="0" r="800" id="cWJKjcQgyv7D_pad-12"/><rect x="-3500" y="-1750" width="7000" height="3500" rx="1750" ry="1750" id="cWJKjcQgyv7D_pad-13"/><rect x="-1250" y="-800" width="2500" height="1600" rx="800" ry="800" id="cWJKjcQgyv7D_pad-14"/><rect x="-800" y="-800" width="1600" height="1600" rx="800" ry="800" id="cWJKjcQgyv7D_pad-15"/><rect x="-600" y="-800" width="1200" height="1600" rx="600" ry="600" id="cWJKjcQgyv7D_pad-10"/><rect x="-600" y="-600" width="1200" height="1200" rx="600" ry="600" id="cWJKjcQgyv7D_pad-11"/><circle cx="0" cy="0" r="800" id="cWJKjcQgyv7D_pad-12"/><rect x="-3500" y="-1750" width="7000" height="3500" rx="1750" ry="1750" id="cWJKjcQgyv7D_pad-13"/><rect x="-1250" y="-800" width="2500" height="1600" rx="800" ry="800" id="cWJKjcQgyv7D_pad-14"/><rect x="-800" y="-800" width="1600" height="1600" rx="800" ry="800" id="cWJKjcQgyv7D_pad-15"/><rect x="-600" y="-800" width="1200" height="1600" rx="600" ry="600" id="cWJKjcQgyv7D_pad-10"/><rect x="-600" y="-600" width="1200" height="1200" rx="600" ry="600" id="cWJKjcQgyv7D_pad-11"/><circle cx="0" cy="0" r="800" id="cWJKjcQgyv7D_pad-12"/><rect x="-3500" y="-1750" width="7000" height="3500" rx="1750" ry="1750" id="cWJKjcQgyv7D_pad-13"/><rect x="-1250" y="-800" width="2500" height="1600" rx="800" ry="800" id="cWJKjcQgyv7D_pad-14"/><rect x="-800" y="-800" width="1600" height="1600" rx="800" ry="800" id="cWJKjcQgyv7D_pad-15"/><rect x="-600" y="-800" width="1200" height="1600" rx="600" ry="600" id="cWJKjcQgyv7D_pad-10"/><rect x="-600" y="-600" width="1200" height="1200" rx="600" ry="600" id="cWJKjcQgyv7D_pad-11"/><circle cx="0" cy="0" r="800" id="cWJKjcQgyv7D_pad-12"/><rect x="-3500" y="-1750" width="7000" height="3500" rx="1750" ry="1750" id="cWJKjcQgyv7D_pad-13"/><rect x="-1250" y="-800" width="2500" height="1600" rx="800" ry="800" id="cWJKjcQgyv7D_pad-14"/><rect x="-800" y="-800" width="1600" height="1600" rx="800" ry="800" id="cWJKjcQgyv7D_pad-15"/><rect x="-600" y="-800" width="1200" height="1600" rx="600" ry="600" id="cWJKjcQgyv7D_pad-10"/><rect x="-600" y="-600" width="1200" height="1200" rx="600" ry="600" id="cWJKjcQgyv7D_pad-11"/><circle cx="0" cy="0" r="800" id="cWJKjcQgyv7D_pad-12"/><rect x="-3500" y="-1750" width="7000" height="3500" rx="1750" ry="1750" id="cWJKjcQgyv7D_pad-13"/><rect x="-1250" y="-800" width="2500" height="1600" rx="800" ry="800" id="cWJKjcQgyv7D_pad-14"/><rect x="-800" y="-800" width="1600" height="1600" rx="800" ry="800" id="cWJKjcQgyv7D_pad-15"/><rect x="-600" y="-800" width="1200" height="1600" rx="600" ry="600" id="cWJKjcQgyv7D_pad-10"/><rect x="-600" y="-600" width="1200" height="1200" rx="600" ry="600" id="cWJKjcQgyv7D_pad-11"/><circle cx="0" cy="0" r="800" id="cWJKjcQgyv7D_pad-12"/><rect x="-3500" y="-1750" width="7000" height="3500" rx="1750" ry="1750" id="cWJKjcQgyv7D_pad-13"/><rect x="-1250" y="-800" width="2500" height="1600" rx="800" ry="800" id="cWJKjcQgyv7D_pad-14"/><rect x="-800" y="-800" width="1600" height="1600" rx="800" ry="800" id="cWJKjcQgyv7D_pad-15"/><rect x="-600" y="-800" width="1200" height="1600" rx="600" ry="600" id="cWJKjcQgyv7D_pad-10"/><rect x="-600" y="-600" width="1200" height="1200" rx="600" ry="600" id="cWJKjcQgyv7D_pad-11"/><circle cx="0" cy="0" r="800" id="cWJKjcQgyv7D_pad-12"/><rect x="-3500" y="-1750" width="7000" height="3500" rx="1750" ry="1750" id="cWJKjcQgyv7D_pad-13"/><rect x="-1250" y="-800" width="2500" height="1600" rx="800" ry="800" id="cWJKjcQgyv7D_pad-14"/><rect x="-800" y="-800" width="1600" height="1600" rx="800" ry="800" id="cWJKjcQgyv7D_pad-15"/><rect x="-600" y="-800" width="1200" height="1600" rx="600" ry="600" id="cWJKjcQgyv7D_pad-10"/><rect x="-600" y="-600" width="1200" height="1200" rx="600" ry="600" id="cWJKjcQgyv7D_pad-11"/><circle cx="0" cy="0" r="800" id="cWJKjcQgyv7D_pad-12"/><rect x="-3500" y="-1750" width="7000" height="3500" rx="1750" ry="1750" id="cWJKjcQgyv7D_pad-13"/><rect x="-1250" y="-800" width="2500" height="1600" rx="800" ry="800" id="cWJKjcQgyv7D_pad-14"/><rect x="-800" y="-800" width="1600" height="1600" rx="800" ry="800" id="cWJKjcQgyv7D_pad-15"/><rect x="-600" y="-800" width="1200" height="1600" rx="600" ry="600" id="cWJKjcQgyv7D_pad-10"/><rect x="-600" y="-600" width="1200" height="1200" rx="600" ry="600" id="cWJKjcQgyv7D_pad-11"/><circle cx="0" cy="0" r="800" id="cWJKjcQgyv7D_pad-12"/><rect x="-3500" y="-1750" width="7000" height="3500" rx="1750" ry="1750" id="cWJKjcQgyv7D_pad-13"/><rect x="-1250" y="-800" width="2500" height="1600" rx="800" ry="800" id="cWJKjcQgyv7D_pad-14"/><rect x="-800" y="-800" width="1600" height="1600" rx="800" ry="800" id="cWJKjcQgyv7D_pad-15"/><rect x="-600" y="-800" width="1200" height="1600" rx="600" ry="600" id="cWJKjcQgyv7D_pad-10"/><rect x="-600" y="-600" width="1200" height="1200" rx="600" ry="600" id="cWJKjcQgyv7D_pad-11"/><circle cx="0" cy="0" r="800" id="cWJKjcQgyv7D_pad-12"/><rect x="-3500" y="-1750" width="7000" height="3500" rx="1750" ry="1750" id="cWJKjcQgyv7D_pad-13"/><rect x="-1250" y="-800" width="2500" height="1600" rx="800" ry="800" id="cWJKjcQgyv7D_pad-14"/><rect x="-800" y="-800" width="1600" height="1600" rx="800" ry="800" id="cWJKjcQgyv7D_pad-15"/><rect x="-600" y="-800" width="1200" height="1600" rx="600" ry="600" id="cWJKjcQgyv7D_pad-10"/><rect x="-600" y="-600" width="1200" height="1200" rx="600" ry="600" id="cWJKjcQgyv7D_pad-11"/><circle cx="0" cy="0" r="800" id="cWJKjcQgyv7D_pad-12"/><rect x="-3500" y="-1750" width="7000" height="3500" rx="1750" ry="1750" id="cWJKjcQgyv7D_pad-13"/><rect x="-1250" y="-800" width="2500" height="1600" rx="800" ry="800" id="cWJKjcQgyv7D_pad-14"/><rect x="-800" y="-800" width="1600" height="1600" rx="800" ry="800" id="cWJKjcQgyv7D_pad-15"/><rect x="-600" y="-800" width="1200" height="1600" rx="600" ry="600" id="cWJKjcQgyv7D_pad-10"/><rect x="-600" y="-600" width="1200" height="1200" rx="600" ry="600" id="cWJKjcQgyv7D_pad-11"/><circle cx="0" cy="0" r="800" id="cWJKjcQgyv7D_pad-12"/><rect x="-3500" y="-1750" width="7000" height="3500" rx="1750" ry="1750" id="cWJKjcQgyv7D_pad-13"/><rect x="-1250" y="-800" width="2500" height="1600" rx="800" ry="800" id="cWJKjcQgyv7D_pad-14"/><rect x="-800" y="-800" width="1600" height="1600" rx="800" ry="800" id="cWJKjcQgyv7D_pad-15"/><rect x="-600" y="-800" width="1200" height="1600" rx="600" ry="600" id="cWJKjcQgyv7D_pad-10"/><rect x="-600" y="-600" width="1200" height="1200" rx="600" ry="600" id="cWJKjcQgyv7D_pad-11"/><circle cx="0" cy="0" r="800" id="cWJKjcQgyv7D_pad-12"/><rect x="-3500" y="-1750" width="7000" height="3500" rx="1750" ry="1750" id="cWJKjcQgyv7D_pad-13"/><rect x="-1250" y="-800" width="2500" height="1600" rx="800" ry="800" id="cWJKjcQgyv7D_pad-14"/><rect x="-800" y="-800" width="1600" height="1600" rx="800" ry="800" id="cWJKjcQgyv7D_pad-15"/><rect x="-600" y="-800" width="1200" height="1600" rx="600" ry="600" id="cWJKjcQgyv7D_pad-10"/><rect x="-600" y="-600" width="1200" height="1200" rx="600" ry="600" id="cWJKjcQgyv7D_pad-11"/><circle cx="0" cy="0" r="800" id="cWJKjcQgyv7D_pad-12"/><rect x="-3500" y="-1750" width="7000" height="3500" rx="1750" ry="1750" id="cWJKjcQgyv7D_pad-13"/><rect x="-1250" y="-800" width="2500" height="1600" rx="800" ry="800" id="cWJKjcQgyv7D_pad-14"/><rect x="-800" y="-800" width="1600" height="1600" rx="800" ry="800" id="cWJKjcQgyv7D_pad-15"/><rect x="-600" y="-800" width="1200" height="1600" rx="600" ry="600" id="cWJKjcQgyv7D_pad-10"/><rect x="-600" y="-600" width="1200" height="1200" rx="600" ry="600" id="cWJKjcQgyv7D_pad-11"/><circle cx="0" cy="0" r="800" id="cWJKjcQgyv7D_pad-12"/><rect x="-3500" y="-1750" width="7000" height="3500" rx="1750" ry="1750" id="cWJKjcQgyv7D_pad-13"/><rect x="-1250" y="-800" width="2500" height="1600" rx="800" ry="800" id="cWJKjcQgyv7D_pad-14"/><rect x="-800" y="-800" width="1600" height="1600" rx="800" ry="800" id="cWJKjcQgyv7D_pad-15"/><rect x="-600" y="-800" width="1200" height="1600" rx="600" ry="600" id="cWJKjcQgyv7D_pad-10"/><rect x="-600" y="-600" width="1200" height="1200" rx="600" ry="600" id="cWJKjcQgyv7D_pad-11"/><circle cx="0" cy="0" r="800" id="cWJKjcQgyv7D_pad-12"/><rect x="-3500" y="-1750" width="7000" height="3500" rx="1750" ry="1750" id="cWJKjcQgyv7D_pad-13"/><rect x="-1250" y="-800" width="2500" height="1600" rx="800" ry="800" id="cWJKjcQgyv7D_pad-14"/><rect x="-800" y="-800" width="1600" height="1600" rx="800" ry="800" id="cWJKjcQgyv7D_pad-15"/><rect x="-600" y="-800" width="1200" height="1600" rx="600" ry="600" id="cWJKjcQgyv7D_pad-10"/><rect x="-600" y="-600" width="1200" height="1200" rx="600" ry="600" id="cWJKjcQgyv7D_pad-11"/><circle cx="0" cy="0" r="800" id="cWJKjcQgyv7D_pad-12"/><rect x="-3500" y="-1750" width="7000" height="3500" rx="1750" ry="1750" id="cWJKjcQgyv7D_pad-13"/><rect x="-1250" y="-800" width="2500" height="1600" rx="800" ry="800" id="cWJKjcQgyv7D_pad-14"/><rect x="-800" y="-800" width="1600" height="1600" rx="800" ry="800" id="cWJKjcQgyv7D_pad-15"/><rect x="-600" y="-800" width="1200" height="1600" rx="600" ry="600" id="cWJKjcQgyv7D_pad-10"/><rect x="-600" y="-600" width="1200" height="1200" rx="600" ry="600" id="cWJKjcQgyv7D_pad-11"/><circle cx="0" cy="0" r="800" id="cWJKjcQgyv7D_pad-12"/><rect x="-3500" y="-1750" width="7000" height="3500" rx="1750" ry="1750" id="cWJKjcQgyv7D_pad-13"/><rect x="-1250" y="-800" width="2500" height="1600" rx="800" ry="800" id="cWJKjcQgyv7D_pad-14"/><rect x="-800" y="-800" width="1600" height="1600" rx="800" ry="800" id="cWJKjcQgyv7D_pad-15"/><rect x="-600" y="-800" width="1200" height="1600" rx="600" ry="600" id="cWJKjcQgyv7D_pad-10"/><rect x="-600" y="-600" width="1200" height="1200" rx="600" ry="600" id="cWJKjcQgyv7D_pad-11"/><circle cx="0" cy="0" r="800" id="cWJKjcQgyv7D_pad-12"/><rect x="-3500" y="-1750" width="7000" height="3500" rx="1750" ry="1750" id="cWJKjcQgyv7D_pad-13"/><rect x="-1250" y="-800" width="2500" height="1600" rx="800" ry="800" id="cWJKjcQgyv7D_pad-14"/><rect x="-800" y="-800" width="1600" height="1600" rx="800" ry="800" id="cWJKjcQgyv7D_pad-15"/><rect x="-600" y="-800" width="1200" height="1600" rx="600" ry="600" id="cWJKjcQgyv7D_pad-10"/><rect x="-600" y="-600" width="1200" height="1200" rx="600" ry="600" id="cWJKjcQgyv7D_pad-11"/><circle cx="0" cy="0" r="800" id="cWJKjcQgyv7D_pad-12"/><rect x="-3500" y="-1750" width="7000" height="3500" rx="1750" ry="1750" id="cWJKjcQgyv7D_pad-13"/><rect x="-1250" y="-800" width="2500" height="1600" rx="800" ry="800" id="cWJKjcQgyv7D_pad-14"/><rect x="-800" y="-800" width="1600" height="1600" rx="800" ry="800" id="cWJKjcQgyv7D_pad-15"/><rect x="-600" y="-800" width="1200" height="1600" rx="600" ry="600" id="cWJKjcQgyv7D_pad-10"/><rect x="-600" y="-600" width="1200" height="1200" rx="600" ry="600" id="cWJKjcQgyv7D_pad-11"/><circle cx="0" cy="0" r="800" id="cWJKjcQgyv7D_pad-12"/><rect x="-3500" y="-1750" width="7000" height="3500" rx="1750" ry="1750" id="cWJKjcQgyv7D_pad-13"/><rect x="-1250" y="-800" width="2500" height="1600" rx="800" ry="800" id="cWJKjcQgyv7D_pad-14"/><rect x="-800" y="-800" width="1600" height="1600" rx="800" ry="800" id="cWJKjcQgyv7D_pad-15"/><rect x="-600" y="-800" width="1200" height="1600" rx="600" ry="600" id="cWJKjcQgyv7D_pad-10"/><rect x="-600" y="-600" width="1200" height="1200" rx="600" ry="600" id="cWJKjcQgyv7D_pad-11"/><circle cx="0" cy="0" r="800" id="cWJKjcQgyv7D_pad-12"/><rect x="-3500" y="-1750" width="7000" height="3500" rx="1750" ry="1750" id="cWJKjcQgyv7D_pad-13"/><rect x="-1250" y="-800" width="2500" height="1600" rx="800" ry="800" id="cWJKjcQgyv7D_pad-14"/><rect x="-800" y="-800" width="1600" height="1600" rx="800" ry="800" id="cWJKjcQgyv7D_pad-15"/><rect x="-600" y="-800" width="1200" height="1600" rx="600" ry="600" id="cWJKjcQgyv7D_pad-10"/><rect x="-600" y="-600" width="1200" height="1200" rx="600" ry="600" id="cWJKjcQgyv7D_pad-11"/><circle cx="0" cy="0" r="800" id="cWJKjcQgyv7D_pad-12"/><rect x="-3500" y="-1750" width="7000" height="3500" rx="1750" ry="1750" id="cWJKjcQgyv7D_pad-13"/><rect x="-1250" y="-800" width="2500" height="1600" rx="800" ry="800" id="cWJKjcQgyv7D_pad-14"/><rect x="-800" y="-800" width="1600" height="1600" rx="800" ry="800" id="cWJKjcQgyv7D_pad-15"/><rect x="-600" y="-800" width="1200" height="1600" rx="600" ry="600" id="cWJKjcQgyv7D_pad-10"/><rect x="-600" y="-600" width="1200" height="1200" rx="600" ry="600" id="cWJKjcQgyv7D_pad-11"/><circle cx="0" cy="0" r="800" id="cWJKjcQgyv7D_pad-12"/><rect x="-3500" y="-1750" width="7000" height="3500" rx="1750" ry="1750" id="cWJKjcQgyv7D_pad-13"/><rect x="-1250" y="-800" width="2500" height="1600" rx="800" ry="800" id="cWJKjcQgyv7D_pad-14"/><rect x="-800" y="-800" width="1600" height="1600" rx="800" ry="800" id="cWJKjcQgyv7D_pad-15"/><rect x="-600" y="-800" width="1200" height="1600" rx="600" ry="600" id="cWJKjcQgyv7D_pad-10"/><rect x="-600" y="-600" width="1200" height="1200" rx="600" ry="600" id="cWJKjcQgyv7D_pad-11"/><circle cx="0" cy="0" r="800" id="cWJKjcQgyv7D_pad-12"/><rect x="-3500" y="-1750" width="7000" height="3500" rx="1750" ry="1750" id="cWJKjcQgyv7D_pad-13"/><rect x="-1250" y="-800" width="2500" height="1600" rx="800" ry="800" id="cWJKjcQgyv7D_pad-14"/><rect x="-800" y="-800" width="1600" height="1600" rx="800" ry="800" id="cWJKjcQgyv7D_pad-15"/><rect x="-600" y="-800" width="1200" height="1600" rx="600" ry="600" id="cWJKjcQgyv7D_pad-10"/><rect x="-600" y="-600" width="1200" height="1200" rx="600" ry="600" id="cWJKjcQgyv7D_pad-11"/><circle cx="0" cy="0" r="800" id="cWJKjcQgyv7D_pad-12"/><rect x="-3500" y="-1750" width="7000" height="3500" rx="1750" ry="1750" id="cWJKjcQgyv7D_pad-13"/><rect x="-1250" y="-800" width="2500" height="1600" rx="800" ry="800" id="cWJKjcQgyv7D_pad-14"/><rect x="-800" y="-800" width="1600" height="1600" rx="800" ry="800" id="cWJKjcQgyv7D_pad-15"/><rect x="-600" y="-800" width="1200" height="1600" rx="600" ry="600" id="cWJKjcQgyv7D_pad-10"/><rect x="-600" y="-600" width="1200" height="1200" rx="600" ry="600" id="cWJKjcQgyv7D_pad-11"/><circle cx="0" cy="0" r="800" id="cWJKjcQgyv7D_pad-12"/><rect x="-3500" y="-1750" width="7000" height="3500" rx="1750" ry="1750" id="cWJKjcQgyv7D_pad-13"/><rect x="-1250" y="-800" width="2500" height="1600" rx="800" ry="800" id="cWJKjcQgyv7D_pad-14"/><rect x="-800" y="-800" width="1600" height="1600" rx="800" ry="800" id="cWJKjcQgyv7D_pad-15"/><rect x="-600" y="-800" width="1200" height="1600" rx="600" ry="600" id="cWJKjcQgyv7D_pad-10"/><rect x="-600" y="-600" width="1200" height="1200" rx="600" ry="600" id="cWJKjcQgyv7D_pad-11"/><circle cx="0" cy="0" r="800" id="cWJKjcQgyv7D_pad-12"/><rect x="-3500" y="-1750" width="7000" height="3500" rx="1750" ry="1750" id="cWJKjcQgyv7D_pad-13"/><rect x="-1250" y="-800" width="2500" height="1600" rx="800" ry="800" id="cWJKjcQgyv7D_pad-14"/><rect x="-800" y="-800" width="1600" height="1600" rx="800" ry="800" id="cWJKjcQgyv7D_pad-15"/><rect x="-600" y="-800" width="1200" height="1600" rx="600" ry="600" id="cWJKjcQgyv7D_pad-10"/><rect x="-600" y="-600" width="1200" height="1200" rx="600" ry="600" id="cWJKjcQgyv7D_pad-11"/><circle cx="0" cy="0" r="800" id="cWJKjcQgyv7D_pad-12"/><rect x="-3500" y="-1750" width="7000" height="3500" rx="1750" ry="1750" id="cWJKjcQgyv7D_pad-13"/><rect x="-1250" y="-800" width="2500" height="1600" rx="800" ry="800" id="cWJKjcQgyv7D_pad-14"/><rect x="-800" y="-800" width="1600" height="1600" rx="800" ry="800" id="cWJKjcQgyv7D_pad-15"/><circle cx="0" cy="0" r="350" id="cR1Eo7NdxK_O_pad-1"/><circle cx="0" cy="0" r="400" id="cR1Eo7NdxK_O_pad-2"/><circle cx="0" cy="0" r="445" id="cR1Eo7NdxK_O_pad-3"/><circle cx="0" cy="0" r="1005" id="cR1Eo7NdxK_O_pad-4"/><g id="pcb-stackup_bottom_cu"><use xlink:href="#cWJKjcQgyv7D_pad-10" x="149860" y="-97790"/><use xlink:href="#cWJKjcQgyv7D_pad-11" x="149860" y="-102870"/><use xlink:href="#cWJKjcQgyv7D_pad-12" x="130810" y="-107950"/><use xlink:href="#cWJKjcQgyv7D_pad-12" x="130810" y="-112950"/><use xlink:href="#cWJKjcQgyv7D_pad-13" x="114300" y="-100330"/><use xlink:href="#cWJKjcQgyv7D_pad-13" x="114300" y="-90170"/><use xlink:href="#cWJKjcQgyv7D_pad-14" x="119380" y="-95250"/><use xlink:href="#cWJKjcQgyv7D_pad-14" x="119380" y="-97790"/><use xlink:href="#cWJKjcQgyv7D_pad-12" x="125730" y="-104140"/><use xlink:href="#cWJKjcQgyv7D_pad-15" x="125730" y="-114300"/></g><g id="pcb-stackup_bottom_sm"><path d="M 125978.228 -113481.703 126133.1 -113545.853 126272.481 -113638.985 126391.015 -113757.519 126484.147 -113896.9 126548.297 -114051.772 126581 -114216.184 126581 -114383.816 126548.297 -114548.228 126484.147 -114703.1 126391.015 -114842.481 126272.481 -114961.015 126133.1 -115054.147 125978.228 -115118.297 125813.816 -115151 125646.184 -115151 125481.772 -115118.297 125326.9 -115054.147 125187.519 -114961.015 125068.985 -114842.481 124975.853 -114703.1 124911.703 -114548.228 124879 -114383.816 124879 -114216.184 124911.703 -114051.772 124975.853 -113896.9 125068.985 -113757.519 125187.519 -113638.985 125326.9 -113545.853 125481.772 -113481.703 125646.184 -113449 125813.816 -113449 125978.228 -113481.703"/><path d="M 131058.228 -112131.703 131213.1 -112195.853 131352.481 -112288.985 131471.015 -112407.519 131564.147 -112546.9 131628.297 -112701.772 131661 -112866.184 131661 -113033.816 131628.297 -113198.228 131564.147 -113353.1 131471.015 -113492.481 131352.481 -113611.015 131213.1 -113704.147 131058.228 -113768.297 130893.816 -113801 130726.184 -113801 130561.772 -113768.297 130406.9 -113704.147 130267.519 -113611.015 130148.985 -113492.481 130055.853 -113353.1 129991.703 -113198.228 129959 -113033.816 129959 -112866.184 129991.703 -112701.772 130055.853 -112546.9 130148.985 -112407.519 130267.519 -112288.985 130406.9 -112195.853 130561.772 -112131.703 130726.184 -112099 130893.816 -112099 131058.228 -112131.703"/><path d="M 131058.228 -107131.703 131213.1 -107195.853 131352.481 -107288.985 131471.015 -107407.519 131564.147 -107546.9 131628.297 -107701.772 131661 -107866.184 131661 -108033.816 131628.297 -108198.228 131564.147 -108353.1 131471.015 -108492.481 131352.481 -108611.015 131213.1 -108704.147 131058.228 -108768.297 130893.816 -108801 130726.184 -108801 130561.772 -108768.297 130406.9 -108704.147 130267.519 -108611.015 130148.985 -108492.481 130055.853 -108353.1 129991.703 -108198.228 129959 -108033.816 129959 -107866.184 129991.703 -107701.772 130055.853 -107546.9 130148.985 -107407.519 130267.519 -107288.985 130406.9 -107195.853 130561.772 -107131.703 130726.184 -107099 130893.816 -107099 131058.228 -107131.703"/><path d="M 125978.228 -103321.703 126133.1 -103385.853 126272.481 -103478.985 126391.015 -103597.519 126484.147 -103736.9 126548.297 -103891.772 126581 -104056.184 126581 -104223.816 126548.297 -104388.228 126484.147 -104543.1 126391.015 -104682.481 126272.481 -104801.015 126133.1 -104894.147 125978.228 -104958.297 125813.816 -104991 125646.184 -104991 125481.772 -104958.297 125326.9 -104894.147 125187.519 -104801.015 125068.985 -104682.481 124975.853 -104543.1 124911.703 -104388.228 124879 -104223.816 124879 -104056.184 124911.703 -103891.772 124975.853 -103736.9 125068.985 -103597.519 125187.519 -103478.985 125326.9 -103385.853 125481.772 -103321.703 125646.184 -103289 125813.816 -103289 125978.228 -103321.703"/><path d="M 150049.89 -102244.017 150168.364 -102293.091 150274.988 -102364.335 150365.665 -102455.012 150436.909 -102561.636 150485.983 -102680.11 150511 -102805.882 150511 -102934.118 150485.983 -103059.89 150436.909 -103178.364 150365.665 -103284.988 150274.988 -103375.665 150168.364 -103446.909 150168.363 -103446.91 150168.362 -103446.91 150049.89 -103495.983 149924.119 -103521 149795.881 -103521 149670.11 -103495.983 149551.638 -103446.91 149551.637 -103446.91 149551.636 -103446.909 149445.012 -103375.665 149354.335 -103284.988 149283.091 -103178.364 149234.017 -103059.89 149209 -102934.118 149209 -102805.882 149234.017 -102680.11 149283.091 -102561.636 149354.335 -102455.012 149445.012 -102364.335 149551.636 -102293.091 149670.11 -102244.017 149795.881 -102219 149924.119 -102219 150049.89 -102244.017"/><path d="M 116188.277 -98533.905 116403.058 -98555.059 116742.548 -98658.042 116742.55 -98658.043 117055.422 -98825.277 117055.424 -98825.278 117055.423 -98825.278 117329.661 -99050.339 117554.722 -99324.577 117721.958 -99637.452 117824.941 -99976.942 117859.714 -100330 117824.941 -100683.058 117721.958 -101022.548 117721.957 -101022.55 117554.723 -101335.422 117329.661 -101609.661 117055.422 -101834.723 116742.55 -102001.957 116742.548 -102001.958 116403.058 -102104.941 116226.669 -102122.314 116138.476 -102131 112461.524 -102131 112373.331 -102122.314 112196.942 -102104.941 111857.452 -102001.958 111857.45 -102001.957 111544.578 -101834.723 111270.339 -101609.661 111045.277 -101335.422 110878.043 -101022.55 110878.042 -101022.548 110775.059 -100683.058 110740.286 -100330 110775.059 -99976.942 110878.042 -99637.452 111045.278 -99324.577 111270.339 -99050.339 111544.577 -98825.278 111544.576 -98825.278 111544.578 -98825.277 111857.45 -98658.043 111857.452 -98658.042 112196.942 -98555.059 112411.723 -98533.905 112461.524 -98529 116138.476 -98529 116188.277 -98533.905"/><path d="M 149987.618 -96948.42 150078.404 -96975.96 150110.336 -96985.646 150223.425 -97046.094 150322.554 -97127.446 150403.906 -97226.575 150464.354 -97339.664 150464.355 -97339.668 150501.58 -97462.382 150511 -97558.028 150511 -98021.973 150501.58 -98117.618 150474.04 -98208.404 150464.354 -98240.336 150403.906 -98353.425 150322.554 -98452.553 150223.424 -98533.906 150110.335 -98594.354 150078.403 -98604.04 149987.617 -98631.58 149860 -98644.149 149732.382 -98631.58 149641.596 -98604.04 149609.664 -98594.354 149496.575 -98533.906 149397.447 -98452.554 149316.094 -98353.424 149255.646 -98240.335 149245.96 -98208.403 149218.42 -98117.617 149209 -98021.972 149209 -97558.027 149218.42 -97462.382 149255.645 -97339.668 149255.646 -97339.664 149316.094 -97226.575 149397.447 -97127.447 149496.576 -97046.094 149609.665 -96985.646 149641.597 -96975.96 149732.383 -96948.42 149860 -96935.851 149987.618 -96948.42"/><path d="M 119996.823 -96951.313 120157.242 -96999.976 120243.524 -97046.095 120305.078 -97078.996 120434.659 -97185.341 120541.004 -97314.922 120541.005 -97314.924 120620.024 -97462.758 120668.687 -97623.177 120685.117 -97790 120668.687 -97956.823 120620.024 -98117.242 120554.231 -98240.331 120541.004 -98265.078 120434.659 -98394.659 120305.078 -98501.004 120305.076 -98501.005 120157.242 -98580.024 119996.823 -98628.687 119871.804 -98641 118888.196 -98641 118763.177 -98628.687 118602.758 -98580.024 118454.924 -98501.005 118454.922 -98501.004 118325.341 -98394.659 118218.996 -98265.078 118205.769 -98240.331 118139.976 -98117.242 118091.313 -97956.823 118074.883 -97790 118091.313 -97623.177 118139.976 -97462.758 118218.995 -97314.924 118218.996 -97314.922 118325.341 -97185.341 118454.922 -97078.996 118516.476 -97046.095 118602.758 -96999.976 118763.177 -96951.313 118888.196 -96939 119871.804 -96939 119996.823 -96951.313"/><path d="M 119996.823 -94411.313 120157.242 -94459.976 120289.906 -94530.886 120305.078 -94538.996 120434.659 -94645.341 120541.004 -94774.922 120541.005 -94774.924 120620.024 -94922.758 120668.687 -95083.177 120685.117 -95250 120668.687 -95416.823 120620.024 -95577.242 120549.114 -95709.906 120541.004 -95725.078 120434.659 -95854.659 120305.078 -95961.004 120305.076 -95961.005 120157.242 -96040.024 119996.823 -96088.687 119871.804 -96101 118888.196 -96101 118763.177 -96088.687 118602.758 -96040.024 118454.924 -95961.005 118454.922 -95961.004 118325.341 -95854.659 118218.996 -95725.078 118210.886 -95709.906 118139.976 -95577.242 118091.313 -95416.823 118074.883 -95250 118091.313 -95083.177 118139.976 -94922.758 118218.995 -94774.924 118218.996 -94774.922 118325.341 -94645.341 118454.922 -94538.996 118470.094 -94530.886 118602.758 -94459.976 118763.177 -94411.313 118888.196 -94399 119871.804 -94399 119996.823 -94411.313"/><path d="M 116226.669 -88377.686 116403.058 -88395.059 116742.548 -88498.042 116742.55 -88498.043 117055.422 -88665.277 117055.424 -88665.278 117055.423 -88665.278 117329.661 -88890.339 117554.722 -89164.577 117721.958 -89477.452 117824.941 -89816.942 117859.714 -90170 117824.941 -90523.058 117721.958 -90862.548 117721.957 -90862.55 117554.723 -91175.422 117329.661 -91449.661 117055.422 -91674.723 116742.55 -91841.957 116742.548 -91841.958 116403.058 -91944.941 116226.669 -91962.314 116138.476 -91971 112461.524 -91971 112373.331 -91962.314 112196.942 -91944.941 111857.452 -91841.958 111857.45 -91841.957 111544.578 -91674.723 111270.339 -91449.661 111045.277 -91175.422 110878.043 -90862.55 110878.042 -90862.548 110775.059 -90523.058 110740.286 -90170 110775.059 -89816.942 110878.042 -89477.452 111045.278 -89164.577 111270.339 -88890.339 111544.577 -88665.278 111544.576 -88665.278 111544.578 -88665.277 111857.45 -88498.043 111857.452 -88498.042 112196.942 -88395.059 112373.331 -88377.686 112461.524 -88369 116138.476 -88369 116226.669 -88377.686"/></g><g id="pcb-stackup_bottom_sp" transform="scale(25.4,25.4)"/><g id="pcb-stackup_bottom_ss" transform="scale(25.4,25.4)"/><g id="pcb-stackup_bottom_drl1" transform="scale(25.4,25.4)"/><g id="pcb-stackup_bottom_drl2"><use xlink:href="#cR1Eo7NdxK_O_pad-1" x="149860" y="-97790"/><use xlink:href="#cR1Eo7NdxK_O_pad-1" x="149860" y="-102870"/><use xlink:href="#cR1Eo7NdxK_O_pad-2" x="130810" y="-107950"/><use xlink:href="#cR1Eo7NdxK_O_pad-2" x="130810" y="-112950"/><use xlink:href="#cR1Eo7NdxK_O_pad-2" x="125730" y="-104140"/><use xlink:href="#cR1Eo7NdxK_O_pad-2" x="125730" y="-114300"/><use xlink:href="#cR1Eo7NdxK_O_pad-3" x="119380" y="-95250"/><use xlink:href="#cR1Eo7NdxK_O_pad-3" x="119380" y="-97790"/><use xlink:href="#cR1Eo7NdxK_O_pad-4" x="114300" y="-90170"/><use xlink:href="#cR1Eo7NdxK_O_pad-4" x="114300" y="-100330"/></g><clipPath id="pcb-stackup_bottom_out"><path d="M 106680 -114935 106680 -114300 M 106680 -116205 106680 -114935 M 155575 -116205 106680 -116205 106680 -115570 106680 -86995 155575 -86995 155575 -116205 M 108346.666 -116205 A 1666.666 1666.666 0 0 1 105013.334 -116205 1666.666 1666.666 0 0 1 108346.666 -116205 M 104180 -116205 109180 -116205 M 106680 -113705 106680 -118705" fill="none" stroke-width="50"/></clipPath><mask id="pcb-stackup_bottom_mech-mask"><g fill="#000" stroke="#000"><rect x="104180" y="-118705" width="51395" height="31710" fill="#fff"/><use xlink:href="#pcb-stackup_bottom_drl1"/><use xlink:href="#pcb-stackup_bottom_drl2"/></g></mask><mask id="pcb-stackup_bottom_cf-mask"><g fill="#fff" stroke="#fff"><use xlink:href="#pcb-stackup_bottom_sm"/></g></mask><mask id="pcb-stackup_bottom_sm-mask"><g fill="#000" stroke="#000"><rect x="104180" y="-118705" width="51395" height="31710" fill="#fff"/><use xlink:href="#pcb-stackup_bottom_sm"/></g></mask></defs><g transform="translate(0,-205700) scale(1,-1)"><g mask="url(#pcb-stackup_bottom_mech-mask)" clip-path="url(#pcb-stackup_bottom_out)" transform="translate(259755,0) scale(-1,1)"><rect x="104180" y="-118705" width="51395" height="31710" fill="currentColor" class="pcb-stackup_fr4"/><use xlink:href="#pcb-stackup_bottom_cu" fill="currentColor" stroke="currentColor" class="pcb-stackup_cu"/><use xlink:href="#pcb-stackup_bottom_cu" fill="currentColor" stroke="currentColor" class="pcb-stackup_cf" mask="url(#pcb-stackup_bottom_cf-mask)"/><g mask="url(#pcb-stackup_bottom_sm-mask)"><rect x="104180" y="-118705" width="51395" height="31710" fill="currentColor" class="pcb-stackup_sm"/><use xlink:href="#pcb-stackup_bottom_ss" fill="currentColor" stroke="currentColor" class="pcb-stackup_ss"/></g><use xlink:href="#pcb-stackup_bottom_sp" fill="currentColor" stroke="currentColor" class="pcb-stackup_sp"/></g></g></svg>