<svg id="pcb-stackup_bottom" version="1.1" xmlns:xlink="http://www.w3.org/1999/xlink" stroke-linecap="round" stroke-linejoin="round" stroke-width="0" fill-rule="evenodd" clip-rule="evenodd" viewBox="45713.182 -109312.847 24400.064 24379.699" width="24.400063999999997mm" height="24.379699000000002mm" xmlns="http://www.w3.org/2000/svg"><defs><style>.pcb-stackup_fr4 {color: #4D542C;}
.pcb-stackup_cu {color: lightgrey;}
.pcb-stackup_cf {color: goldenrod;}
.pcb-stackup_sm {color: #004400; opacity: 0.9;}
.pcb-stackup_ss {color: white;}
.pcb-stackup_sp {color: #000000; opacity: 0;}
.pcb-stackup_out {color: black;}</style><circle cx="0" cy="0" r="2000" id="h0lDQ3y9fJPF_pad-11"/><circle cx="0" cy="0" r="230" id="h0lDQ3y9fJPF_pad-12"/><circle cx="0" cy="0" r="1250" id="h0lDQ3y9fJPF_pad-13"/><circle cx="0" cy="0" r="300" id="h0lDQ3y9fJPF_pad-14"/><circle cx="0" cy="0" r="600" id="h0lDQ3y9fJPF_pad-15"/><circle cx="0" cy="0" r="2000" id="h0lDQ3y9fJPF_pad-11"/><circle cx="0" cy="0" r="230" id="h0lDQ3y9fJPF_pad-12"/><circle cx="0" cy="0" r="1250" id="h0lDQ3y9fJPF_pad-13"/><circle cx="0" cy="0" r="300" id="h0lDQ3y9fJPF_pad-14"/><circle cx="0" cy="0" r="600" id="h0lDQ3y9fJPF_pad-15"/><circle cx="0" cy="0" r="2000" id="h0lDQ3y9fJPF_pad-11"/><circle cx="0" cy="0" r="230" id="h0lDQ3y9fJPF_pad-12"/><circle cx="0" cy="0" r="1250" id="h0lDQ3y9fJPF_pad-13"/><circle cx="0" cy="0" r="300" id="h0lDQ3y9fJPF_pad-14"/><circle cx="0" cy="0" r="600" id="h0lDQ3y9fJPF_pad-15"/><circle cx="0" cy="0" r="2000" id="h0lDQ3y9fJPF_pad-11"/><circle cx="0" cy="0" r="230" id="h0lDQ3y9fJPF_pad-12"/><circle cx="0" cy="0" r="1250" id="h0lDQ3y9fJPF_pad-13"/><circle cx="0" cy="0" r="300" id="h0lDQ3y9fJPF_pad-14"/><circle cx="0" cy="0" r="600" id="h0lDQ3y9fJPF_pad-15"/><circle cx="0" cy="0" r="2000" id="h0lDQ3y9fJPF_pad-11"/><circle cx="0" cy="0" r="230" id="h0lDQ3y9fJPF_pad-12"/><circle cx="0" cy="0" r="1250" id="h0lDQ3y9fJPF_pad-13"/><circle cx="0" cy="0" r="300" id="h0lDQ3y9fJPF_pad-14"/><circle cx="0" cy="0" r="600" id="h0lDQ3y9fJPF_pad-15"/><circle cx="0" cy="0" r="2000" id="h0lDQ3y9fJPF_pad-11"/><circle cx="0" cy="0" r="230" id="h0lDQ3y9fJPF_pad-12"/><circle cx="0" cy="0" r="1250" id="h0lDQ3y9fJPF_pad-13"/><circle cx="0" cy="0" r="300" id="h0lDQ3y9fJPF_pad-14"/><circle cx="0" cy="0" r="600" id="h0lDQ3y9fJPF_pad-15"/><circle cx="0" cy="0" r="2000" id="h0lDQ3y9fJPF_pad-11"/><circle cx="0" cy="0" r="230" id="h0lDQ3y9fJPF_pad-12"/><circle cx="0" cy="0" r="1250" id="h0lDQ3y9fJPF_pad-13"/><circle cx="0" cy="0" r="300" id="h0lDQ3y9fJPF_pad-14"/><circle cx="0" cy="0" r="600" id="h0lDQ3y9fJPF_pad-15"/><circle cx="0" cy="0" r="2000" id="h0lDQ3y9fJPF_pad-11"/><circle cx="0" cy="0" r="230" id="h0lDQ3y9fJPF_pad-12"/><circle cx="0" cy="0" r="1250" id="h0lDQ3y9fJPF_pad-13"/><circle cx="0" cy="0" r="300" id="h0lDQ3y9fJPF_pad-14"/><circle cx="0" cy="0" r="600" id="h0lDQ3y9fJPF_pad-15"/><circle cx="0" cy="0" r="150" id="S_BvTbs1N4uK_pad-1"/><circle cx="0" cy="0" r="200" id="S_BvTbs1N4uK_pad-2"/><circle cx="0" cy="0" r="425" id="S_BvTbs1N4uK_pad-3"/><circle cx="0" cy="0" r="1000" id="S_BvTbs1N4uK_pad-4"/><circle cx="0" cy="0" r="1400" id="S_BvTbs1N4uK_pad-5"/><circle cx="0" cy="0" r="425" id="S_BvTbs1N4uK_pad-6"/><circle cx="0" cy="0" r="550" id="S_BvTbs1N4uK_pad-7"/><circle cx="0" cy="0" r="650" id="S_BvTbs1N4uK_pad-8"/><circle cx="0" cy="0" r="2000" id="h0lDQ3y9fJPF_pad-11"/><circle cx="0" cy="0" r="230" id="h0lDQ3y9fJPF_pad-12"/><circle cx="0" cy="0" r="1250" id="h0lDQ3y9fJPF_pad-13"/><circle cx="0" cy="0" r="300" id="h0lDQ3y9fJPF_pad-14"/><circle cx="0" cy="0" r="600" id="h0lDQ3y9fJPF_pad-15"/><circle cx="0" cy="0" r="2000" id="h0lDQ3y9fJPF_pad-11"/><circle cx="0" cy="0" r="230" id="h0lDQ3y9fJPF_pad-12"/><circle cx="0" cy="0" r="1250" id="h0lDQ3y9fJPF_pad-13"/><circle cx="0" cy="0" r="300" id="h0lDQ3y9fJPF_pad-14"/><circle cx="0" cy="0" r="600" id="h0lDQ3y9fJPF_pad-15"/><circle cx="0" cy="0" r="2000" id="h0lDQ3y9fJPF_pad-11"/><circle cx="0" cy="0" r="230" id="h0lDQ3y9fJPF_pad-12"/><circle cx="0" cy="0" r="1250" id="h0lDQ3y9fJPF_pad-13"/><circle cx="0" cy="0" r="300" id="h0lDQ3y9fJPF_pad-14"/><circle cx="0" cy="0" r="600" id="h0lDQ3y9fJPF_pad-15"/><circle cx="0" cy="0" r="2000" id="h0lDQ3y9fJPF_pad-11"/><circle cx="0" cy="0" r="230" id="h0lDQ3y9fJPF_pad-12"/><circle cx="0" cy="0" r="1250" id="h0lDQ3y9fJPF_pad-13"/><circle cx="0" cy="0" r="300" id="h0lDQ3y9fJPF_pad-14"/><circle cx="0" cy="0" r="600" id="h0lDQ3y9fJPF_pad-15"/><circle cx="0" cy="0" r="2000" id="h0lDQ3y9fJPF_pad-11"/><circle cx="0" cy="0" r="230" id="h0lDQ3y9fJPF_pad-12"/><circle cx="0" cy="0" r="1250" id="h0lDQ3y9fJPF_pad-13"/><circle cx="0" cy="0" r="300" id="h0lDQ3y9fJPF_pad-14"/><circle cx="0" cy="0" r="600" id="h0lDQ3y9fJPF_pad-15"/><circle cx="0" cy="0" r="2000" id="h0lDQ3y9fJPF_pad-11"/><circle cx="0" cy="0" r="230" id="h0lDQ3y9fJPF_pad-12"/><circle cx="0" cy="0" r="1250" id="h0lDQ3y9fJPF_pad-13"/><circle cx="0" cy="0" r="300" id="h0lDQ3y9fJPF_pad-14"/><circle cx="0" cy="0" r="600" id="h0lDQ3y9fJPF_pad-15"/><circle cx="0" cy="0" r="2000" id="h0lDQ3y9fJPF_pad-11"/><circle cx="0" cy="0" r="230" id="h0lDQ3y9fJPF_pad-12"/><circle cx="0" cy="0" r="1250" id="h0lDQ3y9fJPF_pad-13"/><circle cx="0" cy="0" r="300" id="h0lDQ3y9fJPF_pad-14"/><circle cx="0" cy="0" r="600" id="h0lDQ3y9fJPF_pad-15"/><circle cx="0" cy="0" r="2000" id="h0lDQ3y9fJPF_pad-11"/><circle cx="0" cy="0" r="230" id="h0lDQ3y9fJPF_pad-12"/><circle cx="0" cy="0" r="1250" id="h0lDQ3y9fJPF_pad-13"/><circle cx="0" cy="0" r="300" id="h0lDQ3y9fJPF_pad-14"/><circle cx="0" cy="0" r="600" id="h0lDQ3y9fJPF_pad-15"/><circle cx="0" cy="0" r="150" id="S_BvTbs1N4uK_pad-1"/><circle cx="0" cy="0" r="200" id="S_BvTbs1N4uK_pad-2"/><circle cx="0" cy="0" r="425" id="S_BvTbs1N4uK_pad-3"/><circle cx="0" cy="0" r="1000" id="S_BvTbs1N4uK_pad-4"/><circle cx="0" cy="0" r="1400" id="S_BvTbs1N4uK_pad-5"/><circle cx="0" cy="0" r="425" id="S_BvTbs1N4uK_pad-6"/><circle cx="0" cy="0" r="550" id="S_BvTbs1N4uK_pad-7"/><circle cx="0" cy="0" r="650" id="S_BvTbs1N4uK_pad-8"/><g id="pcb-stackup_bottom_cu"><use xlink:href="#h0lDQ3y9fJPF_pad-11" x="70200" y="-102100"/><use xlink:href="#h0lDQ3y9fJPF_pad-11" x="45600" y="-101900"/><use xlink:href="#h0lDQ3y9fJPF_pad-11" x="45600" y="-92300"/><use xlink:href="#h0lDQ3y9fJPF_pad-12" x="59155.5" y="-103891"/><use xlink:href="#h0lDQ3y9fJPF_pad-12" x="59405.5" y="-92891"/><use xlink:href="#h0lDQ3y9fJPF_pad-13" x="57955.5" y="-99291"/><use xlink:href="#h0lDQ3y9fJPF_pad-14" x="66105.5" y="-93616"/><use xlink:href="#h0lDQ3y9fJPF_pad-14" x="67030.5" y="-98266"/><use xlink:href="#h0lDQ3y9fJPF_pad-14" x="64005.5" y="-98391"/><use xlink:href="#h0lDQ3y9fJPF_pad-14" x="53405.5" y="-103941"/><use xlink:href="#h0lDQ3y9fJPF_pad-14" x="55243.75" y="-101256.25"/><use xlink:href="#h0lDQ3y9fJPF_pad-12" x="58918.75" y="-95743.75"/><use xlink:href="#h0lDQ3y9fJPF_pad-14" x="59255.5" y="-89241"/><use xlink:href="#h0lDQ3y9fJPF_pad-12" x="56581.25" y="-95743.75"/><use xlink:href="#h0lDQ3y9fJPF_pad-12" x="47800" y="-94400"/><use xlink:href="#h0lDQ3y9fJPF_pad-12" x="48500.009" y="-93000"/><use xlink:href="#h0lDQ3y9fJPF_pad-12" x="49505.5" y="-92141"/><use xlink:href="#h0lDQ3y9fJPF_pad-12" x="52505.5" y="-102341"/><use xlink:href="#h0lDQ3y9fJPF_pad-12" x="52655.5" y="-102941"/><use xlink:href="#h0lDQ3y9fJPF_pad-12" x="48805.5" y="-92141"/><use xlink:href="#h0lDQ3y9fJPF_pad-12" x="52755.5" y="-101741"/><use xlink:href="#h0lDQ3y9fJPF_pad-12" x="50205.5" y="-92141"/><use xlink:href="#h0lDQ3y9fJPF_pad-12" x="50905.5" y="-92441"/><use xlink:href="#h0lDQ3y9fJPF_pad-12" x="52355.5" y="-101241"/><use xlink:href="#h0lDQ3y9fJPF_pad-12" x="52355.5" y="-100241"/><use xlink:href="#h0lDQ3y9fJPF_pad-12" x="52255.5" y="-92141"/><use xlink:href="#h0lDQ3y9fJPF_pad-12" x="52755.5" y="-100741"/><use xlink:href="#h0lDQ3y9fJPF_pad-12" x="51555.5" y="-92291"/><use xlink:href="#h0lDQ3y9fJPF_pad-12" x="58005.5" y="-93091"/><use xlink:href="#h0lDQ3y9fJPF_pad-12" x="55916.192" y="-93209.16"/><use xlink:href="#h0lDQ3y9fJPF_pad-12" x="58555.5" y="-92041"/><use xlink:href="#h0lDQ3y9fJPF_pad-12" x="55303.85" y="-93200.018"/><use xlink:href="#h0lDQ3y9fJPF_pad-12" x="57855.5" y="-92041"/><use xlink:href="#h0lDQ3y9fJPF_pad-12" x="54600" y="-93200"/><use xlink:href="#h0lDQ3y9fJPF_pad-12" x="57155.5" y="-92041"/><use xlink:href="#h0lDQ3y9fJPF_pad-12" x="53987.597" y="-93200"/><use xlink:href="#h0lDQ3y9fJPF_pad-12" x="56552" y="-89794.5"/><use xlink:href="#h0lDQ3y9fJPF_pad-12" x="52740.965" y="-98750.006"/><use xlink:href="#h0lDQ3y9fJPF_pad-12" x="55850" y="-89796.5"/><use xlink:href="#h0lDQ3y9fJPF_pad-12" x="52387.362" y="-99250.005"/><use xlink:href="#h0lDQ3y9fJPF_pad-12" x="55148" y="-89798.5"/><use xlink:href="#h0lDQ3y9fJPF_pad-12" x="52740.965" y="-99750.006"/><use xlink:href="#h0lDQ3y9fJPF_pad-15" x="51835.5" y="-108321"/><use xlink:href="#h0lDQ3y9fJPF_pad-12" x="46500" y="-95550"/><use xlink:href="#h0lDQ3y9fJPF_pad-12" x="48549.999" y="-93767.768"/><use xlink:href="#h0lDQ3y9fJPF_pad-12" x="52230.5" y="-104491"/><use xlink:href="#h0lDQ3y9fJPF_pad-12" x="59905.5" y="-105091"/><use xlink:href="#h0lDQ3y9fJPF_pad-12" x="47455.5" y="-99291"/><use xlink:href="#h0lDQ3y9fJPF_pad-12" x="50605.5" y="-102991"/><use xlink:href="#h0lDQ3y9fJPF_pad-12" x="66155.5" y="-104266"/><use xlink:href="#h0lDQ3y9fJPF_pad-12" x="62805.5" y="-105341"/><use xlink:href="#h0lDQ3y9fJPF_pad-14" x="49905.5" y="-103941"/><use xlink:href="#h0lDQ3y9fJPF_pad-12" x="53630.022" y="-93791"/><use xlink:href="#h0lDQ3y9fJPF_pad-14" x="62855.5" y="-93991"/><use xlink:href="#h0lDQ3y9fJPF_pad-14" x="53305.5" y="-105191"/><use xlink:href="#h0lDQ3y9fJPF_pad-14" x="62450" y="-102896.5"/><use xlink:href="#h0lDQ3y9fJPF_pad-14" x="58305.5" y="-103891"/><use xlink:href="#h0lDQ3y9fJPF_pad-12" x="66505.5" y="-94941"/><use xlink:href="#h0lDQ3y9fJPF_pad-12" x="64605.5" y="-97691"/><use xlink:href="#h0lDQ3y9fJPF_pad-12" x="63155.5" y="-103141"/><use xlink:href="#h0lDQ3y9fJPF_pad-12" x="67705.5" y="-95141"/><use xlink:href="#h0lDQ3y9fJPF_pad-12" x="69105.5" y="-93791"/><use xlink:href="#h0lDQ3y9fJPF_pad-12" x="63605.5" y="-103591"/><use xlink:href="#h0lDQ3y9fJPF_pad-12" x="67680.5" y="-92691"/><use xlink:href="#h0lDQ3y9fJPF_pad-12" x="67530.5" y="-97591"/><use xlink:href="#h0lDQ3y9fJPF_pad-12" x="65905.5" y="-97641"/><use xlink:href="#h0lDQ3y9fJPF_pad-12" x="63121.298" y="-105865.698"/><use xlink:href="#h0lDQ3y9fJPF_pad-12" x="50365.321" y="-98130"/><use xlink:href="#h0lDQ3y9fJPF_pad-12" x="50767.59" y="-94500"/><use xlink:href="#h0lDQ3y9fJPF_pad-12" x="51883.039" y="-103132.099"/><use xlink:href="#h0lDQ3y9fJPF_pad-12" x="47605.5" y="-98691"/><path d="M 59155.5 -103891 59605.5 -103891 62205.5 -101291 M 59405.5 -92891 61105.5 -92891 62205.5 -93991 62205.5 -101291 M 58055.5 -99591 56855.5 -98391 M 56581.25 -96216.75 56855.5 -96491 56855.5 -98391 M 56581.25 -95743.75 56581.25 -96216.75 M 56581.25 -95743.75 55243.75 -95743.75" fill="none" stroke-width="200"/><path d="M 65230.5 -93616 66105.5 -93616 M 64005.5 -94841 65230.5 -93616 M 67030.5 -98266 64130.5 -98266 64005.5 -98391 64005.5 -94841 M 55243.75 -102102.75 53405.5 -103941 M 55243.75 -101256.25 55243.75 -102102.75 M 59255.5 -89191 59255.5 -92191 58755.5 -92691 58755.5 -95530.5 M 58755.5 -95580.5 58918.75 -95743.75" fill="none" stroke-width="300"/><path d="M 47800 -94400 47800 -93700.009 48500.009 -93000 M 49655.5 -92316 49505.5 -92166 49505.5 -92141 M 49655.5 -94246.118 49655.5 -92316 M 49555.5 -94346.118 49655.5 -94246.118 M 52505.5 -102341 52272.543 -102341 48452.41 -98520.867 48452.41 -95449.208 49555.5 -94346.118 M 52374.171 -102941 52655.5 -102941 M 52274.171 -102841 52374.171 -102941 M 52274.171 -102841 48100.008 -98666.837 48100.008 -95303.238 49108.873 -94294.373 49108.873 -92444.373 48805.5 -92141 M 50205.5 -94191 50205.5 -92141 M 50082.401 -94317.589 50082.401 -94314.099 50205.5 -94191 M 49682.245 -94717.745 50082.401 -94317.589 M 48804.812 -98374.897 48804.812 -95595.178 M 51413.208 -100983.293 48804.812 -98374.897 M 52170.915 -101741 51413.208 -100983.293 M 52755.5 -101741 52170.915 -101741 M 48804.812 -95595.178 49682.245 -94717.745 M 50847.739 -98791 50847.739 -97826.083 51294.161 -97379.661 M 50847.739 -99919.452 50847.739 -98791 M 51387.394 -100459.107 50847.739 -99919.452 M 52169.287 -101241 51387.394 -100459.107 M 52355.5 -101241 52169.287 -101241 M 51294.161 -97379.661 51385.57 -97288.252 M 51385.57 -92921.07 50905.5 -92441 M 51385.57 -97288.252 51385.57 -92921.07 M 51294.161 -97379.661 51244.161 -97429.661 M 51892.533 -97778.033 52090.374 -97580.192 M 51552.543 -99627.512 51552.543 -98441 51552.543 -98118.023 51892.533 -97778.033 M 52166.031 -100241 51685.766 -99760.735 M 52355.5 -100241 52166.031 -100241 M 51685.766 -99760.735 51552.543 -99627.512 M 52090.374 -92306.126 52255.5 -92141 M 52090.374 -97580.192 52090.374 -92306.126 M 51568.347 -97603.847 51737.972 -97434.222 51737.972 -92473.472 51555.5 -92291 M 51586.58 -100159.921 51200.141 -99773.482 M 52755.5 -100741 52167.659 -100741 51586.58 -100159.921 M 51200.141 -97972.053 51568.347 -97603.847 M 51200.141 -99773.482 51200.141 -97972.053 M 57868.279 -93228.221 58005.5 -93091 M 56632.001 -93228.221 57868.279 -93228.221 M 55916.192 -93209.16 56612.94 -93209.16 56632.001 -93228.221 M 57853.883 -92541 58055.5 -92541 58555.5 -92041 M 57519.072 -92875.811 57853.883 -92541 M 55303.85 -93200.018 55303.85 -92874.749 55518.958 -92659.641 M 56561.805 -92659.641 56777.974 -92875.811 M 55518.958 -92659.641 56561.805 -92659.641 M 56777.974 -92875.811 57519.072 -92875.811 M 57373.099 -92523.401 57855.5 -92041 M 55167.501 -92307.23 56707.776 -92307.23 56923.947 -92523.401 57373.099 -92523.401 M 54600 -93200 54600 -92874.731 55167.501 -92307.23 M 57069.321 -91954.821 57155.5 -92041 M 54845.179 -91954.821 57069.321 -91954.821 M 53987.597 -93200 53987.597 -92812.403 54845.179 -91954.821 M 53147.612 -93148.888 54694.089 -91602.411 55897.589 -91602.411 M 53147.612 -98018.09 53147.612 -93148.888 M 56552 -89794.5 56552 -90948 55897.589 -91602.411 M 53147.612 -98018.09 52740.965 -98424.737 52740.965 -98750.006 M 52795.202 -93001.298 54546.5 -91250 55346.5 -91250 M 52795.202 -97872.118 52795.202 -93001.298 M 52387.362 -99250.005 52258.564 -99121.207 52258.564 -98408.756 52795.202 -97872.118 M 55850 -90735.5 55850 -89796.5 M 55346.5 -91250 55855.5 -90741 55850 -90735.5 M 52442.792 -92853.708 54398.91 -90897.59 54852.41 -90897.59 M 52442.792 -97726.146 52442.792 -92853.708 M 55148 -89798.5 55148 -90602 M 52442.792 -97726.146 51904.961 -98263.977 M 55148 -90602 54852.41 -90897.59 M 51904.961 -98263.977 51904.961 -99481.558 52173.409 -99750.006 52740.965 -99750.006 M 52965.5 -108321 53165.5 -108121 M 51835.5 -108321 52965.5 -108321 M 46500 -95550 47354.853 -95550 48549.999 -94354.854 48549.999 -93767.768 M 52753.099 -105456.153 53040.347 -105743.401 M 52436.407 -104491 52753.099 -104807.692 52753.099 -105456.153 M 53040.347 -105743.401 59253.099 -105743.401 59905.5 -105091 M 52230.5 -104491 52436.407 -104491 M 50605.5 -102169.073 50605.5 -102991 M 47727.427 -99291 50605.5 -102169.073 M 47455.5 -99291 47727.427 -99291 M 62805.5 -105341 63605.5 -105341 64178.09 -105913.59 65357.91 -105913.59 66130.5 -105141 66130.5 -104291 66155.5 -104266" fill="none" stroke-width="200"/><path d="M 49905.5 -103941 50155.5 -103691 M 49655.5 -103691 49055.5 -103091 M 50155.5 -103691 49655.5 -103691 M 51405.5 -103691 50155.5 -103691 M 58305.5 -103891 58305.5 -104541 58355.5 -104591 M 52205.5 -103691 52705.5 -103691 53550.022 -102846.478 53550.022 -93871 53630.022 -93791 M 62655.5 -94191 62855.5 -93991 M 62655.5 -100441 62655.5 -94191 M 65405.5 -102591 67055.5 -102591 M 63855.5 -104141 65405.5 -102591 M 63305.5 -104141 63855.5 -104141 M 62450 -103285.5 63305.5 -104141 M 62450 -102896.5 62450 -103285.5 M 53305.5 -105191 53305.5 -104791 53105.5 -104591 M 59555.5 -104591 58355.5 -104591 53105.5 -104591 M 52205.5 -103691 51405.5 -103691 M 61805.5 -102341 59555.5 -104591 M 53105.5 -104591 52205.5 -103691 M 62450 -102896.5 61894.5 -102341 61805.5 -102341 M 62655.5 -101491 61805.5 -102341 M 62655.5 -100441 62655.5 -101491" fill="none" stroke-width="300"/><path d="M 65155.5 -94591 66155.5 -94591 M 66505.5 -94941 66155.5 -94591 M 64605.5 -95141 65155.5 -94591 M 64605.5 -97691 64605.5 -95141 M 67705.5 -95141 68155.5 -95591 68155.5 -97941 63155.5 -102941 63155.5 -103141 M 69005.5 -93891 69105.5 -93791 M 69005.5 -97641 69005.5 -93891 M 69005.5 -97641 63655.5 -102991 M 63655.5 -103541 63605.5 -103591 M 63655.5 -102991 63655.5 -103541 M 67105.5 -93166 67580.5 -92691 67680.5 -92691 M 67105.5 -93691 67105.5 -93166 M 67530.5 -97591 65955.5 -97591 65905.5 -97641 66730.5 -96816 67105.5 -96441 67105.5 -93691 M 70200 -102100 66034 -106266 64032.118 -106266 63631.816 -105865.698 63121.298 -105865.698 M 50365.321 -98130 50370 -98130 50495.321 -98004.679 50495.321 -97680.085 51033.152 -97142.255 51033.152 -94765.562 50767.59 -94500 M 51883.039 -103132.099 51855.5 -103104.56 51855.5 -102920.701 47625.799 -98691 47605.5 -98691 M 47625.799 -98691 47605.5 -98691" fill="none" stroke-width="200"/><path d="M 57173 -97073 54027.022 -97073 54027.022 -94427 57173 -94427 57173 -97073 57173 -97073"/><path d="M 57173 -97073 54027.022 -97073 54027.022 -94427 57173 -94427 57173 -97073" fill="none" stroke-width="254"/><path d="M 61470.5 -97073 58527 -97073 58527 -94427 61470.5 -94427 61470.5 -97073 61470.5 -97073"/><path d="M 61470.5 -97073 58527 -97073 58527 -94427 61470.5 -94427 61470.5 -97073" fill="none" stroke-width="254"/><path d="M 49076.043 -101360.724 49335.201 -101502.644 49739.552 -101906.995 49849.766 -102095.933 49931.711 -102496.554 49895.631 -102857.357 49731.671 -103230.821 49460.691 -103537.932 49084.57 -103730.579 48841.916 -103793.489 48547.212 -103802.42 48192.897 -103693.4 47881.619 -103501.14 47675.089 -103276.651 47604.775 -103139.93 47926.596 -102364.9 47927.303 -101554.433 48166.294 -101395.105 48432.323 -101306.429 48759.172 -101297.35 49076.043 -101360.724 49076.043 -101360.724"/><path d="M 49076.043 -101360.724 49335.201 -101502.644 49739.552 -101906.995 49849.766 -102095.933 49931.711 -102496.554 49895.631 -102857.357 49731.671 -103230.821 49460.691 -103537.932 49084.57 -103730.579 48841.916 -103793.489 48547.212 -103802.42 48192.897 -103693.4 47881.619 -103501.14 47675.089 -103276.651 47604.775 -103139.93 47926.596 -102364.9 47927.303 -101554.433 48166.294 -101395.105 48432.323 -101306.429 48759.172 -101297.35 49076.043 -101360.724" fill="none" stroke-width="254"/><path d="M 67277.677 -101426.429 67543.706 -101515.105 67817.72 -101697.781 67873.298 -101756.285 67872.597 -102560.838 68136.405 -103199.302 68034.911 -103396.651 67828.381 -103621.14 67517.103 -103813.4 67162.788 -103922.42 66868.084 -103913.489 66625.43 -103850.579 66249.309 -103657.932 65978.329 -103350.821 65814.369 -102977.357 65778.289 -102616.554 65860.234 -102215.933 66051.42 -101888.186 66246.949 -101692.657 66633.957 -101480.724 66950.828 -101417.35 67277.677 -101426.429 67277.677 -101426.429"/><path d="M 67277.677 -101426.429 67543.706 -101515.105 67817.72 -101697.781 67873.298 -101756.285 67872.597 -102560.838 68136.405 -103199.302 68034.911 -103396.651 67828.381 -103621.14 67517.103 -103813.4 67162.788 -103922.42 66868.084 -103913.489 66625.43 -103850.579 66249.309 -103657.932 65978.329 -103350.821 65814.369 -102977.357 65778.289 -102616.554 65860.234 -102215.933 66051.42 -101888.186 66246.949 -101692.657 66633.957 -101480.724 66950.828 -101417.35 67277.677 -101426.429" fill="none" stroke-width="254"/><path d="M 54573 -108873 53061.622 -108873 52973.446 -108835.961 52627 -108628.093 52627 -107600 52616.994 -107550.59 52588.553 -107508.965 52546.159 -107481.685 52500 -107473 52027 -107473 52027 -106227 54573 -106227 54573 -108873 54573 -108873"/><path d="M 54573 -108873 53061.622 -108873 52973.446 -108835.961 52627 -108628.093 52627 -107600 52616.994 -107550.59 52588.553 -107508.965 52546.159 -107481.685 52500 -107473 52027 -107473 52027 -106227 54573 -106227 54573 -108873" fill="none" stroke-width="254"/><path d="M 59528.5 -100664 56382.5 -100664 56382.5 -97018 59528.5 -97018 59528.5 -100664 59528.5 -100664"/><path d="M 59528.5 -100664 56382.5 -100664 56382.5 -97018 59528.5 -97018 59528.5 -100664" fill="none" stroke-width="254"/></g><g id="pcb-stackup_bottom_ss" transform="scale(25.4,25.4)"/><g id="pcb-stackup_bottom_sm"><path d="M 54700 -109000 53000 -109000 52994.173 -108996.504 52504.294 -108702.577 52504.292 -108702.575 52500 -108700 52500 -107650 52498.02 -107636.07 52492.239 -107623.244 52483.112 -107612.536 52471.364 -107604.794 52457.924 -107600.632 52450 -107600 51900 -107600 51900 -106100 54700 -106100 54700 -109000 54700 -109000"/><path d="M 55705.143 -107845.348 55806 -107866.051 55900.91 -107905.948 55986.267 -107963.521 56058.819 -108036.582 56115.791 -108122.333 56155.026 -108217.522 56174.956 -108318.177 56174.956 -108318.187 56175.022 -108318.521 56173.38 -108436.118 56173.304 -108436.452 56173.304 -108436.463 56150.572 -108536.519 56108.697 -108630.573 56049.348 -108714.706 55974.786 -108785.709 55887.856 -108840.877 55791.866 -108878.11 55690.475 -108895.987 55587.539 -108893.832 55486.977 -108871.721 55392.633 -108830.504 55308.09 -108771.744 55236.567 -108697.679 55180.796 -108611.141 55142.894 -108515.412 55124.308 -108414.141 55125.746 -108311.195 55147.151 -108210.489 55187.712 -108115.854 55245.879 -108030.903 55319.442 -107958.865 55405.592 -107902.49 55501.053 -107863.921 55602.184 -107844.629 55705.143 -107845.348 55705.143 -107845.348"/><path d="M 64633.775 -104136.498 64777.856 -104166.073 64913.444 -104223.069 65035.382 -104305.317 65139.023 -104409.685 65220.419 -104532.194 65276.464 -104668.173 65304.966 -104812.115 65304.966 -104812.125 65305.032 -104812.459 65302.686 -104980.455 65302.61 -104980.789 65302.61 -104980.801 65270.104 -105123.881 65210.279 -105258.25 65125.496 -105378.437 65018.978 -105479.872 64894.796 -105558.68 64757.666 -105611.869 64612.819 -105637.41 64465.769 -105634.33 64322.111 -105602.745 64187.338 -105543.864 64066.554 -105459.917 63964.383 -105354.115 63884.709 -105230.486 63830.564 -105093.731 63804.012 -104949.059 63806.066 -104801.992 63836.645 -104658.127 63894.587 -104522.937 63977.687 -104401.574 64082.773 -104298.665 64205.844 -104218.13 64342.221 -104163.03 64486.693 -104135.47 64633.775 -104136.498 64633.775 -104136.498"/><path d="M 50832.775 -104096.498 50976.856 -104126.073 51112.444 -104183.069 51234.382 -104265.317 51338.023 -104369.685 51419.419 -104492.194 51475.464 -104628.173 51503.966 -104772.115 51503.966 -104772.125 51504.032 -104772.459 51501.686 -104940.455 51501.61 -104940.789 51501.61 -104940.801 51469.104 -105083.881 51409.279 -105218.25 51324.496 -105338.437 51217.978 -105439.872 51093.796 -105518.68 50956.666 -105571.869 50811.819 -105597.41 50664.769 -105594.33 50521.111 -105562.745 50386.338 -105503.864 50265.554 -105419.917 50163.383 -105314.115 50083.709 -105190.486 50029.564 -105053.731 50003.012 -104909.059 50005.066 -104761.992 50035.645 -104618.127 50093.587 -104482.937 50176.687 -104361.574 50281.773 -104258.665 50404.844 -104178.13 50541.221 -104123.03 50685.693 -104095.47 50832.775 -104096.498 50832.775 -104096.498"/><path d="M 67162.746 -101306.373 67178.03 -101311.147 67347.02 -101335.289 67516.006 -101359.429 67516.009 -101359.43 67520 -101360 67820 -101510 68070 -101760 68070 -101810 68041.127 -102012.108 68020.503 -102156.479 68020 -102163.55 68020 -102450.37 68023.576 -102468.94 68218.067 -102955.166 68222.888 -102964.331 68249.769 -103004.653 68320 -103110 68317.341 -103116.647 68317.341 -103116.649 68265.526 -103246.185 68220 -103360 68217.327 -103363.119 68217.326 -103363.12 68142.857 -103450 67920 -103710 67620 -103910 67503.822 -103948.726 67173.823 -104058.726 67173.821 -104058.726 67170 -104060 66920 -104060 66916.179 -104058.726 66916.177 -104058.726 66768.58 -104009.527 66620 -103960 66362.381 -103849.592 66274.386 -103811.88 66274.385 -103811.879 66270 -103810 66020 -103560 65770 -103210 65688.11 -102964.331 65671.274 -102913.823 65671.274 -102913.821 65670 -102910 65670 -102360 65674.286 -102350 65819.097 -102012.108 65820 -102010 66020 -101710 66320 -101510 66320.471 -101509.717 66320.489 -101509.706 66566.318 -101362.209 66566.319 -101362.209 66570 -101360 67070 -101260 67162.746 -101306.373 67162.746 -101306.373"/><path d="M 49150 -101250 49153.681 -101252.209 49153.682 -101252.209 49399.511 -101399.706 49399.529 -101399.717 49400 -101400 49700 -101600 49900 -101900 50050 -102250 50050 -102800 50048.726 -102803.821 50048.726 -102803.823 50012.059 -102913.823 49950 -103100 49700 -103450 49450 -103700 49445.615 -103701.879 49445.614 -103701.88 49426.667 -103710 49100 -103850 48951.42 -103899.527 48803.823 -103948.726 48803.821 -103948.726 48800 -103950 48550 -103950 48546.179 -103948.726 48546.177 -103948.726 48248.776 -103849.592 48100 -103800 47800 -103600 47500 -103250 47482.58 -103206.451 47401.861 -103004.653 47401.861 -103004.652 47400 -103000 47403.97 -102994.045 47403.971 -102994.042 47497.112 -102854.331 47501.934 -102845.166 47696.424 -102358.94 47700 -102340.37 47700 -102053.55 47699.497 -102046.479 47678.873 -101902.108 47650 -101700 47650 -101650 47900 -101400 48200 -101250 48203.991 -101249.43 48203.994 -101249.429 48372.98 -101225.289 48541.97 -101201.147 48557.254 -101196.373 48650 -101150 49150 -101250 49150 -101250"/><path d="M 57300 -97200 53900 -97200 53900 -94300 57300 -94300 57300 -97200 57300 -97200"/><path d="M 61800 -97200 58400 -97200 58400 -94300 61800 -94300 61800 -97200 61800 -97200"/><path d="M 50078.272 -95280.431 50203.142 -95306.063 50320.651 -95355.46 50426.331 -95426.741 50516.154 -95517.194 50586.697 -95623.369 50635.269 -95741.216 50659.962 -95865.92 50659.962 -95865.93 50660.028 -95866.264 50657.995 -96011.861 50657.919 -96012.195 50657.919 -96012.206 50629.756 -96136.164 50577.908 -96252.616 50504.43 -96356.779 50412.117 -96444.687 50304.486 -96512.991 50185.644 -96559.088 50060.111 -96581.222 49932.667 -96578.553 49808.164 -96551.179 49691.355 -96500.146 49586.683 -96427.397 49498.131 -96335.699 49429.081 -96228.555 49382.155 -96110.034 49359.143 -95984.651 49360.924 -95857.192 49387.425 -95732.511 49437.643 -95615.344 49509.66 -95510.166 49600.737 -95420.976 49707.4 -95351.178 49825.59 -95303.426 49950.8 -95279.541 50078.272 -95280.431 50078.272 -95280.431"/><path d="M 65850.272 -94996.431 65975.142 -95022.063 66092.651 -95071.46 66198.331 -95142.741 66288.154 -95233.194 66358.697 -95339.369 66407.269 -95457.216 66431.962 -95581.92 66431.962 -95581.93 66432.028 -95582.264 66429.995 -95727.861 66429.919 -95728.195 66429.919 -95728.206 66401.756 -95852.164 66349.908 -95968.616 66276.43 -96072.779 66184.117 -96160.687 66076.486 -96228.991 65957.644 -96275.088 65832.111 -96297.222 65704.667 -96294.553 65580.164 -96267.179 65463.355 -96216.146 65358.683 -96143.397 65270.131 -96051.699 65201.081 -95944.555 65154.155 -95826.034 65131.143 -95700.651 65132.924 -95573.192 65159.425 -95448.511 65209.643 -95331.344 65281.66 -95226.166 65372.737 -95136.976 65479.4 -95067.178 65597.59 -95019.426 65722.8 -94995.541 65850.272 -94996.431 65850.272 -94996.431"/><path d="M 64500.775 -86569.498 64644.856 -86599.073 64780.444 -86656.069 64902.382 -86738.317 65006.023 -86842.685 65087.419 -86965.194 65143.464 -87101.173 65171.966 -87245.115 65171.966 -87245.125 65172.032 -87245.459 65169.686 -87413.455 65169.61 -87413.789 65169.61 -87413.801 65137.104 -87556.881 65077.279 -87691.25 64992.496 -87811.437 64885.978 -87912.872 64761.796 -87991.68 64624.666 -88044.869 64479.819 -88070.41 64332.769 -88067.33 64189.111 -88035.745 64054.338 -87976.864 63933.554 -87892.917 63831.383 -87787.115 63751.709 -87663.486 63697.564 -87526.731 63671.012 -87382.059 63673.066 -87234.992 63703.645 -87091.127 63761.587 -86955.937 63844.687 -86834.574 63949.773 -86731.665 64072.844 -86651.13 64209.221 -86596.03 64353.693 -86568.47 64500.775 -86569.498 64500.775 -86569.498"/><path d="M 51526.775 -86500.498 51670.856 -86530.073 51806.444 -86587.069 51928.382 -86669.317 52032.023 -86773.685 52113.419 -86896.194 52169.464 -87032.173 52197.966 -87176.115 52197.966 -87176.125 52198.032 -87176.459 52195.686 -87344.455 52195.61 -87344.789 52195.61 -87344.801 52163.104 -87487.881 52103.279 -87622.25 52018.496 -87742.437 51911.978 -87843.872 51787.796 -87922.68 51650.666 -87975.869 51505.819 -88001.41 51358.769 -87998.33 51215.111 -87966.745 51080.338 -87907.864 50959.554 -87823.917 50857.383 -87718.115 50777.709 -87594.486 50723.564 -87457.731 50697.012 -87313.059 50699.066 -87165.992 50729.645 -87022.127 50787.587 -86886.937 50870.687 -86765.574 50975.773 -86662.665 51098.844 -86582.13 51235.221 -86527.03 51379.693 -86499.47 51526.775 -86500.498 51526.775 -86500.498"/></g><g id="pcb-stackup_bottom_drl1"><use xlink:href="#S_BvTbs1N4uK_pad-1" x="46500" y="-95550"/><use xlink:href="#S_BvTbs1N4uK_pad-1" x="47456" y="-99291"/><use xlink:href="#S_BvTbs1N4uK_pad-1" x="47605" y="-98691"/><use xlink:href="#S_BvTbs1N4uK_pad-1" x="47800" y="-94400"/><use xlink:href="#S_BvTbs1N4uK_pad-1" x="48500" y="-93000"/><use xlink:href="#S_BvTbs1N4uK_pad-1" x="48550" y="-93768"/><use xlink:href="#S_BvTbs1N4uK_pad-1" x="48805" y="-92141"/><use xlink:href="#S_BvTbs1N4uK_pad-1" x="49505" y="-92141"/><use xlink:href="#S_BvTbs1N4uK_pad-1" x="50206" y="-92141"/><use xlink:href="#S_BvTbs1N4uK_pad-1" x="50365" y="-98130"/><use xlink:href="#S_BvTbs1N4uK_pad-1" x="50605" y="-102991"/><use xlink:href="#S_BvTbs1N4uK_pad-1" x="50768" y="-94500"/><use xlink:href="#S_BvTbs1N4uK_pad-1" x="50905" y="-92441"/><use xlink:href="#S_BvTbs1N4uK_pad-1" x="51555" y="-92291"/><use xlink:href="#S_BvTbs1N4uK_pad-1" x="51883" y="-103132"/><use xlink:href="#S_BvTbs1N4uK_pad-1" x="52230" y="-104491"/><use xlink:href="#S_BvTbs1N4uK_pad-1" x="52255" y="-92141"/><use xlink:href="#S_BvTbs1N4uK_pad-1" x="52355" y="-100241"/><use xlink:href="#S_BvTbs1N4uK_pad-1" x="52355" y="-101241"/><use xlink:href="#S_BvTbs1N4uK_pad-1" x="52387" y="-99250"/><use xlink:href="#S_BvTbs1N4uK_pad-1" x="52505" y="-102341"/><use xlink:href="#S_BvTbs1N4uK_pad-1" x="52655" y="-102941"/><use xlink:href="#S_BvTbs1N4uK_pad-1" x="52741" y="-98750"/><use xlink:href="#S_BvTbs1N4uK_pad-1" x="52741" y="-99750"/><use xlink:href="#S_BvTbs1N4uK_pad-1" x="52755" y="-100741"/><use xlink:href="#S_BvTbs1N4uK_pad-1" x="52755" y="-101741"/><use xlink:href="#S_BvTbs1N4uK_pad-1" x="53630" y="-93791"/><use xlink:href="#S_BvTbs1N4uK_pad-1" x="53988" y="-93200"/><use xlink:href="#S_BvTbs1N4uK_pad-1" x="54600" y="-93200"/><use xlink:href="#S_BvTbs1N4uK_pad-1" x="55148" y="-89798"/><use xlink:href="#S_BvTbs1N4uK_pad-1" x="55304" y="-93200"/><use xlink:href="#S_BvTbs1N4uK_pad-1" x="55850" y="-89796"/><use xlink:href="#S_BvTbs1N4uK_pad-1" x="55916" y="-93209"/><use xlink:href="#S_BvTbs1N4uK_pad-1" x="56552" y="-89794"/><use xlink:href="#S_BvTbs1N4uK_pad-1" x="56581" y="-95744"/><use xlink:href="#S_BvTbs1N4uK_pad-1" x="57155" y="-92041"/><use xlink:href="#S_BvTbs1N4uK_pad-1" x="57855" y="-92041"/><use xlink:href="#S_BvTbs1N4uK_pad-1" x="58005" y="-93091"/><use xlink:href="#S_BvTbs1N4uK_pad-1" x="58555" y="-92041"/><use xlink:href="#S_BvTbs1N4uK_pad-1" x="58919" y="-95744"/><use xlink:href="#S_BvTbs1N4uK_pad-1" x="59155" y="-103891"/><use xlink:href="#S_BvTbs1N4uK_pad-1" x="59405" y="-92891"/><use xlink:href="#S_BvTbs1N4uK_pad-1" x="59905" y="-105091"/><use xlink:href="#S_BvTbs1N4uK_pad-1" x="62805" y="-105341"/><use xlink:href="#S_BvTbs1N4uK_pad-1" x="63121" y="-105866"/><use xlink:href="#S_BvTbs1N4uK_pad-1" x="63155" y="-103141"/><use xlink:href="#S_BvTbs1N4uK_pad-1" x="63605" y="-103591"/><use xlink:href="#S_BvTbs1N4uK_pad-1" x="64605" y="-97691"/><use xlink:href="#S_BvTbs1N4uK_pad-1" x="65906" y="-97641"/><use xlink:href="#S_BvTbs1N4uK_pad-1" x="66156" y="-104266"/><use xlink:href="#S_BvTbs1N4uK_pad-1" x="66505" y="-94941"/><use xlink:href="#S_BvTbs1N4uK_pad-1" x="67531" y="-97591"/><use xlink:href="#S_BvTbs1N4uK_pad-1" x="67680" y="-92691"/><use xlink:href="#S_BvTbs1N4uK_pad-1" x="67706" y="-95141"/><use xlink:href="#S_BvTbs1N4uK_pad-1" x="69105" y="-93791"/><use xlink:href="#S_BvTbs1N4uK_pad-2" x="49905" y="-103941"/><use xlink:href="#S_BvTbs1N4uK_pad-2" x="53305" y="-105191"/><use xlink:href="#S_BvTbs1N4uK_pad-2" x="53405" y="-103941"/><use xlink:href="#S_BvTbs1N4uK_pad-2" x="55244" y="-101256"/><use xlink:href="#S_BvTbs1N4uK_pad-2" x="58305" y="-103891"/><use xlink:href="#S_BvTbs1N4uK_pad-2" x="59255" y="-89241"/><use xlink:href="#S_BvTbs1N4uK_pad-2" x="62450" y="-102896"/><use xlink:href="#S_BvTbs1N4uK_pad-2" x="62855" y="-93991"/><use xlink:href="#S_BvTbs1N4uK_pad-2" x="64005" y="-98391"/><use xlink:href="#S_BvTbs1N4uK_pad-2" x="66105" y="-93616"/><use xlink:href="#S_BvTbs1N4uK_pad-2" x="67031" y="-98266"/><use xlink:href="#S_BvTbs1N4uK_pad-3" x="51835" y="-108321"/><use xlink:href="#S_BvTbs1N4uK_pad-4" x="57956" y="-99291"/><use xlink:href="#S_BvTbs1N4uK_pad-5" x="45600" y="-92300"/><use xlink:href="#S_BvTbs1N4uK_pad-5" x="45600" y="-101900"/><use xlink:href="#S_BvTbs1N4uK_pad-5" x="70200" y="-102100"/><use xlink:href="#S_BvTbs1N4uK_pad-6" x="55650" y="-108370"/><use xlink:href="#S_BvTbs1N4uK_pad-7" x="50010" y="-95930"/><use xlink:href="#S_BvTbs1N4uK_pad-7" x="65782" y="-95646"/><use xlink:href="#S_BvTbs1N4uK_pad-8" x="50754" y="-104846"/><use xlink:href="#S_BvTbs1N4uK_pad-8" x="51448" y="-87250"/><use xlink:href="#S_BvTbs1N4uK_pad-8" x="64422" y="-87319"/><use xlink:href="#S_BvTbs1N4uK_pad-8" x="64555" y="-104886"/></g><clipPath id="pcb-stackup_bottom_out"><path d="M 57280.5 -106266 63655.5 -106266 63655.5 -108166 57280.5 -108166 57280.5 -106266 M 69600 -100750 69150 -103150 69135.95 -103875.658 68920.426 -104199.223 68682.851 -104199.223 66539.176 -106681.345 66539.176 -106886.396 66103.611 -107256.974 65654.55 -107611.563 65191.689 -107948.548 64714.722 -108266.316 64223.348 -108563.245 63717.258 -108837.72 63196.149 -109088.127 62659.721 -109312.847 53135.271 -109312.847 52593.407 -109085.232 52064.819 -108834.356 51550.026 -108560.922 51049.55 -108265.627 50563.913 -107949.166 50093.638 -107612.241 49639.241 -107255.546 49201.249 -106879.781 49201.249 -106540.784 47058.126 -104058.662 46885.596 -104058.662 46612.193 -103676.118 46600 -103100 46000 -100400 45713.182 -99791.705 45713.182 -94369.4 46200 -93500 46700 -91500 46688.85 -90334.506 46900.517 -90071.576 47152.423 -90071.576 49296.095 -87589.454 49296.095 -87296.206 49732.348 -86928.453 50183.557 -86580.533 50649.029 -86252.87 51128.073 -85945.885 51620 -85660 52124.12 -85395.634 52639.743 -85153.208 53166.177 -84933.148 53166.172 -84933.148 53166.166 -84933.148 53166.16 -84933.148 53166.155 -84933.148 53166.149 -84933.148 53166.143 -84933.148 53166.138 -84933.148 53166.132 -84933.148 62691.682 -84933.148 63257.467 -85173.243 63806.884 -85440.815 64339.942 -85734.38 64856.651 -86052.464 65357.02 -86393.586 65841.065 -86756.267 66308.789 -87139.031 66760.204 -87540.396 66760.204 -87787.34 68903.329 -90270.012 69042.236 -90270.012 69343.844 -90782.658 69624.711 -91308.666 69882.092 -91848.789 70113.246 -92403.768 70113.246 -99897.538 69600 -100750" fill="none" stroke-width="100"/></clipPath><mask id="pcb-stackup_bottom_mech-mask"><g fill="#000" stroke="#000"><rect x="45713.182" y="-109312.847" width="24400.064" height="24379.699" fill="#fff"/><use xlink:href="#pcb-stackup_bottom_drl1"/></g></mask><mask id="pcb-stackup_bottom_cf-mask"><g fill="#fff" stroke="#fff"><use xlink:href="#pcb-stackup_bottom_sm"/></g></mask><mask id="pcb-stackup_bottom_sm-mask"><g fill="#000" stroke="#000"><rect x="45713.182" y="-109312.847" width="24400.064" height="24379.699" fill="#fff"/><use xlink:href="#pcb-stackup_bottom_sm"/></g></mask></defs><g transform="translate(0,-194245.995) scale(1,-1)"><g mask="url(#pcb-stackup_bottom_mech-mask)" clip-path="url(#pcb-stackup_bottom_out)" transform="translate(115826.428,0) scale(-1,1)"><rect x="45713.182" y="-109312.847" width="24400.064" height="24379.699" fill="currentColor" class="pcb-stackup_fr4"/><use xlink:href="#pcb-stackup_bottom_cu" fill="currentColor" stroke="currentColor" class="pcb-stackup_cu"/><use xlink:href="#pcb-stackup_bottom_cu" fill="currentColor" stroke="currentColor" class="pcb-stackup_cf" mask="url(#pcb-stackup_bottom_cf-mask)"/><g mask="url(#pcb-stackup_bottom_sm-mask)"><rect x="45713.182" y="-109312.847" width="24400.064" height="24379.699" fill="currentColor" class="pcb-stackup_sm"/><use xlink:href="#pcb-stackup_bottom_ss" fill="currentColor" stroke="currentColor" class="pcb-stackup_ss"/></g></g></g></svg>