<svg id="pcb-stackup_top" version="1.1" xmlns:xlink="http://www.w3.org/1999/xlink" stroke-linecap="round" stroke-linejoin="round" stroke-width="0" fill-rule="evenodd" clip-rule="evenodd" viewBox="45713.182 -109312.847 24400.064 24379.699" width="24.400063999999997mm" height="24.379699000000002mm" xmlns="http://www.w3.org/2000/svg"><defs><style>.pcb-stackup_fr4 {color: #4D542C;}
.pcb-stackup_cu {color: lightgrey;}
.pcb-stackup_cf {color: goldenrod;}
.pcb-stackup_sm {color: #004400; opacity: 0.9;}
.pcb-stackup_ss {color: white;}
.pcb-stackup_sp {color: #000000; opacity: 0;}
.pcb-stackup_out {color: black;}</style><rect x="-300" y="-250" width="600" height="500" id="J_2UlruRndoO_pad-11"/><rect x="-186.5" y="-754.5" width="373" height="1509" id="J_2UlruRndoO_pad-12"/><rect x="-150" y="-400" width="300" height="800" id="J_2UlruRndoO_pad-13"/><rect x="-150" y="-425" width="300" height="850" id="J_2UlruRndoO_pad-14"/><rect x="-400" y="-150" width="800" height="300" id="J_2UlruRndoO_pad-15"/><rect x="-425" y="-150" width="850" height="300" id="J_2UlruRndoO_pad-16"/><rect x="-918.75" y="-918.75" width="1837.5" height="1837.5" id="J_2UlruRndoO_pad-17"/><circle cx="0" cy="0" r="2000" id="J_2UlruRndoO_pad-18"/><circle cx="0" cy="0" r="600" id="J_2UlruRndoO_pad-19"/><rect x="-600" y="-400" width="1200" height="800" id="J_2UlruRndoO_pad-20"/><rect x="-550" y="-750" width="1100" height="1500" id="J_2UlruRndoO_pad-21"/><rect x="-500" y="-1125" width="1000" height="2250" id="J_2UlruRndoO_pad-22"/><rect x="-300" y="-200" width="600" height="400" id="J_2UlruRndoO_pad-23"/><rect x="-200" y="-300" width="400" height="600" id="J_2UlruRndoO_pad-24"/><rect x="-175" y="-400" width="350" height="800" id="J_2UlruRndoO_pad-25"/><rect x="-250" y="-300" width="500" height="600" id="J_2UlruRndoO_pad-26"/><rect x="-120" y="-400" width="240" height="800" id="J_2UlruRndoO_pad-27"/><circle cx="0" cy="0" r="230" id="J_2UlruRndoO_pad-28"/><circle cx="0" cy="0" r="1250" id="J_2UlruRndoO_pad-29"/><circle cx="0" cy="0" r="300" id="J_2UlruRndoO_pad-30"/><rect x="-300" y="-250" width="600" height="500" id="J_2UlruRndoO_pad-11"/><rect x="-186.5" y="-754.5" width="373" height="1509" id="J_2UlruRndoO_pad-12"/><rect x="-150" y="-400" width="300" height="800" id="J_2UlruRndoO_pad-13"/><rect x="-150" y="-425" width="300" height="850" id="J_2UlruRndoO_pad-14"/><rect x="-400" y="-150" width="800" height="300" id="J_2UlruRndoO_pad-15"/><rect x="-425" y="-150" width="850" height="300" id="J_2UlruRndoO_pad-16"/><rect x="-918.75" y="-918.75" width="1837.5" height="1837.5" id="J_2UlruRndoO_pad-17"/><circle cx="0" cy="0" r="2000" id="J_2UlruRndoO_pad-18"/><circle cx="0" cy="0" r="600" id="J_2UlruRndoO_pad-19"/><rect x="-600" y="-400" width="1200" height="800" id="J_2UlruRndoO_pad-20"/><rect x="-550" y="-750" width="1100" height="1500" id="J_2UlruRndoO_pad-21"/><rect x="-500" y="-1125" width="1000" height="2250" id="J_2UlruRndoO_pad-22"/><rect x="-300" y="-200" width="600" height="400" id="J_2UlruRndoO_pad-23"/><rect x="-200" y="-300" width="400" height="600" id="J_2UlruRndoO_pad-24"/><rect x="-175" y="-400" width="350" height="800" id="J_2UlruRndoO_pad-25"/><rect x="-250" y="-300" width="500" height="600" id="J_2UlruRndoO_pad-26"/><rect x="-120" y="-400" width="240" height="800" id="J_2UlruRndoO_pad-27"/><circle cx="0" cy="0" r="230" id="J_2UlruRndoO_pad-28"/><circle cx="0" cy="0" r="1250" id="J_2UlruRndoO_pad-29"/><circle cx="0" cy="0" r="300" id="J_2UlruRndoO_pad-30"/><rect x="-300" y="-250" width="600" height="500" id="J_2UlruRndoO_pad-11"/><rect x="-186.5" y="-754.5" width="373" height="1509" id="J_2UlruRndoO_pad-12"/><rect x="-150" y="-400" width="300" height="800" id="J_2UlruRndoO_pad-13"/><rect x="-150" y="-425" width="300" height="850" id="J_2UlruRndoO_pad-14"/><rect x="-400" y="-150" width="800" height="300" id="J_2UlruRndoO_pad-15"/><rect x="-425" y="-150" width="850" height="300" id="J_2UlruRndoO_pad-16"/><rect x="-918.75" y="-918.75" width="1837.5" height="1837.5" id="J_2UlruRndoO_pad-17"/><circle cx="0" cy="0" r="2000" id="J_2UlruRndoO_pad-18"/><circle cx="0" cy="0" r="600" id="J_2UlruRndoO_pad-19"/><rect x="-600" y="-400" width="1200" height="800" id="J_2UlruRndoO_pad-20"/><rect x="-550" y="-750" width="1100" height="1500" id="J_2UlruRndoO_pad-21"/><rect x="-500" y="-1125" width="1000" height="2250" id="J_2UlruRndoO_pad-22"/><rect x="-300" y="-200" width="600" height="400" id="J_2UlruRndoO_pad-23"/><rect x="-200" y="-300" width="400" height="600" id="J_2UlruRndoO_pad-24"/><rect x="-175" y="-400" width="350" height="800" id="J_2UlruRndoO_pad-25"/><rect x="-250" y="-300" width="500" height="600" id="J_2UlruRndoO_pad-26"/><rect x="-120" y="-400" width="240" height="800" id="J_2UlruRndoO_pad-27"/><circle cx="0" cy="0" r="230" id="J_2UlruRndoO_pad-28"/><circle cx="0" cy="0" r="1250" id="J_2UlruRndoO_pad-29"/><circle cx="0" cy="0" r="300" id="J_2UlruRndoO_pad-30"/><rect x="-300" y="-250" width="600" height="500" id="J_2UlruRndoO_pad-11"/><rect x="-186.5" y="-754.5" width="373" height="1509" id="J_2UlruRndoO_pad-12"/><rect x="-150" y="-400" width="300" height="800" id="J_2UlruRndoO_pad-13"/><rect x="-150" y="-425" width="300" height="850" id="J_2UlruRndoO_pad-14"/><rect x="-400" y="-150" width="800" height="300" id="J_2UlruRndoO_pad-15"/><rect x="-425" y="-150" width="850" height="300" id="J_2UlruRndoO_pad-16"/><rect x="-918.75" y="-918.75" width="1837.5" height="1837.5" id="J_2UlruRndoO_pad-17"/><circle cx="0" cy="0" r="2000" id="J_2UlruRndoO_pad-18"/><circle cx="0" cy="0" r="600" id="J_2UlruRndoO_pad-19"/><rect x="-600" y="-400" width="1200" height="800" id="J_2UlruRndoO_pad-20"/><rect x="-550" y="-750" width="1100" height="1500" id="J_2UlruRndoO_pad-21"/><rect x="-500" y="-1125" width="1000" height="2250" id="J_2UlruRndoO_pad-22"/><rect x="-300" y="-200" width="600" height="400" id="J_2UlruRndoO_pad-23"/><rect x="-200" y="-300" width="400" height="600" id="J_2UlruRndoO_pad-24"/><rect x="-175" y="-400" width="350" height="800" id="J_2UlruRndoO_pad-25"/><rect x="-250" y="-300" width="500" height="600" id="J_2UlruRndoO_pad-26"/><rect x="-120" y="-400" width="240" height="800" id="J_2UlruRndoO_pad-27"/><circle cx="0" cy="0" r="230" id="J_2UlruRndoO_pad-28"/><circle cx="0" cy="0" r="1250" id="J_2UlruRndoO_pad-29"/><circle cx="0" cy="0" r="300" id="J_2UlruRndoO_pad-30"/><rect x="-300" y="-250" width="600" height="500" id="J_2UlruRndoO_pad-11"/><rect x="-186.5" y="-754.5" width="373" height="1509" id="J_2UlruRndoO_pad-12"/><rect x="-150" y="-400" width="300" height="800" id="J_2UlruRndoO_pad-13"/><rect x="-150" y="-425" width="300" height="850" id="J_2UlruRndoO_pad-14"/><rect x="-400" y="-150" width="800" height="300" id="J_2UlruRndoO_pad-15"/><rect x="-425" y="-150" width="850" height="300" id="J_2UlruRndoO_pad-16"/><rect x="-918.75" y="-918.75" width="1837.5" height="1837.5" id="J_2UlruRndoO_pad-17"/><circle cx="0" cy="0" r="2000" id="J_2UlruRndoO_pad-18"/><circle cx="0" cy="0" r="600" id="J_2UlruRndoO_pad-19"/><rect x="-600" y="-400" width="1200" height="800" id="J_2UlruRndoO_pad-20"/><rect x="-550" y="-750" width="1100" height="1500" id="J_2UlruRndoO_pad-21"/><rect x="-500" y="-1125" width="1000" height="2250" id="J_2UlruRndoO_pad-22"/><rect x="-300" y="-200" width="600" height="400" id="J_2UlruRndoO_pad-23"/><rect x="-200" y="-300" width="400" height="600" id="J_2UlruRndoO_pad-24"/><rect x="-175" y="-400" width="350" height="800" id="J_2UlruRndoO_pad-25"/><rect x="-250" y="-300" width="500" height="600" id="J_2UlruRndoO_pad-26"/><rect x="-120" y="-400" width="240" height="800" id="J_2UlruRndoO_pad-27"/><circle cx="0" cy="0" r="230" id="J_2UlruRndoO_pad-28"/><circle cx="0" cy="0" r="1250" id="J_2UlruRndoO_pad-29"/><circle cx="0" cy="0" r="300" id="J_2UlruRndoO_pad-30"/><rect x="-300" y="-250" width="600" height="500" id="J_2UlruRndoO_pad-11"/><rect x="-186.5" y="-754.5" width="373" height="1509" id="J_2UlruRndoO_pad-12"/><rect x="-150" y="-400" width="300" height="800" id="J_2UlruRndoO_pad-13"/><rect x="-150" y="-425" width="300" height="850" id="J_2UlruRndoO_pad-14"/><rect x="-400" y="-150" width="800" height="300" id="J_2UlruRndoO_pad-15"/><rect x="-425" y="-150" width="850" height="300" id="J_2UlruRndoO_pad-16"/><rect x="-918.75" y="-918.75" width="1837.5" height="1837.5" id="J_2UlruRndoO_pad-17"/><circle cx="0" cy="0" r="2000" id="J_2UlruRndoO_pad-18"/><circle cx="0" cy="0" r="600" id="J_2UlruRndoO_pad-19"/><rect x="-600" y="-400" width="1200" height="800" id="J_2UlruRndoO_pad-20"/><rect x="-550" y="-750" width="1100" height="1500" id="J_2UlruRndoO_pad-21"/><rect x="-500" y="-1125" width="1000" height="2250" id="J_2UlruRndoO_pad-22"/><rect x="-300" y="-200" width="600" height="400" id="J_2UlruRndoO_pad-23"/><rect x="-200" y="-300" width="400" height="600" id="J_2UlruRndoO_pad-24"/><rect x="-175" y="-400" width="350" height="800" id="J_2UlruRndoO_pad-25"/><rect x="-250" y="-300" width="500" height="600" id="J_2UlruRndoO_pad-26"/><rect x="-120" y="-400" width="240" height="800" id="J_2UlruRndoO_pad-27"/><circle cx="0" cy="0" r="230" id="J_2UlruRndoO_pad-28"/><circle cx="0" cy="0" r="1250" id="J_2UlruRndoO_pad-29"/><circle cx="0" cy="0" r="300" id="J_2UlruRndoO_pad-30"/><rect x="-300" y="-250" width="600" height="500" id="J_2UlruRndoO_pad-11"/><rect x="-186.5" y="-754.5" width="373" height="1509" id="J_2UlruRndoO_pad-12"/><rect x="-150" y="-400" width="300" height="800" id="J_2UlruRndoO_pad-13"/><rect x="-150" y="-425" width="300" height="850" id="J_2UlruRndoO_pad-14"/><rect x="-400" y="-150" width="800" height="300" id="J_2UlruRndoO_pad-15"/><rect x="-425" y="-150" width="850" height="300" id="J_2UlruRndoO_pad-16"/><rect x="-918.75" y="-918.75" width="1837.5" height="1837.5" id="J_2UlruRndoO_pad-17"/><circle cx="0" cy="0" r="2000" id="J_2UlruRndoO_pad-18"/><circle cx="0" cy="0" r="600" id="J_2UlruRndoO_pad-19"/><rect x="-600" y="-400" width="1200" height="800" id="J_2UlruRndoO_pad-20"/><rect x="-550" y="-750" width="1100" height="1500" id="J_2UlruRndoO_pad-21"/><rect x="-500" y="-1125" width="1000" height="2250" id="J_2UlruRndoO_pad-22"/><rect x="-300" y="-200" width="600" height="400" id="J_2UlruRndoO_pad-23"/><rect x="-200" y="-300" width="400" height="600" id="J_2UlruRndoO_pad-24"/><rect x="-175" y="-400" width="350" height="800" id="J_2UlruRndoO_pad-25"/><rect x="-250" y="-300" width="500" height="600" id="J_2UlruRndoO_pad-26"/><rect x="-120" y="-400" width="240" height="800" id="J_2UlruRndoO_pad-27"/><circle cx="0" cy="0" r="230" id="J_2UlruRndoO_pad-28"/><circle cx="0" cy="0" r="1250" id="J_2UlruRndoO_pad-29"/><circle cx="0" cy="0" r="300" id="J_2UlruRndoO_pad-30"/><rect x="-300" y="-250" width="600" height="500" id="J_2UlruRndoO_pad-11"/><rect x="-186.5" y="-754.5" width="373" height="1509" id="J_2UlruRndoO_pad-12"/><rect x="-150" y="-400" width="300" height="800" id="J_2UlruRndoO_pad-13"/><rect x="-150" y="-425" width="300" height="850" id="J_2UlruRndoO_pad-14"/><rect x="-400" y="-150" width="800" height="300" id="J_2UlruRndoO_pad-15"/><rect x="-425" y="-150" width="850" height="300" id="J_2UlruRndoO_pad-16"/><rect x="-918.75" y="-918.75" width="1837.5" height="1837.5" id="J_2UlruRndoO_pad-17"/><circle cx="0" cy="0" r="2000" id="J_2UlruRndoO_pad-18"/><circle cx="0" cy="0" r="600" id="J_2UlruRndoO_pad-19"/><rect x="-600" y="-400" width="1200" height="800" id="J_2UlruRndoO_pad-20"/><rect x="-550" y="-750" width="1100" height="1500" id="J_2UlruRndoO_pad-21"/><rect x="-500" y="-1125" width="1000" height="2250" id="J_2UlruRndoO_pad-22"/><rect x="-300" y="-200" width="600" height="400" id="J_2UlruRndoO_pad-23"/><rect x="-200" y="-300" width="400" height="600" id="J_2UlruRndoO_pad-24"/><rect x="-175" y="-400" width="350" height="800" id="J_2UlruRndoO_pad-25"/><rect x="-250" y="-300" width="500" height="600" id="J_2UlruRndoO_pad-26"/><rect x="-120" y="-400" width="240" height="800" id="J_2UlruRndoO_pad-27"/><circle cx="0" cy="0" r="230" id="J_2UlruRndoO_pad-28"/><circle cx="0" cy="0" r="1250" id="J_2UlruRndoO_pad-29"/><circle cx="0" cy="0" r="300" id="J_2UlruRndoO_pad-30"/><circle cx="0" cy="0" r="150" id="S_BvTbs1N4uK_pad-1"/><circle cx="0" cy="0" r="200" id="S_BvTbs1N4uK_pad-2"/><circle cx="0" cy="0" r="425" id="S_BvTbs1N4uK_pad-3"/><circle cx="0" cy="0" r="1000" id="S_BvTbs1N4uK_pad-4"/><circle cx="0" cy="0" r="1400" id="S_BvTbs1N4uK_pad-5"/><circle cx="0" cy="0" r="425" id="S_BvTbs1N4uK_pad-6"/><circle cx="0" cy="0" r="550" id="S_BvTbs1N4uK_pad-7"/><circle cx="0" cy="0" r="650" id="S_BvTbs1N4uK_pad-8"/><rect x="-300" y="-250" width="600" height="500" id="J_2UlruRndoO_pad-11"/><rect x="-186.5" y="-754.5" width="373" height="1509" id="J_2UlruRndoO_pad-12"/><rect x="-150" y="-400" width="300" height="800" id="J_2UlruRndoO_pad-13"/><rect x="-150" y="-425" width="300" height="850" id="J_2UlruRndoO_pad-14"/><rect x="-400" y="-150" width="800" height="300" id="J_2UlruRndoO_pad-15"/><rect x="-425" y="-150" width="850" height="300" id="J_2UlruRndoO_pad-16"/><rect x="-918.75" y="-918.75" width="1837.5" height="1837.5" id="J_2UlruRndoO_pad-17"/><circle cx="0" cy="0" r="2000" id="J_2UlruRndoO_pad-18"/><circle cx="0" cy="0" r="600" id="J_2UlruRndoO_pad-19"/><rect x="-600" y="-400" width="1200" height="800" id="J_2UlruRndoO_pad-20"/><rect x="-550" y="-750" width="1100" height="1500" id="J_2UlruRndoO_pad-21"/><rect x="-500" y="-1125" width="1000" height="2250" id="J_2UlruRndoO_pad-22"/><rect x="-300" y="-200" width="600" height="400" id="J_2UlruRndoO_pad-23"/><rect x="-200" y="-300" width="400" height="600" id="J_2UlruRndoO_pad-24"/><rect x="-175" y="-400" width="350" height="800" id="J_2UlruRndoO_pad-25"/><rect x="-250" y="-300" width="500" height="600" id="J_2UlruRndoO_pad-26"/><rect x="-120" y="-400" width="240" height="800" id="J_2UlruRndoO_pad-27"/><circle cx="0" cy="0" r="230" id="J_2UlruRndoO_pad-28"/><circle cx="0" cy="0" r="1250" id="J_2UlruRndoO_pad-29"/><circle cx="0" cy="0" r="300" id="J_2UlruRndoO_pad-30"/><rect x="-300" y="-250" width="600" height="500" id="J_2UlruRndoO_pad-11"/><rect x="-186.5" y="-754.5" width="373" height="1509" id="J_2UlruRndoO_pad-12"/><rect x="-150" y="-400" width="300" height="800" id="J_2UlruRndoO_pad-13"/><rect x="-150" y="-425" width="300" height="850" id="J_2UlruRndoO_pad-14"/><rect x="-400" y="-150" width="800" height="300" id="J_2UlruRndoO_pad-15"/><rect x="-425" y="-150" width="850" height="300" id="J_2UlruRndoO_pad-16"/><rect x="-918.75" y="-918.75" width="1837.5" height="1837.5" id="J_2UlruRndoO_pad-17"/><circle cx="0" cy="0" r="2000" id="J_2UlruRndoO_pad-18"/><circle cx="0" cy="0" r="600" id="J_2UlruRndoO_pad-19"/><rect x="-600" y="-400" width="1200" height="800" id="J_2UlruRndoO_pad-20"/><rect x="-550" y="-750" width="1100" height="1500" id="J_2UlruRndoO_pad-21"/><rect x="-500" y="-1125" width="1000" height="2250" id="J_2UlruRndoO_pad-22"/><rect x="-300" y="-200" width="600" height="400" id="J_2UlruRndoO_pad-23"/><rect x="-200" y="-300" width="400" height="600" id="J_2UlruRndoO_pad-24"/><rect x="-175" y="-400" width="350" height="800" id="J_2UlruRndoO_pad-25"/><rect x="-250" y="-300" width="500" height="600" id="J_2UlruRndoO_pad-26"/><rect x="-120" y="-400" width="240" height="800" id="J_2UlruRndoO_pad-27"/><circle cx="0" cy="0" r="230" id="J_2UlruRndoO_pad-28"/><circle cx="0" cy="0" r="1250" id="J_2UlruRndoO_pad-29"/><circle cx="0" cy="0" r="300" id="J_2UlruRndoO_pad-30"/><rect x="-300" y="-250" width="600" height="500" id="J_2UlruRndoO_pad-11"/><rect x="-186.5" y="-754.5" width="373" height="1509" id="J_2UlruRndoO_pad-12"/><rect x="-150" y="-400" width="300" height="800" id="J_2UlruRndoO_pad-13"/><rect x="-150" y="-425" width="300" height="850" id="J_2UlruRndoO_pad-14"/><rect x="-400" y="-150" width="800" height="300" id="J_2UlruRndoO_pad-15"/><rect x="-425" y="-150" width="850" height="300" id="J_2UlruRndoO_pad-16"/><rect x="-918.75" y="-918.75" width="1837.5" height="1837.5" id="J_2UlruRndoO_pad-17"/><circle cx="0" cy="0" r="2000" id="J_2UlruRndoO_pad-18"/><circle cx="0" cy="0" r="600" id="J_2UlruRndoO_pad-19"/><rect x="-600" y="-400" width="1200" height="800" id="J_2UlruRndoO_pad-20"/><rect x="-550" y="-750" width="1100" height="1500" id="J_2UlruRndoO_pad-21"/><rect x="-500" y="-1125" width="1000" height="2250" id="J_2UlruRndoO_pad-22"/><rect x="-300" y="-200" width="600" height="400" id="J_2UlruRndoO_pad-23"/><rect x="-200" y="-300" width="400" height="600" id="J_2UlruRndoO_pad-24"/><rect x="-175" y="-400" width="350" height="800" id="J_2UlruRndoO_pad-25"/><rect x="-250" y="-300" width="500" height="600" id="J_2UlruRndoO_pad-26"/><rect x="-120" y="-400" width="240" height="800" id="J_2UlruRndoO_pad-27"/><circle cx="0" cy="0" r="230" id="J_2UlruRndoO_pad-28"/><circle cx="0" cy="0" r="1250" id="J_2UlruRndoO_pad-29"/><circle cx="0" cy="0" r="300" id="J_2UlruRndoO_pad-30"/><rect x="-300" y="-250" width="600" height="500" id="J_2UlruRndoO_pad-11"/><rect x="-186.5" y="-754.5" width="373" height="1509" id="J_2UlruRndoO_pad-12"/><rect x="-150" y="-400" width="300" height="800" id="J_2UlruRndoO_pad-13"/><rect x="-150" y="-425" width="300" height="850" id="J_2UlruRndoO_pad-14"/><rect x="-400" y="-150" width="800" height="300" id="J_2UlruRndoO_pad-15"/><rect x="-425" y="-150" width="850" height="300" id="J_2UlruRndoO_pad-16"/><rect x="-918.75" y="-918.75" width="1837.5" height="1837.5" id="J_2UlruRndoO_pad-17"/><circle cx="0" cy="0" r="2000" id="J_2UlruRndoO_pad-18"/><circle cx="0" cy="0" r="600" id="J_2UlruRndoO_pad-19"/><rect x="-600" y="-400" width="1200" height="800" id="J_2UlruRndoO_pad-20"/><rect x="-550" y="-750" width="1100" height="1500" id="J_2UlruRndoO_pad-21"/><rect x="-500" y="-1125" width="1000" height="2250" id="J_2UlruRndoO_pad-22"/><rect x="-300" y="-200" width="600" height="400" id="J_2UlruRndoO_pad-23"/><rect x="-200" y="-300" width="400" height="600" id="J_2UlruRndoO_pad-24"/><rect x="-175" y="-400" width="350" height="800" id="J_2UlruRndoO_pad-25"/><rect x="-250" y="-300" width="500" height="600" id="J_2UlruRndoO_pad-26"/><rect x="-120" y="-400" width="240" height="800" id="J_2UlruRndoO_pad-27"/><circle cx="0" cy="0" r="230" id="J_2UlruRndoO_pad-28"/><circle cx="0" cy="0" r="1250" id="J_2UlruRndoO_pad-29"/><circle cx="0" cy="0" r="300" id="J_2UlruRndoO_pad-30"/><rect x="-300" y="-250" width="600" height="500" id="J_2UlruRndoO_pad-11"/><rect x="-186.5" y="-754.5" width="373" height="1509" id="J_2UlruRndoO_pad-12"/><rect x="-150" y="-400" width="300" height="800" id="J_2UlruRndoO_pad-13"/><rect x="-150" y="-425" width="300" height="850" id="J_2UlruRndoO_pad-14"/><rect x="-400" y="-150" width="800" height="300" id="J_2UlruRndoO_pad-15"/><rect x="-425" y="-150" width="850" height="300" id="J_2UlruRndoO_pad-16"/><rect x="-918.75" y="-918.75" width="1837.5" height="1837.5" id="J_2UlruRndoO_pad-17"/><circle cx="0" cy="0" r="2000" id="J_2UlruRndoO_pad-18"/><circle cx="0" cy="0" r="600" id="J_2UlruRndoO_pad-19"/><rect x="-600" y="-400" width="1200" height="800" id="J_2UlruRndoO_pad-20"/><rect x="-550" y="-750" width="1100" height="1500" id="J_2UlruRndoO_pad-21"/><rect x="-500" y="-1125" width="1000" height="2250" id="J_2UlruRndoO_pad-22"/><rect x="-300" y="-200" width="600" height="400" id="J_2UlruRndoO_pad-23"/><rect x="-200" y="-300" width="400" height="600" id="J_2UlruRndoO_pad-24"/><rect x="-175" y="-400" width="350" height="800" id="J_2UlruRndoO_pad-25"/><rect x="-250" y="-300" width="500" height="600" id="J_2UlruRndoO_pad-26"/><rect x="-120" y="-400" width="240" height="800" id="J_2UlruRndoO_pad-27"/><circle cx="0" cy="0" r="230" id="J_2UlruRndoO_pad-28"/><circle cx="0" cy="0" r="1250" id="J_2UlruRndoO_pad-29"/><circle cx="0" cy="0" r="300" id="J_2UlruRndoO_pad-30"/><rect x="-300" y="-250" width="600" height="500" id="J_2UlruRndoO_pad-11"/><rect x="-186.5" y="-754.5" width="373" height="1509" id="J_2UlruRndoO_pad-12"/><rect x="-150" y="-400" width="300" height="800" id="J_2UlruRndoO_pad-13"/><rect x="-150" y="-425" width="300" height="850" id="J_2UlruRndoO_pad-14"/><rect x="-400" y="-150" width="800" height="300" id="J_2UlruRndoO_pad-15"/><rect x="-425" y="-150" width="850" height="300" id="J_2UlruRndoO_pad-16"/><rect x="-918.75" y="-918.75" width="1837.5" height="1837.5" id="J_2UlruRndoO_pad-17"/><circle cx="0" cy="0" r="2000" id="J_2UlruRndoO_pad-18"/><circle cx="0" cy="0" r="600" id="J_2UlruRndoO_pad-19"/><rect x="-600" y="-400" width="1200" height="800" id="J_2UlruRndoO_pad-20"/><rect x="-550" y="-750" width="1100" height="1500" id="J_2UlruRndoO_pad-21"/><rect x="-500" y="-1125" width="1000" height="2250" id="J_2UlruRndoO_pad-22"/><rect x="-300" y="-200" width="600" height="400" id="J_2UlruRndoO_pad-23"/><rect x="-200" y="-300" width="400" height="600" id="J_2UlruRndoO_pad-24"/><rect x="-175" y="-400" width="350" height="800" id="J_2UlruRndoO_pad-25"/><rect x="-250" y="-300" width="500" height="600" id="J_2UlruRndoO_pad-26"/><rect x="-120" y="-400" width="240" height="800" id="J_2UlruRndoO_pad-27"/><circle cx="0" cy="0" r="230" id="J_2UlruRndoO_pad-28"/><circle cx="0" cy="0" r="1250" id="J_2UlruRndoO_pad-29"/><circle cx="0" cy="0" r="300" id="J_2UlruRndoO_pad-30"/><rect x="-300" y="-250" width="600" height="500" id="J_2UlruRndoO_pad-11"/><rect x="-186.5" y="-754.5" width="373" height="1509" id="J_2UlruRndoO_pad-12"/><rect x="-150" y="-400" width="300" height="800" id="J_2UlruRndoO_pad-13"/><rect x="-150" y="-425" width="300" height="850" id="J_2UlruRndoO_pad-14"/><rect x="-400" y="-150" width="800" height="300" id="J_2UlruRndoO_pad-15"/><rect x="-425" y="-150" width="850" height="300" id="J_2UlruRndoO_pad-16"/><rect x="-918.75" y="-918.75" width="1837.5" height="1837.5" id="J_2UlruRndoO_pad-17"/><circle cx="0" cy="0" r="2000" id="J_2UlruRndoO_pad-18"/><circle cx="0" cy="0" r="600" id="J_2UlruRndoO_pad-19"/><rect x="-600" y="-400" width="1200" height="800" id="J_2UlruRndoO_pad-20"/><rect x="-550" y="-750" width="1100" height="1500" id="J_2UlruRndoO_pad-21"/><rect x="-500" y="-1125" width="1000" height="2250" id="J_2UlruRndoO_pad-22"/><rect x="-300" y="-200" width="600" height="400" id="J_2UlruRndoO_pad-23"/><rect x="-200" y="-300" width="400" height="600" id="J_2UlruRndoO_pad-24"/><rect x="-175" y="-400" width="350" height="800" id="J_2UlruRndoO_pad-25"/><rect x="-250" y="-300" width="500" height="600" id="J_2UlruRndoO_pad-26"/><rect x="-120" y="-400" width="240" height="800" id="J_2UlruRndoO_pad-27"/><circle cx="0" cy="0" r="230" id="J_2UlruRndoO_pad-28"/><circle cx="0" cy="0" r="1250" id="J_2UlruRndoO_pad-29"/><circle cx="0" cy="0" r="300" id="J_2UlruRndoO_pad-30"/><rect x="-300" y="-250" width="600" height="500" id="J_2UlruRndoO_pad-11"/><rect x="-186.5" y="-754.5" width="373" height="1509" id="J_2UlruRndoO_pad-12"/><rect x="-150" y="-400" width="300" height="800" id="J_2UlruRndoO_pad-13"/><rect x="-150" y="-425" width="300" height="850" id="J_2UlruRndoO_pad-14"/><rect x="-400" y="-150" width="800" height="300" id="J_2UlruRndoO_pad-15"/><rect x="-425" y="-150" width="850" height="300" id="J_2UlruRndoO_pad-16"/><rect x="-918.75" y="-918.75" width="1837.5" height="1837.5" id="J_2UlruRndoO_pad-17"/><circle cx="0" cy="0" r="2000" id="J_2UlruRndoO_pad-18"/><circle cx="0" cy="0" r="600" id="J_2UlruRndoO_pad-19"/><rect x="-600" y="-400" width="1200" height="800" id="J_2UlruRndoO_pad-20"/><rect x="-550" y="-750" width="1100" height="1500" id="J_2UlruRndoO_pad-21"/><rect x="-500" y="-1125" width="1000" height="2250" id="J_2UlruRndoO_pad-22"/><rect x="-300" y="-200" width="600" height="400" id="J_2UlruRndoO_pad-23"/><rect x="-200" y="-300" width="400" height="600" id="J_2UlruRndoO_pad-24"/><rect x="-175" y="-400" width="350" height="800" id="J_2UlruRndoO_pad-25"/><rect x="-250" y="-300" width="500" height="600" id="J_2UlruRndoO_pad-26"/><rect x="-120" y="-400" width="240" height="800" id="J_2UlruRndoO_pad-27"/><circle cx="0" cy="0" r="230" id="J_2UlruRndoO_pad-28"/><circle cx="0" cy="0" r="1250" id="J_2UlruRndoO_pad-29"/><circle cx="0" cy="0" r="300" id="J_2UlruRndoO_pad-30"/><circle cx="0" cy="0" r="150" id="S_BvTbs1N4uK_pad-1"/><circle cx="0" cy="0" r="200" id="S_BvTbs1N4uK_pad-2"/><circle cx="0" cy="0" r="425" id="S_BvTbs1N4uK_pad-3"/><circle cx="0" cy="0" r="1000" id="S_BvTbs1N4uK_pad-4"/><circle cx="0" cy="0" r="1400" id="S_BvTbs1N4uK_pad-5"/><circle cx="0" cy="0" r="425" id="S_BvTbs1N4uK_pad-6"/><circle cx="0" cy="0" r="550" id="S_BvTbs1N4uK_pad-7"/><circle cx="0" cy="0" r="650" id="S_BvTbs1N4uK_pad-8"/><g id="pcb-stackup_top_cu"><use xlink:href="#J_2UlruRndoO_pad-11" x="55555.5" y="-105191"/><use xlink:href="#J_2UlruRndoO_pad-11" x="55555.5" y="-104191"/><use xlink:href="#J_2UlruRndoO_pad-11" x="54255.5" y="-104691"/><use xlink:href="#J_2UlruRndoO_pad-12" x="48830" y="-90910"/><use xlink:href="#J_2UlruRndoO_pad-12" x="49532" y="-90910"/><use xlink:href="#J_2UlruRndoO_pad-12" x="50234" y="-90910"/><use xlink:href="#J_2UlruRndoO_pad-12" x="50936" y="-90910"/><use xlink:href="#J_2UlruRndoO_pad-12" x="51638" y="-90910"/><use xlink:href="#J_2UlruRndoO_pad-12" x="52340" y="-90910"/><use xlink:href="#J_2UlruRndoO_pad-12" x="53042" y="-90910"/><use xlink:href="#J_2UlruRndoO_pad-12" x="53744" y="-90910"/><use xlink:href="#J_2UlruRndoO_pad-12" x="54446" y="-90910"/><use xlink:href="#J_2UlruRndoO_pad-12" x="55148" y="-90910"/><use xlink:href="#J_2UlruRndoO_pad-12" x="55850" y="-90910"/><use xlink:href="#J_2UlruRndoO_pad-12" x="56552" y="-90910"/><use xlink:href="#J_2UlruRndoO_pad-12" x="57254" y="-90910"/><use xlink:href="#J_2UlruRndoO_pad-12" x="57956" y="-90910"/><use xlink:href="#J_2UlruRndoO_pad-12" x="58658" y="-90910"/><use xlink:href="#J_2UlruRndoO_pad-12" x="59360" y="-90910"/><use xlink:href="#J_2UlruRndoO_pad-12" x="60062" y="-90910"/><use xlink:href="#J_2UlruRndoO_pad-12" x="60764" y="-90910"/><use xlink:href="#J_2UlruRndoO_pad-12" x="61466" y="-90910"/><use xlink:href="#J_2UlruRndoO_pad-12" x="62168" y="-90910"/><use xlink:href="#J_2UlruRndoO_pad-12" x="62870" y="-90910"/><use xlink:href="#J_2UlruRndoO_pad-12" x="63572" y="-90910"/><use xlink:href="#J_2UlruRndoO_pad-12" x="64274" y="-90910"/><use xlink:href="#J_2UlruRndoO_pad-12" x="64976" y="-90910"/><use xlink:href="#J_2UlruRndoO_pad-12" x="65678" y="-90910"/><use xlink:href="#J_2UlruRndoO_pad-12" x="66380" y="-90910"/><use xlink:href="#J_2UlruRndoO_pad-12" x="67082" y="-90910"/><path d="M 64783.318 -103190.264 64429.764 -103543.818 64005.5 -103119.554 64359.054 -102766 64783.318 -103190.264 64783.318 -103190.264"/><path d="M 64005.5 -102412.446 63651.946 -102766 63227.682 -102341.736 63581.236 -101988.182 64005.5 -102412.446 64005.5 -102412.446"/><use xlink:href="#J_2UlruRndoO_pad-11" x="67180.5" y="-96891"/><use xlink:href="#J_2UlruRndoO_pad-11" x="68280.5" y="-96891"/><use xlink:href="#J_2UlruRndoO_pad-11" x="59405.5" y="-105741"/><use xlink:href="#J_2UlruRndoO_pad-11" x="58305.5" y="-105741"/><use xlink:href="#J_2UlruRndoO_pad-13" x="61750" y="-94025"/><use xlink:href="#J_2UlruRndoO_pad-14" x="61250" y="-94050"/><use xlink:href="#J_2UlruRndoO_pad-14" x="60750" y="-94050"/><use xlink:href="#J_2UlruRndoO_pad-14" x="60250" y="-94050"/><use xlink:href="#J_2UlruRndoO_pad-14" x="59750" y="-94050"/><use xlink:href="#J_2UlruRndoO_pad-14" x="59250" y="-94050"/><use xlink:href="#J_2UlruRndoO_pad-14" x="58750" y="-94050"/><use xlink:href="#J_2UlruRndoO_pad-14" x="58250" y="-94050"/><use xlink:href="#J_2UlruRndoO_pad-14" x="57750" y="-94050"/><use xlink:href="#J_2UlruRndoO_pad-14" x="57250" y="-94050"/><use xlink:href="#J_2UlruRndoO_pad-14" x="56750" y="-94050"/><use xlink:href="#J_2UlruRndoO_pad-14" x="56250" y="-94050"/><use xlink:href="#J_2UlruRndoO_pad-14" x="55750" y="-94050"/><use xlink:href="#J_2UlruRndoO_pad-14" x="55250" y="-94050"/><use xlink:href="#J_2UlruRndoO_pad-14" x="54750" y="-94050"/><use xlink:href="#J_2UlruRndoO_pad-13" x="54250" y="-94025"/><use xlink:href="#J_2UlruRndoO_pad-15" x="53525" y="-94750"/><use xlink:href="#J_2UlruRndoO_pad-16" x="53550" y="-95250"/><use xlink:href="#J_2UlruRndoO_pad-16" x="53550" y="-95750"/><use xlink:href="#J_2UlruRndoO_pad-16" x="53550" y="-96250"/><use xlink:href="#J_2UlruRndoO_pad-16" x="53550" y="-96750"/><use xlink:href="#J_2UlruRndoO_pad-16" x="53550" y="-97250"/><use xlink:href="#J_2UlruRndoO_pad-16" x="53550" y="-97750"/><use xlink:href="#J_2UlruRndoO_pad-16" x="53550" y="-98250"/><use xlink:href="#J_2UlruRndoO_pad-16" x="53550" y="-98750"/><use xlink:href="#J_2UlruRndoO_pad-16" x="53550" y="-99250"/><use xlink:href="#J_2UlruRndoO_pad-16" x="53550" y="-99750"/><use xlink:href="#J_2UlruRndoO_pad-16" x="53550" y="-100250"/><use xlink:href="#J_2UlruRndoO_pad-16" x="53550" y="-100750"/><use xlink:href="#J_2UlruRndoO_pad-16" x="53550" y="-101250"/><use xlink:href="#J_2UlruRndoO_pad-16" x="53550" y="-101750"/><use xlink:href="#J_2UlruRndoO_pad-15" x="53525" y="-102250"/><use xlink:href="#J_2UlruRndoO_pad-13" x="54250" y="-102975"/><use xlink:href="#J_2UlruRndoO_pad-14" x="54750" y="-102950"/><use xlink:href="#J_2UlruRndoO_pad-14" x="55250" y="-102950"/><use xlink:href="#J_2UlruRndoO_pad-14" x="55750" y="-102950"/><use xlink:href="#J_2UlruRndoO_pad-14" x="56250" y="-102950"/><use xlink:href="#J_2UlruRndoO_pad-14" x="56750" y="-102950"/><use xlink:href="#J_2UlruRndoO_pad-14" x="57250" y="-102950"/><use xlink:href="#J_2UlruRndoO_pad-14" x="57750" y="-102950"/><use xlink:href="#J_2UlruRndoO_pad-14" x="58250" y="-102950"/><use xlink:href="#J_2UlruRndoO_pad-14" x="58750" y="-102950"/><use xlink:href="#J_2UlruRndoO_pad-14" x="59250" y="-102950"/><use xlink:href="#J_2UlruRndoO_pad-14" x="59750" y="-102950"/><use xlink:href="#J_2UlruRndoO_pad-14" x="60250" y="-102950"/><use xlink:href="#J_2UlruRndoO_pad-14" x="60750" y="-102950"/><use xlink:href="#J_2UlruRndoO_pad-14" x="61250" y="-102950"/><use xlink:href="#J_2UlruRndoO_pad-13" x="61750" y="-102975"/><use xlink:href="#J_2UlruRndoO_pad-15" x="62475" y="-102250"/><use xlink:href="#J_2UlruRndoO_pad-16" x="62450" y="-101750"/><use xlink:href="#J_2UlruRndoO_pad-16" x="62450" y="-101250"/><use xlink:href="#J_2UlruRndoO_pad-16" x="62450" y="-100750"/><use xlink:href="#J_2UlruRndoO_pad-16" x="62450" y="-100250"/><use xlink:href="#J_2UlruRndoO_pad-16" x="62450" y="-99750"/><use xlink:href="#J_2UlruRndoO_pad-16" x="62450" y="-99250"/><use xlink:href="#J_2UlruRndoO_pad-16" x="62450" y="-98750"/><use xlink:href="#J_2UlruRndoO_pad-16" x="62450" y="-98250"/><use xlink:href="#J_2UlruRndoO_pad-16" x="62450" y="-97750"/><use xlink:href="#J_2UlruRndoO_pad-16" x="62450" y="-97250"/><use xlink:href="#J_2UlruRndoO_pad-16" x="62450" y="-96750"/><use xlink:href="#J_2UlruRndoO_pad-16" x="62450" y="-96250"/><use xlink:href="#J_2UlruRndoO_pad-16" x="62450" y="-95750"/><use xlink:href="#J_2UlruRndoO_pad-16" x="62450" y="-95250"/><use xlink:href="#J_2UlruRndoO_pad-15" x="62475" y="-94750"/><use xlink:href="#J_2UlruRndoO_pad-17" x="55243.75" y="-101256.25"/><use xlink:href="#J_2UlruRndoO_pad-17" x="57081.25" y="-101256.25"/><use xlink:href="#J_2UlruRndoO_pad-17" x="58918.75" y="-101256.25"/><use xlink:href="#J_2UlruRndoO_pad-17" x="60756.25" y="-101256.25"/><use xlink:href="#J_2UlruRndoO_pad-17" x="55243.75" y="-99418.75"/><use xlink:href="#J_2UlruRndoO_pad-17" x="57081.25" y="-99418.75"/><use xlink:href="#J_2UlruRndoO_pad-17" x="58918.75" y="-99418.75"/><use xlink:href="#J_2UlruRndoO_pad-17" x="60756.25" y="-99418.75"/><use xlink:href="#J_2UlruRndoO_pad-17" x="55243.75" y="-97581.25"/><use xlink:href="#J_2UlruRndoO_pad-17" x="57081.25" y="-97581.25"/><use xlink:href="#J_2UlruRndoO_pad-17" x="58918.75" y="-97581.25"/><use xlink:href="#J_2UlruRndoO_pad-17" x="60756.25" y="-97581.25"/><use xlink:href="#J_2UlruRndoO_pad-17" x="55243.75" y="-95743.75"/><use xlink:href="#J_2UlruRndoO_pad-17" x="57081.25" y="-95743.75"/><use xlink:href="#J_2UlruRndoO_pad-17" x="58918.75" y="-95743.75"/><use xlink:href="#J_2UlruRndoO_pad-17" x="60756.25" y="-95743.75"/><use xlink:href="#J_2UlruRndoO_pad-18" x="70200" y="-102100"/><use xlink:href="#J_2UlruRndoO_pad-19" x="66770" y="-104940"/><use xlink:href="#J_2UlruRndoO_pad-20" x="64500" y="-106541"/><use xlink:href="#J_2UlruRndoO_pad-20" x="64500" y="-107540"/><use xlink:href="#J_2UlruRndoO_pad-21" x="56380" y="-106790"/><use xlink:href="#J_2UlruRndoO_pad-21" x="51300" y="-106790"/><use xlink:href="#J_2UlruRndoO_pad-19" x="49070" y="-104890"/><use xlink:href="#J_2UlruRndoO_pad-18" x="45600" y="-101900"/><use xlink:href="#J_2UlruRndoO_pad-22" x="46500" y="-98600"/><use xlink:href="#J_2UlruRndoO_pad-22" x="46500" y="-95550"/><use xlink:href="#J_2UlruRndoO_pad-18" x="45600" y="-92300"/><use xlink:href="#J_2UlruRndoO_pad-19" x="53500" y="-85750"/><use xlink:href="#J_2UlruRndoO_pad-19" x="55250" y="-85750"/><use xlink:href="#J_2UlruRndoO_pad-19" x="57960" y="-88600"/><use xlink:href="#J_2UlruRndoO_pad-23" x="56505.5" y="-103941"/><use xlink:href="#J_2UlruRndoO_pad-23" x="56505.5" y="-104841"/><use xlink:href="#J_2UlruRndoO_pad-24" x="50200" y="-93250"/><use xlink:href="#J_2UlruRndoO_pad-24" x="49300" y="-93250"/><path d="M 65277.818 -101424.264 64924.264 -101777.818 64500 -101353.554 64853.554 -101000 65277.818 -101424.264 65277.818 -101424.264"/><path d="M 64500 -100646.446 64146.446 -101000 63722.182 -100575.736 64075.736 -100222.182 64500 -100646.446 64500 -100646.446"/><use xlink:href="#J_2UlruRndoO_pad-24" x="49300" y="-94500"/><use xlink:href="#J_2UlruRndoO_pad-24" x="50200" y="-94500"/><use xlink:href="#J_2UlruRndoO_pad-11" x="58605.5" y="-104691"/><use xlink:href="#J_2UlruRndoO_pad-11" x="57505.5" y="-104691"/><use xlink:href="#J_2UlruRndoO_pad-25" x="51625" y="-102300"/><use xlink:href="#J_2UlruRndoO_pad-25" x="48625" y="-102300"/><use xlink:href="#J_2UlruRndoO_pad-25" x="51625" y="-98750"/><use xlink:href="#J_2UlruRndoO_pad-25" x="48625" y="-98750"/><use xlink:href="#J_2UlruRndoO_pad-11" x="66980.5" y="-93266"/><use xlink:href="#J_2UlruRndoO_pad-11" x="68080.5" y="-93266"/><use xlink:href="#J_2UlruRndoO_pad-26" x="69255.5" y="-94541"/><use xlink:href="#J_2UlruRndoO_pad-26" x="69255.5" y="-95641"/><use xlink:href="#J_2UlruRndoO_pad-26" x="69255.5" y="-97491"/><use xlink:href="#J_2UlruRndoO_pad-26" x="69255.5" y="-96391"/><use xlink:href="#J_2UlruRndoO_pad-27" x="66955.5" y="-95991"/><use xlink:href="#J_2UlruRndoO_pad-27" x="67355.5" y="-95991"/><use xlink:href="#J_2UlruRndoO_pad-27" x="67755.5" y="-95991"/><use xlink:href="#J_2UlruRndoO_pad-27" x="68155.5" y="-95991"/><use xlink:href="#J_2UlruRndoO_pad-27" x="68555.5" y="-95991"/><use xlink:href="#J_2UlruRndoO_pad-27" x="68555.5" y="-94291"/><use xlink:href="#J_2UlruRndoO_pad-27" x="68155.5" y="-94291"/><use xlink:href="#J_2UlruRndoO_pad-27" x="67755.5" y="-94291"/><use xlink:href="#J_2UlruRndoO_pad-27" x="67355.5" y="-94291"/><use xlink:href="#J_2UlruRndoO_pad-27" x="66955.5" y="-94291"/><use xlink:href="#J_2UlruRndoO_pad-28" x="59155.5" y="-103891"/><use xlink:href="#J_2UlruRndoO_pad-28" x="59405.5" y="-92891"/><use xlink:href="#J_2UlruRndoO_pad-29" x="57955.5" y="-99291"/><use xlink:href="#J_2UlruRndoO_pad-30" x="66105.5" y="-93616"/><use xlink:href="#J_2UlruRndoO_pad-30" x="67030.5" y="-98266"/><use xlink:href="#J_2UlruRndoO_pad-30" x="64005.5" y="-98391"/><use xlink:href="#J_2UlruRndoO_pad-30" x="53405.5" y="-103941"/><use xlink:href="#J_2UlruRndoO_pad-30" x="55243.75" y="-101256.25"/><use xlink:href="#J_2UlruRndoO_pad-28" x="58918.75" y="-95743.75"/><use xlink:href="#J_2UlruRndoO_pad-30" x="59255.5" y="-89241"/><use xlink:href="#J_2UlruRndoO_pad-28" x="56581.25" y="-95743.75"/><use xlink:href="#J_2UlruRndoO_pad-28" x="47800" y="-94400"/><use xlink:href="#J_2UlruRndoO_pad-28" x="48500.009" y="-93000"/><use xlink:href="#J_2UlruRndoO_pad-28" x="49505.5" y="-92141"/><use xlink:href="#J_2UlruRndoO_pad-28" x="52505.5" y="-102341"/><use xlink:href="#J_2UlruRndoO_pad-28" x="52655.5" y="-102941"/><use xlink:href="#J_2UlruRndoO_pad-28" x="48805.5" y="-92141"/><use xlink:href="#J_2UlruRndoO_pad-28" x="52755.5" y="-101741"/><use xlink:href="#J_2UlruRndoO_pad-28" x="50205.5" y="-92141"/><use xlink:href="#J_2UlruRndoO_pad-28" x="50905.5" y="-92441"/><use xlink:href="#J_2UlruRndoO_pad-28" x="52355.5" y="-101241"/><use xlink:href="#J_2UlruRndoO_pad-28" x="52355.5" y="-100241"/><use xlink:href="#J_2UlruRndoO_pad-28" x="52255.5" y="-92141"/><use xlink:href="#J_2UlruRndoO_pad-28" x="52755.5" y="-100741"/><use xlink:href="#J_2UlruRndoO_pad-28" x="51555.5" y="-92291"/><use xlink:href="#J_2UlruRndoO_pad-28" x="58005.5" y="-93091"/><use xlink:href="#J_2UlruRndoO_pad-28" x="55916.192" y="-93209.16"/><use xlink:href="#J_2UlruRndoO_pad-28" x="58555.5" y="-92041"/><use xlink:href="#J_2UlruRndoO_pad-28" x="55303.85" y="-93200.018"/><use xlink:href="#J_2UlruRndoO_pad-28" x="57855.5" y="-92041"/><use xlink:href="#J_2UlruRndoO_pad-28" x="54600" y="-93200"/><use xlink:href="#J_2UlruRndoO_pad-28" x="57155.5" y="-92041"/><use xlink:href="#J_2UlruRndoO_pad-28" x="53987.597" y="-93200"/><use xlink:href="#J_2UlruRndoO_pad-28" x="56552" y="-89794.5"/><use xlink:href="#J_2UlruRndoO_pad-28" x="52740.965" y="-98750.006"/><use xlink:href="#J_2UlruRndoO_pad-28" x="55850" y="-89796.5"/><use xlink:href="#J_2UlruRndoO_pad-28" x="52387.362" y="-99250.005"/><use xlink:href="#J_2UlruRndoO_pad-28" x="55148" y="-89798.5"/><use xlink:href="#J_2UlruRndoO_pad-28" x="52740.965" y="-99750.006"/><use xlink:href="#J_2UlruRndoO_pad-19" x="51835.5" y="-108321"/><use xlink:href="#J_2UlruRndoO_pad-28" x="46500" y="-95550"/><use xlink:href="#J_2UlruRndoO_pad-28" x="48549.999" y="-93767.768"/><use xlink:href="#J_2UlruRndoO_pad-28" x="52230.5" y="-104491"/><use xlink:href="#J_2UlruRndoO_pad-28" x="59905.5" y="-105091"/><use xlink:href="#J_2UlruRndoO_pad-28" x="47455.5" y="-99291"/><use xlink:href="#J_2UlruRndoO_pad-28" x="50605.5" y="-102991"/><use xlink:href="#J_2UlruRndoO_pad-28" x="66155.5" y="-104266"/><use xlink:href="#J_2UlruRndoO_pad-28" x="62805.5" y="-105341"/><use xlink:href="#J_2UlruRndoO_pad-30" x="49905.5" y="-103941"/><use xlink:href="#J_2UlruRndoO_pad-28" x="53630.022" y="-93791"/><use xlink:href="#J_2UlruRndoO_pad-30" x="62855.5" y="-93991"/><use xlink:href="#J_2UlruRndoO_pad-30" x="53305.5" y="-105191"/><use xlink:href="#J_2UlruRndoO_pad-30" x="62450" y="-102896.5"/><use xlink:href="#J_2UlruRndoO_pad-30" x="58305.5" y="-103891"/><use xlink:href="#J_2UlruRndoO_pad-28" x="66505.5" y="-94941"/><use xlink:href="#J_2UlruRndoO_pad-28" x="64605.5" y="-97691"/><use xlink:href="#J_2UlruRndoO_pad-28" x="63155.5" y="-103141"/><use xlink:href="#J_2UlruRndoO_pad-28" x="67705.5" y="-95141"/><use xlink:href="#J_2UlruRndoO_pad-28" x="69105.5" y="-93791"/><use xlink:href="#J_2UlruRndoO_pad-28" x="63605.5" y="-103591"/><use xlink:href="#J_2UlruRndoO_pad-28" x="67680.5" y="-92691"/><use xlink:href="#J_2UlruRndoO_pad-28" x="67530.5" y="-97591"/><use xlink:href="#J_2UlruRndoO_pad-28" x="65905.5" y="-97641"/><use xlink:href="#J_2UlruRndoO_pad-28" x="63121.298" y="-105865.698"/><use xlink:href="#J_2UlruRndoO_pad-28" x="50365.321" y="-98130"/><use xlink:href="#J_2UlruRndoO_pad-28" x="50767.59" y="-94500"/><use xlink:href="#J_2UlruRndoO_pad-28" x="51883.039" y="-103132.099"/><use xlink:href="#J_2UlruRndoO_pad-28" x="47605.5" y="-98691"/><path d="M 59355.5 -104091 59155.5 -103891 M 59355.5 -105541 59355.5 -104091 M 59405.5 -105591 59355.5 -105541 M 59405.5 -105741 59405.5 -105591 M 59250 -93046.5 59405.5 -92891 M 59250 -94050 59250 -93046.5 M 58055.5 -99591 58746.5 -99591 58918.75 -99418.75 57081.25 -99418.75 M 53405.5 -103941 51977.986 -103941 51250 -103213.014 51250 -102900 51625 -102525 51625 -102300" fill="none" stroke-width="200"/><path d="M 50855.5 -102300 51255.5 -102300 M 50300 -102300 50855.5 -102300" fill="none" stroke-width="300"/><path d="M 55555.5 -104191 55055.5 -104191 M 54957.91 -104093.41 53557.91 -104093.41 53405.5 -103941 M 55055.5 -104191 54957.91 -104093.41" fill="none" stroke-width="200"/><path d="M 62450 -101750 63264.5 -101750 63616.591 -102102.091 63616.591 -102377.091" fill="none" stroke-width="300"/><path d="M 66955.5 -94291 66955.5 -93941 66630.5 -93616" fill="none" stroke-width="200"/><path d="M 66105.5 -93616 66630.5 -93616 66980.5 -93266 M 67030.5 -98266 67705.5 -98266 68280.5 -97691 68280.5 -96891 68505.5 -96891 68905.5 -96491" fill="none" stroke-width="300"/><path d="M 53550 -94750 53601 -94801 54301 -94801 55243.75 -95743.75" fill="none" stroke-width="200"/><path d="M 63646.5 -98750 64005.5 -98391 M 62450 -98750 63646.5 -98750 M 69255.5 -96391 69255.5 -96441 M 53405.5 -103941 53405.5 -103991 M 57250 -102950 57250 -104435.5 57505.5 -104691 57505.5 -104841 58305.5 -105641 58305.5 -105741 M 58614.5 -88600 59255.5 -89241 M 57960 -88600 58614.5 -88600 M 50300 -102300 48625 -102300 M 51255.5 -102300 51625 -102300 M 68905.5 -96491 68905.5 -96041 M 69255.5 -96391 68905.5 -96041 68855.5 -95991 68905.5 -95991" fill="none" stroke-width="300"/><path d="M 68555.5 -95991 68905.5 -95991" fill="none" stroke-width="200"/><path d="M 68905.5 -95991 69255.5 -95641 M 62450 -101750 61250 -101750 61250 -100587.5 61587.5 -100250 62450 -100250 M 61250 -101750 60756.25 -101256.25 M 62450 -100250 61587.5 -100250 60756.25 -99418.75 M 57081.25 -101256.25 55243.75 -101256.25 M 55243.75 -99418.75 55243.75 -101256.25 M 57081.25 -97581.25 57081.25 -95743.75 M 55243.75 -97581.25 57081.25 -97581.25 M 55243.75 -99418.75 55243.75 -97581.25 M 57081.25 -99418.75 55243.75 -99418.75 M 58918.75 -99418.75 58918.75 -101256.25 M 60756.25 -99418.75 58918.75 -99418.75 M 58918.75 -97581.25 58918.75 -99418.75 M 60756.25 -97581.25 58918.75 -97581.25 M 60756.25 -95743.75 60756.25 -97581.25 M 58918.75 -95743.75 58918.75 -97581.25 M 55243.75 -95743.75 55243.75 -97581.25 M 56568 -101444 56399.25 -101275.25 M 56581.25 -101256.25 56750 -101425 M 58418.75 -95743.75 56581.25 -95743.75 M 58243 -95769 58236.75 -95762.75 M 61250 -101750 60756.25 -101256.25 M 63750 -100250 62450 -100250 M 64111.091 -100611.091 63750 -100250 M 62450 -95750 60262.5 -95750 M 61425 -98750 60756.25 -99418.75 M 62450 -98750 61425 -98750 M 61587.5 -100250 60756.25 -99418.75 M 57250 -101425 57081.25 -101256.25 M 57250 -102950 57250 -101425" fill="none" stroke-width="300"/><path d="M 48755.5 -96942.767 48648.309 -96942.767 M 53232.401 -89017.599 54250 -88000 54250 -86500 53500 -85750 M 47947.59 -89724.036 48654.027 -89017.599 M 48031.553 -93917.599 47947.59 -93833.636 M 48654.027 -89017.599 53232.401 -89017.599 M 48282.401 -96482.401 48282.401 -94214.124 M 47947.59 -93833.636 47947.59 -89724.036 M 48282.401 -94214.124 48031.553 -93917.599 M 48282.401 -96576.859 48282.401 -96482.401 M 48648.309 -96942.767 48282.401 -96576.859 M 53550 -95750 51522.002 -95750 50329.235 -96942.767 48755.5 -96942.767 48742.767 -96942.767 M 48500.009 -93000 48300 -92799.991 48300 -89870.009 48800 -89370.009 M 47787.591 -96580.421 47787.591 -94479.999 M 48502.348 -97295.178 47787.591 -96580.421 M 51520.386 -96250 50475.208 -97295.178 48502.348 -97295.178 M 53550 -96250 51520.386 -96250 M 47787.591 -94412.409 47800 -94400 M 47787.591 -94479.999 47787.591 -94412.409 M 49300 -93250 48750.009 -93250 48500.009 -93000 M 54602.41 -86397.59 55250 -85750 M 48800 -89370.009 53378.374 -89370.009 54602.41 -88145.973 54602.41 -86397.59 M 49505.5 -92141 49532 -92114.5 49532 -90910 M 52496.5 -102250 52505.5 -102259 52505.5 -102341 M 53550 -102250 52496.5 -102250 M 52655.5 -102941 54241 -102941 54250 -102950 M 48830 -92116.5 48830 -90910 M 48805.5 -92141 48830 -92116.5 M 53550 -101750 52764.5 -101750 52755.5 -101741 M 50234 -92112.5 50234 -90910 M 50205.5 -92141 50234 -92112.5 M 50936 -92410.5 50936 -90910 M 50905.5 -92441 50936 -92410.5 M 52364.5 -101250 52355.5 -101241 M 53550 -101250 52364.5 -101250 M 53550 -100250 52364.5 -100250 52355.5 -100241 M 52340 -92056.5 52340 -90910 M 52255.5 -92141 52340 -92056.5 M 52328.525 -90921.475 52340 -90910 M 51555.5 -92291 51638 -92208.5 51638 -90910 M 53550 -100750 52764.5 -100750 52755.5 -100741 M 57250 -93425 57250 -94050 M 57250 -92863.956 57250 -93425 M 54594.276 -92012.776 56398.82 -92012.776 57250 -92863.956 M 54446 -90910 54446 -91864.5 54594.276 -92012.776 M 56759.793 -92872.133 56252.847 -92365.187 M 53744 -91864.5 53744 -90910 M 56252.847 -92365.187 54244.687 -92365.187 53744 -91864.5 M 56759.793 -94040.207 56759.793 -92872.133 M 56750 -94050 56759.793 -94040.207 M 56250 -93589.327 56407.382 -93431.945 M 53895.098 -92717.598 53042 -91864.5 M 56250 -94050 56250 -93589.327 M 56106.875 -92717.599 53895.098 -92717.598 M 53042 -91864.5 53042 -90910 M 56407.382 -93018.106 56106.875 -92717.599 M 56407.382 -93431.945 56407.382 -93018.106 M 59360 -90910 59360 -91936.5 58205.5 -93091 58005.5 -93091 M 55750 -94050 55750 -93425 55916.192 -93258.808 55916.192 -93209.16 M 58658 -90910 58658 -91938.5 58555.5 -92041 M 55250 -93253.868 55303.85 -93200.018 M 55250 -94050 55250 -93253.868 M 57956 -90910 57956 -91940.5 57855.5 -92041 M 54750 -94050 54750 -93350 M 54750 -94050 54750.006 -94049.994 54750.006 -93796.208 M 54750 -93350 54600 -93200 M 57254 -90910 57254 -91942.5 57155.5 -92041 M 54250 -94050 54250 -93563.954 53987.597 -93301.551 53987.597 -93200 M 54250 -94050 54250 -93850 M 56552 -90910 56552 -89794.5 M 53550 -98750 52740.971 -98750 52740.965 -98750.006 M 55850 -90910 55850 -89796.5 M 53550 -99250 52387.367 -99250 52387.362 -99250.005 M 55148 -90910 55148 -89798.5 M 53550 -99750 52740.971 -99750 52740.965 -99750.006 M 61750 -94050 61750 -92946.5 M 62870 -91826.5 62870 -90910 M 61750 -92946.5 62870 -91826.5 M 59750 -94050 59750 -93296.5 60062 -92984.5 60062 -90910 M 60250 -94050 60250 -93294.872 60414.402 -93130.47 M 60764 -91832.5 60764 -90910 M 60414.402 -92182.098 60764 -91832.5 M 60414.402 -93130.47 60414.402 -92182.098 M 60750 -94050 60750 -93646.5 60766.804 -93629.696 60766.804 -92529.696 61466 -91830.5 61466 -90910 M 61466 -91628.872 61466 -90910 M 61466 -91628.872 61466 -90910 M 61250 -94050 61250 -92746.5 M 62168 -91828.5 62168 -90910 M 61250 -92746.5 62168 -91828.5 M 62450 -94750 62450 -94635.5 62205.5 -94391 M 63572 -91824.5 63572 -90910 M 62205.5 -93191 63572 -91824.5 M 62205.5 -94391 62205.5 -93191 M 62450 -94750 62450 -94735.5 M 62450 -98250 63189.988 -98250 M 67082 -91814.5 67082 -90910 M 64917.51 -93978.99 67082 -91814.5 M 64917.51 -96522.478 64917.51 -93978.99 M 63189.988 -98250 64917.51 -96522.478 M 62450 -97750 63191.616 -97750 M 66380 -91816.5 66380 -90910 M 64565.108 -93631.392 66380 -91816.5 M 64565.108 -96376.508 64565.108 -93631.392 M 63191.616 -97750 64565.108 -96376.508 M 62450 -97250 63193.244 -97250 M 65678 -91818.5 65678 -90910 M 64212.706 -93283.794 65678 -91818.5 M 64212.706 -96230.538 64212.706 -93283.794 M 63193.244 -97250 64212.706 -96230.538 M 62450 -96750 63194.872 -96750 M 64976 -91770.5 64976 -90910 M 63860.304 -92886.196 64976 -91770.5 M 63860.304 -96084.568 63860.304 -92886.196 M 63194.872 -96750 63860.304 -96084.568 M 64274 -91822.5 64274 -90910 M 63507.902 -92588.598 64274 -91822.5 M 62450 -96250 63196.5 -96250 63507.902 -95938.598 63507.902 -92588.598 M 55555.5 -105191 56155.5 -105191 56505.5 -104841 M 56250 -102950 56250 -103685.5 56505.5 -103941 M 53657.902 -104593.402 53755.5 -104691 54255.5 -104691 M 51455.5 -106041 52903.098 -104593.402 53657.902 -104593.402 M 51300 -106790 51300 -107785.5 51835.5 -108321 M 51300 -106790 51300 -106196.5 51455.5 -106041 51300 -106790 M 54155.5 -104841 54153.098 -104841 M 51455.5 -106041 51300 -106790 M 53550 -98250 52527.017 -98250 52027.017 -98750 51625 -98750 M 48549.999 -93767.768 48779.998 -93997.767 48779.998 -94379.998 48900 -94500 M 49300 -94500 48900 -94500 M 46500 -95500 46500 -96420.678 M 51855.5 -104316.897 52029.603 -104491 M 59750 -104935.5 59750 -102950 M 59750 -104935.5 59905.5 -105091 M 52029.603 -104491 52230.5 -104491 M 50605.5 -102991 50605.5 -103066.897 50897.59 -103358.987 M 51832.013 -104293.41 51855.5 -104316.897 50897.59 -103358.987 M 47455.5 -99291 47191 -99291 M 46500 -98600 47191 -99291 M 46614.5 -98600 46500 -98600 M 66155.5 -104266 66770 -104880.5 66770 -104940 M 66770 -104855.5 66770 -104940 M 62455.5 -105341 62805.5 -105341 M 61755.5 -104641 62455.5 -105341 M 60750 -103635.5 61755.5 -104641 M 60750 -102950 60750 -103635.5 M 60755.5 -102955.5 60750 -102950 M 66770 -104940 66704.5 -104940 M 66654.5 -104940 66770 -104940 67060 -104940" fill="none" stroke-width="200"/><path d="M 49070 -104776.5 49905.5 -103941 M 56380 -106790 54904.5 -106790 53305.5 -105191 M 53630.022 -93791 52944.5 -93791 52894.5 -93841" fill="none" stroke-width="300"/><path d="M 62996.5 -95250 63155.492 -95091.008 63155.492 -94290.992 M 62450 -95250 62996.5 -95250 M 63155.492 -94290.992 62855.5 -93991" fill="none" stroke-width="200"/><path d="M 52894.5 -93841 52500 -94235.5 M 52500 -94250 52500 -94235.5 51514.5 -93250 50200 -93250 M 52500 -94250 52500 -94196.5 M 56380 -106790 55904.5 -106790 M 53305.5 -105141 53305.5 -105191 M 49070 -104890 49070 -104776.5 M 57750 -103835.5 58055.5 -104141 58605.5 -104691 M 58305.5 -103891 58055.5 -104141 M 57750 -102950 57750 -103835.5 M 62450 -102250 62450 -102896.5 M 52500 -94250 52500 -95000 52750 -95250 53550 -95250" fill="none" stroke-width="300"/><path d="M 68155.5 -95991 68155.5 -95441 M 68605.5 -95191 69255.5 -94541 M 68405.5 -95191 68605.5 -95191 M 68155.5 -95441 68405.5 -95191 M 69255.5 -97491 69255.5 -97516 67905.5 -98866 66755.5 -98866 66405.5 -98516 66405.5 -96541 66955.5 -95991 M 67155.5 -94991 66555.5 -94991 66505.5 -94941 M 67355.5 -94791 67155.5 -94991 M 67355.5 -94291 67355.5 -94791 M 64605.5 -98741 64605.5 -97691 M 64096.5 -99250 64605.5 -98741 M 62450 -99250 64096.5 -99250 M 63155.5 -103141 62616 -103680.5 61995 -103680.5 61750 -103435.5 61750 -102950 M 68155.5 -94941 67955.5 -95141 67705.5 -95141 M 68155.5 -94941 68155.5 -94291 M 68655.5 -93791 68555.5 -93891 68555.5 -94291 M 69105.5 -93791 68655.5 -93791 M 63105.5 -104091 63605.5 -103591 M 63655.5 -103541 63605.5 -103591 M 61805.5 -104091 63105.5 -104091 M 61250 -103535.5 61805.5 -104091 M 61250 -102950 61250 -103535.5 M 68555.5 -94291 68555.5 -94091 M 63555.5 -104391 64146.922 -103799.578 64146.922 -103402.396 64394.409 -103154.909 M 62450 -101250 63416.118 -101250 64394.409 -102228.291 64394.409 -103154.909 M 64500 -106541 64441 -106541 63555.5 -105655.5 M 64444.409 -103279.909 64466.591 -103279.909 M 63555.5 -104391 63555.5 -105655.5 M 64500 -107540 65106.5 -107540 65555.5 -107091 65555.5 -102891 65205.5 -102541 64455.5 -101791 M 64486.818 -101791 64455.5 -101791 M 64888.909 -101388.909 64486.818 -101791 M 63414.5 -100750 64455.5 -101791 M 62450 -100750 63414.5 -100750 M 65006.5 -107540 64500 -107540 M 67680.5 -92691 68080.5 -93091 68080.5 -93266 M 67755.5 -94291 67755.5 -93591 68080.5 -93266 M 67180.5 -97241 67530.5 -97591 M 67180.5 -96891 67180.5 -97241 M 67355.5 -95991 67355.5 -96716 67180.5 -96891 M 64296.5 -99750 65905.5 -98141 65905.5 -97641 M 62450 -99750 64296.5 -99750 M 45600 -92300 47317.599 -94017.599 47317.599 -96608.812 48356.376 -97647.589 50621.181 -97647.589 51518.77 -96750 53550 -96750 M 53550 -97750 51515.533 -97750 47365.533 -101900 45600 -101900 M 46300 -101200 45600 -101900 M 45700 -101900 46850 -100750 M 63121.298 -105865.698 62380.198 -105865.698 60250 -103735.5 60250 -102950 M 63148.099 -105823.401 63121.298 -105850.202 63121.298 -105865.698 M 50365.321 -98130 50637.151 -98130 M 50200 -94500 50767.59 -94500 M 50637.151 -98130 51517.151 -97250 51750 -97250 53550 -97250 M 52955.5 -103441 52191.94 -103441 51883.039 -103132.099 M 53655.5 -103341 54055.5 -103741 54555.5 -103741 M 53055.5 -103341 53655.5 -103341 M 52955.5 -103441 53055.5 -103341 M 54750 -103546.5 54555.5 -103741 M 54750 -103546.5 54750 -102950 M 48625 -98750 47664.5 -98750 47605.5 -98691" fill="none" stroke-width="200"/></g><g id="pcb-stackup_top_ss"><path d="M 49767.405 -89293.381 49291.214 -89293.381 49291.214 -88293.381 M 50100.738 -89293.381 50100.738 -88293.381 M 50672.167 -89293.381 50243.595 -88721.952 M 50672.167 -88293.381 50100.738 -88864.81 M 51338.833 -89626.714 51338.833 -88198.143 M 52005.5 -89245.762 52148.357 -89293.381 52386.453 -89293.381 52481.691 -89245.762 52529.31 -89198.143 52576.929 -89102.905 52576.929 -89007.667 52529.31 -88912.429 52481.691 -88864.81 52386.453 -88817.19 52195.976 -88769.571 52100.738 -88721.952 52053.119 -88674.333 52005.5 -88579.095 52005.5 -88483.857 52053.119 -88388.619 52100.738 -88341 52195.976 -88293.381 52434.072 -88293.381 52576.929 -88341 M 53195.976 -88293.381 53386.453 -88293.381 53481.691 -88341 53576.929 -88436.238 53624.548 -88626.714 53624.548 -88960.048 53576.929 -89150.524 53481.691 -89245.762 53386.453 -89293.381 53195.976 -89293.381 53100.738 -89245.762 53005.5 -89150.524 52957.881 -88960.048 52957.881 -88626.714 53005.5 -88436.238 53100.738 -88341 53195.976 -88293.381 M 54862.643 -88293.381 54767.405 -88483.857 M 55815.024 -89293.381 55243.595 -89293.381 M 55529.309 -89293.381 55529.309 -88293.381 55434.071 -88436.238 55338.833 -88531.476 55243.595 -88579.095 M 56672.167 -88293.381 56481.69 -88293.381 56386.452 -88341 56338.833 -88388.619 56243.595 -88531.476 56195.976 -88721.952 56195.976 -89102.905 56243.595 -89198.143 56291.214 -89245.762 56386.452 -89293.381 56576.929 -89293.381 56672.167 -89245.762 56719.786 -89198.143 56767.405 -89102.905 56767.405 -88864.81 56719.786 -88769.571 56672.167 -88721.952 56576.929 -88674.333 56386.452 -88674.333 56291.214 -88721.952 56243.595 -88769.571 56195.976 -88864.81" fill="none" stroke-width="200"/><path d="M 58912.644 -88319.571 58912.644 -87319.571 M 58912.644 -87605.286 58984.072 -87462.429 59055.501 -87391 59198.358 -87319.571 59341.215 -87319.571 M 60412.643 -88248.143 60269.786 -88319.571 59984.072 -88319.571 59841.215 -88248.143 59769.786 -88105.286 59769.786 -87533.857 59841.215 -87391 59984.072 -87319.571 60269.786 -87319.571 60412.643 -87391 60484.072 -87533.857 60484.072 -87676.714 59769.786 -87819.571 M 60984.072 -87319.571 61341.215 -88319.571 61698.357 -87319.571 M 62269.786 -88176.714 62341.214 -88248.143 62269.786 -88319.571 62198.357 -88248.143 62269.786 -88176.714 62269.786 -88319.571 M 63769.786 -88319.571 62912.643 -88319.571 M 63341.215 -88319.571 63341.215 -86819.571 63198.358 -87033.857 63055.5 -87176.714 62912.643 -87248.143 M 56455.5 -85819.571 56455.5 -87319.571 M 56455.5 -85891 56598.357 -85819.571 56884.071 -85819.571 57026.928 -85891 57098.357 -85962.429 57169.786 -86105.286 57169.786 -86533.857 57098.357 -86676.714 57026.928 -86748.143 56884.071 -86819.571 56598.357 -86819.571 56455.5 -86748.143 M 58026.929 -86819.571 57884.071 -86748.143 57812.643 -86605.286 57812.643 -85319.571 M 59241.214 -85819.571 59241.214 -86819.571 M 58598.357 -85819.571 58598.357 -86605.286 58669.785 -86748.143 58812.643 -86819.571 59026.928 -86819.571 59169.785 -86748.143 59241.214 -86676.714 M 59741.214 -85819.571 60312.643 -85819.571 M 59955.5 -85319.571 59955.5 -86605.286 60026.928 -86748.143 60169.786 -86819.571 60312.643 -86819.571 M 61026.929 -86819.571 60884.071 -86748.143 60812.643 -86676.714 60741.214 -86533.857 60741.214 -86105.286 60812.643 -85962.429 60884.071 -85891 61026.929 -85819.571 61241.214 -85819.571 61384.071 -85891 61455.5 -85962.429 61526.929 -86105.286 61526.929 -86533.857 61455.5 -86676.714 61384.071 -86748.143 61241.214 -86819.571 61026.929 -86819.571" fill="none" stroke-width="300"/><path d="M 54405.5 -103791 55405.5 -103791 M 55405.5 -104641 55405.5 -104742.314 M 55405.5 -105591 54405.5 -105591 54405.5 -105141 M 54405.5 -104241 54405.5 -103791" fill="none" stroke-width="203.2"/><path d="M 63492.848 -102925.099 63846.401 -103278.652 M 64518.152 -102606.901 64164.599 -102253.348 M 67980.5 -96416 67480.5 -96416 M 67480.5 -97366 67980.5 -97366 M 58605.5 -106216 59105.5 -106216 M 59105.5 -105266 58605.5 -105266 M 62700 -103200 62125 -103200 M 53300 -93800 53875 -93800 M 53300 -103200 53875 -103200 M 62700 -93800 62700 -94375 M 53300 -93800 53300 -94375 M 53300 -103200 53300 -102625 M 62700 -103200 62700 -102625 M 57030.5 -104641 57030.5 -104141 M 55980.5 -104141 55980.5 -104641 M 49500 -93775 50000 -93775 M 50000 -92725 49500 -92725 M 63987.348 -101159.099 64340.901 -101512.652 M 65012.652 -100840.901 64659.099 -100487.348 M 50000 -93975 49500 -93975 M 49500 -95025 50000 -95025 M 57805.5 -105166 58305.5 -105166 M 58305.5 -104216 57805.5 -104216 M 51125 -99475 51125 -98550 M 52075 -99475 51125 -99475 M 52100 -98550 52100 -102500 M 49125 -98550 51125 -98550 M 48150 -102500 48150 -98550 M 51125.156 -102500 49124.895 -102500 M 67780.5 -92791 67280.5 -92791 M 67280.5 -93741 67780.5 -93741 M 69730.5 -95341 69730.5 -94841 M 68780.5 -94841 68780.5 -95341 M 68780.5 -96691 68780.5 -97191 M 69730.5 -97191 69730.5 -96691 M 67117.303 -95341 A 111.803 111.803 0 0 1 66893.697 -95341 111.803 111.803 0 0 1 67117.303 -95341" fill="none" stroke-width="150"/><path d="M 54332.929 -106658.286 54260.357 -106622 54187.786 -106549.429 54078.929 -106440.571 54006.357 -106404.286 53933.786 -106404.286 M 53970.071 -106585.714 53897.5 -106549.429 53824.929 -106476.857 53788.643 -106331.714 53788.643 -106077.714 53824.929 -105932.571 53897.5 -105860 53970.071 -105823.714 54115.214 -105823.714 54187.786 -105860 54260.357 -105932.571 54296.643 -106077.714 54296.643 -106331.714 54260.357 -106476.857 54187.786 -106549.429 54115.214 -106585.714 53970.071 -106585.714 M 55022.357 -106585.714 54586.929 -106585.714 M 54804.643 -106585.714 54804.643 -105823.714 54732.072 -105932.571 54659.5 -106005.143 54586.929 -106041.429" fill="none" stroke-width="152.4"/><path d="M 65543.595 -88843.381 65543.595 -89652.905 65591.214 -89748.143 65638.833 -89795.762 65734.071 -89843.381 65924.548 -89843.381 66019.786 -89795.762 66067.405 -89748.143 66115.024 -89652.905 66115.024 -88843.381 M 66543.595 -88938.619 66591.214 -88891 66686.452 -88843.381 66924.548 -88843.381 67019.786 -88891 67067.405 -88938.619 67115.024 -89033.857 67115.024 -89129.095 67067.405 -89271.952 66495.976 -89843.381 67115.024 -89843.381 M 62560.111 -104275.688 62492.768 -104275.688 62358.081 -104208.344 62290.737 -104141.001 62223.393 -104006.313 62223.393 -103871.626 62257.065 -103770.611 62358.08 -103602.253 62459.096 -103501.237 62627.455 -103400.222 62728.47 -103366.55 62863.157 -103366.55 62997.844 -103433.894 63065.188 -103501.237 63132.531 -103635.924 63132.531 -103703.268 M 63401.905 -103972.641 63469.248 -103972.641 63570.263 -104006.313 63738.623 -104174.672 63772.294 -104275.688 63772.294 -104343.031 63738.623 -104444.046 63671.279 -104511.39 63536.592 -104578.733 62728.47 -104578.733 63166.203 -105016.466 M 65713.834 -97123.143 65666.215 -97170.762 65523.358 -97218.381 65428.12 -97218.381 65285.262 -97170.762 65190.024 -97075.524 65142.405 -96980.286 65094.786 -96789.81 65094.786 -96646.952 65142.405 -96456.476 65190.024 -96361.238 65285.262 -96266 65428.12 -96218.381 65523.358 -96218.381 65666.215 -96266 65713.834 -96313.619 M 66285.262 -96646.952 66190.024 -96599.333 66142.405 -96551.714 66094.786 -96456.476 66094.786 -96408.857 66142.405 -96313.619 66190.024 -96266 66285.262 -96218.381 66475.739 -96218.381 66570.977 -96266 66618.596 -96313.619 66666.215 -96408.857 66666.215 -96456.476 66618.596 -96551.714 66570.977 -96599.333 66475.739 -96646.952 66285.262 -96646.952 66190.024 -96694.571 66142.405 -96742.19 66094.786 -96837.429 66094.786 -97027.905 66142.405 -97123.143 66190.024 -97170.762 66285.262 -97218.381 66475.739 -97218.381 66570.977 -97170.762 66618.596 -97123.143 66666.215 -97027.905 66666.215 -96837.429 66618.596 -96742.19 66570.977 -96694.571 66475.739 -96646.952 M 60763.834 -105873.143 60716.215 -105920.762 60573.358 -105968.381 60478.12 -105968.381 60335.262 -105920.762 60240.024 -105825.524 60192.405 -105730.286 60144.786 -105539.81 60144.786 -105396.952 60192.405 -105206.476 60240.024 -105111.238 60335.262 -105016 60478.12 -104968.381 60573.358 -104968.381 60716.215 -105016 60763.834 -105063.619 M 61716.215 -105968.381 61144.786 -105968.381 M 61430.5 -105968.381 61430.5 -104968.381 61335.262 -105111.238 61240.024 -105206.476 61144.786 -105254.095 M 60343.595 -92293.381 60343.595 -93102.905 60391.214 -93198.143 60438.833 -93245.762 60534.071 -93293.381 60724.548 -93293.381 60819.786 -93245.762 60867.405 -93198.143 60915.024 -93102.905 60915.024 -92293.381 M 61915.024 -93293.381 61343.595 -93293.381 M 61629.309 -93293.381 61629.309 -92293.381 61534.071 -92436.238 61438.833 -92531.476 61343.595 -92579.095 M 56497.167 -105927.905 56230.5 -105546.952 M 56040.024 -105927.905 56040.024 -105127.905 56344.786 -105127.905 56420.977 -105166 56459.072 -105204.095 56497.167 -105280.286 56497.167 -105394.571 56459.072 -105470.762 56420.977 -105508.857 56344.786 -105546.952 56040.024 -105546.952 M 56801.929 -105204.095 56840.024 -105166 56916.215 -105127.905 57106.691 -105127.905 57182.881 -105166 57220.977 -105204.095 57259.072 -105280.286 57259.072 -105356.476 57220.977 -105470.762 56763.834 -105927.905 57259.072 -105927.905 M 51238.834 -93793.381 50905.5 -93317.19 M 50667.405 -93793.381 50667.405 -92793.381 51048.358 -92793.381 51143.596 -92841 51191.215 -92888.619 51238.834 -92983.857 51238.834 -93126.714 51191.215 -93221.952 51143.596 -93269.571 51048.358 -93317.19 50667.405 -93317.19 M 52191.215 -93793.381 51619.786 -93793.381 M 51905.5 -93793.381 51905.5 -92793.381 51810.262 -92936.238 51715.024 -93031.476 51619.786 -93079.095 M 64985.111 -100275.688 64917.768 -100275.688 64783.081 -100208.344 64715.737 -100141.001 64648.393 -100006.313 64648.393 -99871.626 64682.065 -99770.611 64783.08 -99602.253 64884.096 -99501.237 65052.455 -99400.222 65153.47 -99366.55 65288.157 -99366.55 65422.844 -99433.894 65490.188 -99501.237 65557.531 -99635.924 65557.531 -99703.268 M 65860.576 -99871.626 66298.31 -100309.359 65793.233 -100343.03 65894.249 -100444.046 65927.921 -100545.061 65927.921 -100612.405 65894.248 -100713.421 65725.89 -100881.779 65624.874 -100915.451 65557.531 -100915.451 65456.516 -100881.779 65254.485 -100679.748 65220.813 -100578.733 65220.813 -100511.39 M 48138.834 -95993.381 47805.5 -95517.19 M 47567.405 -95993.381 47567.405 -94993.381 47948.358 -94993.381 48043.596 -95041 48091.215 -95088.619 48138.834 -95183.857 48138.834 -95326.714 48091.215 -95421.952 48043.596 -95469.571 47948.358 -95517.19 47567.405 -95517.19 M 48472.167 -94993.381 49091.215 -94993.381 48757.881 -95374.333 48900.739 -95374.333 48995.977 -95421.952 49043.596 -95469.571 49091.215 -95564.81 49091.215 -95802.905 49043.596 -95898.143 48995.977 -95945.762 48900.739 -95993.381 48615.024 -95993.381 48519.786 -95945.762 48472.167 -95898.143 M 59988.834 -104698.143 59941.215 -104745.762 59798.358 -104793.381 59703.12 -104793.381 59560.262 -104745.762 59465.024 -104650.524 59417.405 -104555.286 59369.786 -104364.81 59369.786 -104221.952 59417.405 -104031.476 59465.024 -103936.238 59560.262 -103841 59703.12 -103793.381 59798.358 -103793.381 59941.215 -103841 59988.834 -103888.619 M 60845.977 -104126.714 60845.977 -104793.381 M 60607.881 -103745.762 60369.786 -104460.048 60988.834 -104460.048 M 48493.595 -97143.381 48493.595 -97952.905 48541.214 -98048.143 48588.833 -98095.762 48684.071 -98143.381 48874.548 -98143.381 48969.786 -98095.762 49017.405 -98048.143 49065.024 -97952.905 49065.024 -97143.381 M 49445.976 -97143.381 50065.024 -97143.381 49731.69 -97524.333 49874.548 -97524.333 49969.786 -97571.952 50017.405 -97619.571 50065.024 -97714.81 50065.024 -97952.905 50017.405 -98048.143 49969.786 -98095.762 49874.548 -98143.381 49588.833 -98143.381 49493.595 -98095.762 49445.976 -98048.143 M 65613.834 -93023.143 65566.215 -93070.762 65423.358 -93118.381 65328.12 -93118.381 65185.262 -93070.762 65090.024 -92975.524 65042.405 -92880.286 64994.786 -92689.81 64994.786 -92546.952 65042.405 -92356.476 65090.024 -92261.238 65185.262 -92166 65328.12 -92118.381 65423.358 -92118.381 65566.215 -92166 65613.834 -92213.619 M 66518.596 -92118.381 66042.405 -92118.381 65994.786 -92594.571 66042.405 -92546.952 66137.643 -92499.333 66375.739 -92499.333 66470.977 -92546.952 66518.596 -92594.571 66566.215 -92689.81 66566.215 -92927.905 66518.596 -93023.143 66470.977 -93070.762 66375.739 -93118.381 66137.643 -93118.381 66042.405 -93070.762 65994.786 -93023.143 M 69712.643 -92957.666 69760.262 -93005.285 69807.881 -93148.142 69807.881 -93243.38 69760.262 -93386.238 69665.024 -93481.476 69569.786 -93529.095 69379.31 -93576.714 69236.452 -93576.714 69045.976 -93529.095 68950.738 -93481.476 68855.5 -93386.238 68807.881 -93243.38 68807.881 -93148.142 68855.5 -93005.285 68903.119 -92957.666 M 68807.881 -92100.523 68807.881 -92291 68855.5 -92386.238 68903.119 -92433.857 69045.976 -92529.095 69236.452 -92576.714 69617.405 -92576.714 69712.643 -92529.095 69760.262 -92481.476 69807.881 -92386.238 69807.881 -92195.761 69760.262 -92100.523 69712.643 -92052.904 69617.405 -92005.285 69379.31 -92005.285 69284.071 -92052.904 69236.452 -92100.523 69188.833 -92195.761 69188.833 -92386.238 69236.452 -92481.476 69284.071 -92529.095 69379.31 -92576.714 M 69662.643 -98957.666 69710.262 -99005.285 69757.881 -99148.142 69757.881 -99243.38 69710.262 -99386.238 69615.024 -99481.476 69519.786 -99529.095 69329.31 -99576.714 69186.452 -99576.714 68995.976 -99529.095 68900.738 -99481.476 68805.5 -99386.238 68757.881 -99243.38 68757.881 -99148.142 68805.5 -99005.285 68853.119 -98957.666 M 68757.881 -98624.333 68757.881 -97957.666 69757.881 -98386.238 M 64993.595 -93643.381 64993.595 -94452.905 65041.214 -94548.143 65088.833 -94595.762 65184.071 -94643.381 65374.548 -94643.381 65469.786 -94595.762 65517.405 -94548.143 65565.024 -94452.905 65565.024 -93643.381 M 66469.786 -93976.714 66469.786 -94643.381 M 66231.69 -93595.762 65993.595 -94310.048 66612.643 -94310.048" fill="none" stroke-width="150"/></g><g id="pcb-stackup_top_sm"><path d="M 55705.143 -107845.348 55806 -107866.051 55900.91 -107905.948 55986.267 -107963.521 56058.819 -108036.582 56115.791 -108122.333 56155.026 -108217.522 56174.956 -108318.177 56174.956 -108318.187 56175.022 -108318.521 56173.38 -108436.118 56173.304 -108436.452 56173.304 -108436.463 56150.572 -108536.519 56108.697 -108630.573 56049.348 -108714.706 55974.786 -108785.709 55887.856 -108840.877 55791.866 -108878.11 55690.475 -108895.987 55587.539 -108893.832 55486.977 -108871.721 55392.633 -108830.504 55308.09 -108771.744 55236.567 -108697.679 55180.796 -108611.141 55142.894 -108515.412 55124.308 -108414.141 55125.746 -108311.195 55147.151 -108210.489 55187.712 -108115.854 55245.879 -108030.903 55319.442 -107958.865 55405.592 -107902.49 55501.053 -107863.921 55602.184 -107844.629 55705.143 -107845.348 55705.143 -107845.348"/><path d="M 65200 -108040 63800 -108040 63800 -106041 65200 -106041 65200 -108040 65200 -108040"/><path d="M 51950 -107640 50650 -107640 50650 -105940 51950 -105940 51950 -107640 51950 -107640"/><path d="M 57030 -107640 55730 -107640 55730 -105940 57030 -105940 57030 -107640 57030 -107640"/><path d="M 59805.5 -106091 59005.5 -106091 59005.5 -105391 59805.5 -105391 59805.5 -106091 59805.5 -106091"/><path d="M 58705.5 -106091 57905.5 -106091 57905.5 -105391 58705.5 -105391 58705.5 -106091 58705.5 -106091"/><path d="M 66843.524 -104240.464 66977.999 -104268.068 67104.547 -104321.264 67218.359 -104398.031 67315.089 -104495.438 67391.055 -104609.778 67443.368 -104736.696 67469.964 -104871.017 67469.964 -104871.027 67470.03 -104871.361 67467.841 -105028.158 67467.764 -105028.496 67467.764 -105028.504 67437.43 -105162.022 67381.594 -105287.433 67302.463 -105399.608 67203.046 -105494.281 67087.143 -105567.835 66959.156 -105617.478 66823.965 -105641.316 66686.718 -105638.442 66552.64 -105608.962 66426.844 -105554.003 66314.12 -105475.658 66218.757 -105376.907 66144.395 -105261.52 66093.859 -105133.882 66069.078 -104998.855 66070.995 -104861.592 66099.535 -104727.319 66153.615 -104601.142 66231.177 -104487.866 66329.252 -104391.822 66444.123 -104316.653 66571.404 -104265.228 66706.247 -104239.506 66843.524 -104240.464 66843.524 -104240.464"/><path d="M 64633.775 -104136.498 64777.856 -104166.073 64913.444 -104223.069 65035.382 -104305.317 65139.023 -104409.685 65220.419 -104532.194 65276.464 -104668.173 65304.966 -104812.115 65304.966 -104812.125 65305.032 -104812.459 65302.686 -104980.455 65302.61 -104980.789 65302.61 -104980.801 65270.104 -105123.881 65210.279 -105258.25 65125.496 -105378.437 65018.978 -105479.872 64894.796 -105558.68 64757.666 -105611.869 64612.819 -105637.41 64465.769 -105634.33 64322.111 -105602.745 64187.338 -105543.864 64066.554 -105459.917 63964.383 -105354.115 63884.709 -105230.486 63830.564 -105093.731 63804.012 -104949.059 63806.066 -104801.992 63836.645 -104658.127 63894.587 -104522.937 63977.687 -104401.574 64082.773 -104298.665 64205.844 -104218.13 64342.221 -104163.03 64486.693 -104135.47 64633.775 -104136.498 64633.775 -104136.498"/><path d="M 50832.775 -104096.498 50976.856 -104126.073 51112.444 -104183.069 51234.382 -104265.317 51338.023 -104369.685 51419.419 -104492.194 51475.464 -104628.173 51503.966 -104772.115 51503.966 -104772.125 51504.032 -104772.459 51501.686 -104940.455 51501.61 -104940.789 51501.61 -104940.801 51469.104 -105083.881 51409.279 -105218.25 51324.496 -105338.437 51217.978 -105439.872 51093.796 -105518.68 50956.666 -105571.869 50811.819 -105597.41 50664.769 -105594.33 50521.111 -105562.745 50386.338 -105503.864 50265.554 -105419.917 50163.383 -105314.115 50083.709 -105190.486 50029.564 -105053.731 50003.012 -104909.059 50005.066 -104761.992 50035.645 -104618.127 50093.587 -104482.937 50176.687 -104361.574 50281.773 -104258.665 50404.844 -104178.13 50541.221 -104123.03 50685.693 -104095.47 50832.775 -104096.498 50832.775 -104096.498"/><path d="M 49143.524 -104190.464 49277.999 -104218.068 49404.547 -104271.264 49518.359 -104348.031 49615.089 -104445.438 49691.055 -104559.778 49743.368 -104686.696 49769.964 -104821.017 49769.964 -104821.027 49770.03 -104821.361 49767.841 -104978.158 49767.764 -104978.496 49767.764 -104978.504 49737.43 -105112.022 49681.594 -105237.433 49602.463 -105349.608 49503.046 -105444.281 49387.143 -105517.835 49259.156 -105567.478 49123.965 -105591.316 48986.718 -105588.442 48852.64 -105558.962 48726.844 -105504.003 48614.12 -105425.658 48518.757 -105326.907 48444.395 -105211.52 48393.859 -105083.882 48369.078 -104948.855 48370.995 -104811.592 48399.535 -104677.319 48453.615 -104551.142 48531.177 -104437.866 48629.252 -104341.822 48744.123 -104266.653 48871.404 -104215.228 49006.247 -104189.506 49143.524 -104190.464 49143.524 -104190.464"/><path d="M 55931.7 -105517.2 55179.3 -105517.2 55179.3 -104864.8 55931.7 -104864.8 55931.7 -105517.2 55931.7 -105517.2"/><path d="M 56905.5 -105141 56105.5 -105141 56105.5 -104541 56905.5 -104541 56905.5 -105141 56905.5 -105141"/><path d="M 57905.5 -105041 57105.5 -105041 57105.5 -104341 57905.5 -104341 57905.5 -105041 57905.5 -105041"/><path d="M 59005.5 -105041 58205.5 -105041 58205.5 -104341 59005.5 -104341 59005.5 -105041 59005.5 -105041"/><path d="M 54631.7 -105017.2 53879.3 -105017.2 53879.3 -104364.8 54631.7 -104364.8 54631.7 -105017.2 54631.7 -105017.2"/><path d="M 55931.7 -104517.2 55179.3 -104517.2 55179.3 -103864.8 55931.7 -103864.8 55931.7 -104517.2 55931.7 -104517.2"/><path d="M 56905.5 -104241 56105.5 -104241 56105.5 -103641 56905.5 -103641 56905.5 -104241 56905.5 -104241"/><path d="M 70420.572 -100001.397 70823.994 -100084.208 71203.643 -100243.798 71545.068 -100474.091 71835.26 -100766.317 72063.166 -101109.341 72220.099 -101490.092 72300.024 -101893.741 72300.024 -101893.75 72300.09 -101894.084 72293.522 -102364.473 72293.446 -102364.807 72293.446 -102364.819 72202.285 -102766.069 72034.776 -103142.297 71797.384 -103478.823 71499.143 -103762.834 71151.426 -103983.501 70767.464 -104132.431 70361.892 -104203.944 69950.151 -104195.32 69547.92 -104106.883 69170.541 -103942.01 68832.359 -103706.968 68546.277 -103410.722 68323.187 -103064.554 68171.581 -102681.642 68097.237 -102276.571 68102.988 -101864.781 68188.611 -101461.952 68350.85 -101083.421 68583.521 -100743.614 68877.765 -100455.468 69222.37 -100229.965 69604.214 -100075.69 70008.747 -99998.521 70420.572 -100001.397 70420.572 -100001.397"/><path d="M 47100 -99825 46331.117 -99825 46317.187 -99826.98 46304.361 -99832.761 46293.653 -99841.888 46285.911 -99853.636 46281.749 -99867.076 46281.496 -99881.143 46285.172 -99894.724 46292.486 -99906.743 46302.859 -99916.249 46311.741 -99921.093 46603.643 -100043.798 46945.068 -100274.091 47235.26 -100566.317 47463.166 -100909.341 47620.099 -101290.092 47700.024 -101693.741 47700.024 -101693.75 47700.09 -101694.084 47693.522 -102164.473 47693.446 -102164.807 47693.446 -102164.819 47602.285 -102566.069 47434.776 -102942.297 47197.384 -103278.823 46899.143 -103562.834 46551.426 -103783.501 46167.464 -103932.431 45761.892 -104003.944 45350.151 -103995.32 44947.92 -103906.883 44570.541 -103742.01 44232.359 -103506.968 43946.277 -103210.722 43723.187 -102864.554 43571.581 -102481.642 43497.237 -102076.571 43502.988 -101664.781 43588.611 -101261.952 43750.85 -100883.421 43983.521 -100543.614 44277.765 -100255.468 44622.37 -100029.965 45004.214 -99875.69 45408.747 -99798.521 45820.571 -99801.397 45839.945 -99805.374 45853.989 -99806.236 45867.716 -99803.151 45880.041 -99796.365 45889.986 -99786.413 45896.766 -99774.085 45900 -99756.395 45900 -97375 47100 -97375 47100 -99825 47100 -99825"/><path d="M 64924.74 -103190.264 64429.764 -103685.24 63864.078 -103119.554 64359.054 -102624.578 64924.74 -103190.264 64924.74 -103190.264"/><path d="M 62000 -94450 62001.98 -94463.93 62007.761 -94476.756 62016.888 -94487.464 62028.636 -94495.206 62042.076 -94499.368 62050 -94500 62975 -94500 62975 -102332.286 62976.545 -102343.153 62975 -102351.186 62975 -102500 62050 -102500 62036.07 -102501.98 62023.244 -102507.761 62012.536 -102516.888 62004.794 -102528.636 62000.632 -102542.076 62000 -102550 62000 -103475 54000 -103475 54000 -102550 53998.02 -102536.07 53992.239 -102523.244 53983.112 -102512.536 53971.364 -102504.794 53957.924 -102500.632 53950 -102500 53025 -102500 53025 -94575 54025 -94575 54025 -94950 54026.98 -94963.93 54032.761 -94976.756 54041.888 -94987.464 54053.636 -94995.206 54067.076 -94999.368 54075 -95000 54075 -102000 54061.07 -102001.98 54048.244 -102007.761 54037.536 -102016.888 54029.794 -102028.636 54025.632 -102042.076 54025 -102050 54025 -102425 54026.98 -102438.93 54032.761 -102451.756 54041.888 -102462.464 54053.636 -102470.206 54067.076 -102474.368 54075 -102475 54450 -102475 54463.93 -102473.02 54476.756 -102467.239 54487.464 -102458.112 54495.206 -102446.364 54499.368 -102432.924 54500 -102425 61500 -102425 61501.98 -102438.93 61507.761 -102451.756 61516.888 -102462.464 61528.636 -102470.206 61542.076 -102474.368 61550 -102475 61925 -102475 61938.93 -102473.02 61951.756 -102467.239 61962.464 -102458.112 61970.206 -102446.364 61974.368 -102432.924 61975 -102425 61975 -102050 61973.02 -102036.07 61967.239 -102023.244 61958.112 -102012.536 61946.364 -102004.794 61932.924 -102000.632 61925 -102000 61925 -95000 61938.93 -94998.02 61951.756 -94992.239 61962.464 -94983.112 61970.206 -94971.364 61974.368 -94957.924 61975 -94950 61975 -94575 61973.02 -94561.07 61967.239 -94548.244 61958.112 -94537.536 61946.364 -94529.794 61932.924 -94525.632 61925 -94525 61550 -94525 61536.07 -94526.98 61523.244 -94532.761 61512.536 -94541.888 61504.794 -94553.636 61500.632 -94567.076 61500 -94575 54500 -94575 54498.02 -94561.07 54492.239 -94548.244 54483.112 -94537.536 54471.364 -94529.794 54457.924 -94525.632 54450 -94525 54075 -94525 54061.07 -94526.98 54048.244 -94532.761 54037.536 -94541.888 54029.794 -94553.636 54025.632 -94567.076 54025 -94575 53025 -94575 53025 -94500 53950 -94500 53963.93 -94498.02 53976.756 -94492.239 53987.464 -94483.112 53995.206 -94471.364 53999.368 -94457.924 54000 -94450 54000 -93525 62000 -93525 62000 -94450 62000 -94450"/><path d="M 61775 -102275 54225 -102275 54225 -94725 61775 -94725 61775 -102275 61775 -102275"/><path d="M 64146.922 -102412.446 63651.946 -102907.422 63086.26 -102341.736 63581.236 -101846.76 64146.922 -102412.446 64146.922 -102412.446"/><path d="M 48900 -102800 48350 -102800 48350 -101800 48900 -101800 48900 -102800 48900 -102800"/><path d="M 51900 -102800 51350 -102800 51350 -101800 51900 -101800 51900 -102800 51900 -102800"/><path d="M 65419.24 -101424.264 64924.264 -101919.24 64358.578 -101353.554 64853.554 -100858.578 65419.24 -101424.264 65419.24 -101424.264"/><path d="M 64641.422 -100646.446 64146.446 -101141.422 63580.76 -100575.736 64075.736 -100080.76 64641.422 -100646.446 64641.422 -100646.446"/><path d="M 51900 -99250 51350 -99250 51350 -98250 51900 -98250 51900 -99250 51900 -99250"/><path d="M 48900 -99250 48350 -99250 48350 -98250 48900 -98250 48900 -99250 48900 -99250"/><path d="M 69605.5 -97891 68905.5 -97891 68905.5 -97091 69605.5 -97091 69605.5 -97891 69605.5 -97891"/><path d="M 68775.5 -96491 68730.5 -96491 68716.57 -96492.98 68703.744 -96498.761 68693.036 -96507.888 68685.294 -96519.636 68681.132 -96533.076 68680.5 -96541 68680.5 -97241 67880.5 -97241 67880.5 -96541 67878.52 -96527.07 67872.739 -96514.244 67863.612 -96503.536 67851.864 -96495.794 67838.424 -96491.632 67830.5 -96491 67630.5 -96491 67616.57 -96492.98 67603.744 -96498.761 67593.036 -96507.888 67585.294 -96519.636 67581.132 -96533.076 67580.5 -96541 67580.5 -97241 66780.5 -97241 66780.5 -96541 66778.52 -96527.07 66772.739 -96514.244 66763.612 -96503.536 66751.864 -96495.794 66738.424 -96491.632 66735.5 -96491.399 66735.5 -95491 68775.5 -95491 68775.5 -96491 68775.5 -96491"/><path d="M 69605.5 -96791 68905.5 -96791 68905.5 -95241 69605.5 -95241 69605.5 -96791 69605.5 -96791"/><path d="M 45820.572 -90201.397 46223.994 -90284.208 46603.643 -90443.798 46945.068 -90674.091 47235.26 -90966.317 47463.166 -91309.341 47620.099 -91690.092 47700.024 -92093.741 47700.024 -92093.75 47700.09 -92094.084 47693.522 -92564.473 47693.446 -92564.807 47693.446 -92564.819 47602.285 -92966.069 47434.776 -93342.297 47197.384 -93678.823 46899.143 -93962.834 46551.426 -94183.501 46435.712 -94228.384 46423.441 -94235.267 46413.573 -94245.296 46406.89 -94257.677 46403.921 -94271.43 46404.9 -94285.465 46409.752 -94298.672 46418.09 -94310.004 46429.256 -94318.565 46442.364 -94323.676 46453.793 -94325 47100 -94325 47100 -96775 45900 -96775 45900 -94439.179 45898.02 -94425.249 45892.239 -94412.423 45883.112 -94401.715 45871.364 -94393.973 45857.924 -94389.811 45841.317 -94389.939 45761.891 -94403.944 45350.151 -94395.32 44947.92 -94306.883 44570.541 -94142.01 44232.359 -93906.968 43946.277 -93610.722 43723.187 -93264.554 43571.581 -92881.642 43497.237 -92476.571 43502.988 -92064.781 43588.611 -91661.952 43750.85 -91283.421 43983.521 -90943.614 44277.765 -90655.468 44622.37 -90429.965 45004.214 -90275.69 45408.747 -90198.521 45820.572 -90201.397 45820.572 -90201.397"/><path d="M 50078.272 -95280.431 50203.142 -95306.063 50320.651 -95355.46 50426.331 -95426.741 50516.154 -95517.194 50586.697 -95623.369 50635.269 -95741.216 50659.962 -95865.92 50659.962 -95865.93 50660.028 -95866.264 50657.995 -96011.861 50657.919 -96012.195 50657.919 -96012.206 50629.756 -96136.164 50577.908 -96252.616 50504.43 -96356.779 50412.117 -96444.687 50304.486 -96512.991 50185.644 -96559.088 50060.111 -96581.222 49932.667 -96578.553 49808.164 -96551.179 49691.355 -96500.146 49586.683 -96427.397 49498.131 -96335.699 49429.081 -96228.555 49382.155 -96110.034 49359.143 -95984.651 49360.924 -95857.192 49387.425 -95732.511 49437.643 -95615.344 49509.66 -95510.166 49600.737 -95420.976 49707.4 -95351.178 49825.59 -95303.426 49950.8 -95279.541 50078.272 -95280.431 50078.272 -95280.431"/><path d="M 65850.272 -94996.431 65975.142 -95022.063 66092.651 -95071.46 66198.331 -95142.741 66288.154 -95233.194 66358.697 -95339.369 66407.269 -95457.216 66431.962 -95581.92 66431.962 -95581.93 66432.028 -95582.264 66429.995 -95727.861 66429.919 -95728.195 66429.919 -95728.206 66401.756 -95852.164 66349.908 -95968.616 66276.43 -96072.779 66184.117 -96160.687 66076.486 -96228.991 65957.644 -96275.088 65832.111 -96297.222 65704.667 -96294.553 65580.164 -96267.179 65463.355 -96216.146 65358.683 -96143.397 65270.131 -96051.699 65201.081 -95944.555 65154.155 -95826.034 65131.143 -95700.651 65132.924 -95573.192 65159.425 -95448.511 65209.643 -95331.344 65281.66 -95226.166 65372.737 -95136.976 65479.4 -95067.178 65597.59 -95019.426 65722.8 -94995.541 65850.272 -94996.431 65850.272 -94996.431"/><path d="M 69605.5 -94941 68905.5 -94941 68905.5 -94141 69605.5 -94141 69605.5 -94941 69605.5 -94941"/><path d="M 50500 -94900 49900 -94900 49900 -94100 50500 -94100 50500 -94900 50500 -94900"/><path d="M 49600 -94900 49000 -94900 49000 -94100 49600 -94100 49600 -94900 49600 -94900"/><path d="M 68775.5 -94791 66735.5 -94791 66735.5 -93791 68775.5 -93791 68775.5 -94791 68775.5 -94791"/><path d="M 50500 -93650 49900 -93650 49900 -92850 50500 -92850 50500 -93650 50500 -93650"/><path d="M 49600 -93650 49000 -93650 49000 -92850 49600 -92850 49600 -93650 49600 -93650"/><path d="M 68480.5 -93616 67680.5 -93616 67680.5 -92916 68480.5 -92916 68480.5 -93616 68480.5 -93616"/><path d="M 67380.5 -93616 66580.5 -93616 66580.5 -92916 67380.5 -92916 67380.5 -93616 67380.5 -93616"/><path d="M 67468.5 -91864.5 48443.5 -91864.5 48443.5 -89955.5 67468.5 -89955.5 67468.5 -91864.5 67468.5 -91864.5"/><path d="M 58033.524 -87900.464 58167.999 -87928.068 58294.547 -87981.264 58408.359 -88058.031 58505.089 -88155.438 58581.055 -88269.778 58633.368 -88396.696 58659.964 -88531.017 58659.964 -88531.027 58660.03 -88531.361 58657.841 -88688.158 58657.764 -88688.496 58657.764 -88688.504 58627.43 -88822.022 58571.594 -88947.433 58492.463 -89059.608 58393.046 -89154.281 58277.143 -89227.835 58149.156 -89277.478 58013.965 -89301.316 57876.718 -89298.442 57742.64 -89268.962 57616.844 -89214.003 57504.12 -89135.658 57408.757 -89036.907 57334.395 -88921.52 57283.859 -88793.882 57259.078 -88658.855 57260.995 -88521.592 57289.535 -88387.319 57343.615 -88261.142 57421.177 -88147.866 57519.252 -88051.822 57634.123 -87976.653 57761.404 -87925.228 57896.247 -87899.506 58033.524 -87900.464 58033.524 -87900.464"/><path d="M 64500.775 -86569.498 64644.856 -86599.073 64780.444 -86656.069 64902.382 -86738.317 65006.023 -86842.685 65087.419 -86965.194 65143.464 -87101.173 65171.966 -87245.115 65171.966 -87245.125 65172.032 -87245.459 65169.686 -87413.455 65169.61 -87413.789 65169.61 -87413.801 65137.104 -87556.881 65077.279 -87691.25 64992.496 -87811.437 64885.978 -87912.872 64761.796 -87991.68 64624.666 -88044.869 64479.819 -88070.41 64332.769 -88067.33 64189.111 -88035.745 64054.338 -87976.864 63933.554 -87892.917 63831.383 -87787.115 63751.709 -87663.486 63697.564 -87526.731 63671.012 -87382.059 63673.066 -87234.992 63703.645 -87091.127 63761.587 -86955.937 63844.687 -86834.574 63949.773 -86731.665 64072.844 -86651.13 64209.221 -86596.03 64353.693 -86568.47 64500.775 -86569.498 64500.775 -86569.498"/><path d="M 51526.775 -86500.498 51670.856 -86530.073 51806.444 -86587.069 51928.382 -86669.317 52032.023 -86773.685 52113.419 -86896.194 52169.464 -87032.173 52197.966 -87176.115 52197.966 -87176.125 52198.032 -87176.459 52195.686 -87344.455 52195.61 -87344.789 52195.61 -87344.801 52163.104 -87487.881 52103.279 -87622.25 52018.496 -87742.437 51911.978 -87843.872 51787.796 -87922.68 51650.666 -87975.869 51505.819 -88001.41 51358.769 -87998.33 51215.111 -87966.745 51080.338 -87907.864 50959.554 -87823.917 50857.383 -87718.115 50777.709 -87594.486 50723.564 -87457.731 50697.012 -87313.059 50699.066 -87165.992 50729.645 -87022.127 50787.587 -86886.937 50870.687 -86765.574 50975.773 -86662.665 51098.844 -86582.13 51235.221 -86527.03 51379.693 -86499.47 51526.775 -86500.498 51526.775 -86500.498"/><path d="M 53573.524 -85050.464 53707.999 -85078.068 53834.547 -85131.264 53948.359 -85208.031 54045.089 -85305.438 54121.055 -85419.778 54173.368 -85546.696 54199.964 -85681.017 54199.964 -85681.027 54200.03 -85681.361 54197.841 -85838.158 54197.764 -85838.496 54197.764 -85838.504 54167.43 -85972.022 54111.594 -86097.433 54032.463 -86209.608 53933.046 -86304.281 53817.143 -86377.835 53689.156 -86427.478 53553.965 -86451.316 53416.718 -86448.442 53282.64 -86418.962 53156.844 -86364.003 53044.12 -86285.658 52948.757 -86186.907 52874.395 -86071.52 52823.859 -85943.882 52799.078 -85808.855 52800.995 -85671.592 52829.535 -85537.319 52883.615 -85411.142 52961.177 -85297.866 53059.252 -85201.822 53174.123 -85126.653 53301.404 -85075.228 53436.247 -85049.506 53573.524 -85050.464 53573.524 -85050.464"/><path d="M 55323.524 -85050.464 55457.999 -85078.068 55584.547 -85131.264 55698.359 -85208.031 55795.089 -85305.438 55871.055 -85419.778 55923.368 -85546.696 55949.964 -85681.017 55949.964 -85681.027 55950.03 -85681.361 55947.841 -85838.158 55947.764 -85838.496 55947.764 -85838.504 55917.43 -85972.022 55861.594 -86097.433 55782.463 -86209.608 55683.046 -86304.281 55567.143 -86377.835 55439.156 -86427.478 55303.965 -86451.316 55166.718 -86448.442 55032.64 -86418.962 54906.844 -86364.003 54794.12 -86285.658 54698.757 -86186.907 54624.395 -86071.52 54573.859 -85943.882 54549.078 -85808.855 54550.995 -85671.592 54579.535 -85537.319 54633.615 -85411.142 54711.177 -85297.866 54809.252 -85201.822 54924.123 -85126.653 55051.404 -85075.228 55186.247 -85049.506 55323.524 -85050.464 55323.524 -85050.464"/></g><g id="pcb-stackup_top_drl1"><use xlink:href="#S_BvTbs1N4uK_pad-1" x="46500" y="-95550"/><use xlink:href="#S_BvTbs1N4uK_pad-1" x="47456" y="-99291"/><use xlink:href="#S_BvTbs1N4uK_pad-1" x="47605" y="-98691"/><use xlink:href="#S_BvTbs1N4uK_pad-1" x="47800" y="-94400"/><use xlink:href="#S_BvTbs1N4uK_pad-1" x="48500" y="-93000"/><use xlink:href="#S_BvTbs1N4uK_pad-1" x="48550" y="-93768"/><use xlink:href="#S_BvTbs1N4uK_pad-1" x="48805" y="-92141"/><use xlink:href="#S_BvTbs1N4uK_pad-1" x="49505" y="-92141"/><use xlink:href="#S_BvTbs1N4uK_pad-1" x="50206" y="-92141"/><use xlink:href="#S_BvTbs1N4uK_pad-1" x="50365" y="-98130"/><use xlink:href="#S_BvTbs1N4uK_pad-1" x="50605" y="-102991"/><use xlink:href="#S_BvTbs1N4uK_pad-1" x="50768" y="-94500"/><use xlink:href="#S_BvTbs1N4uK_pad-1" x="50905" y="-92441"/><use xlink:href="#S_BvTbs1N4uK_pad-1" x="51555" y="-92291"/><use xlink:href="#S_BvTbs1N4uK_pad-1" x="51883" y="-103132"/><use xlink:href="#S_BvTbs1N4uK_pad-1" x="52230" y="-104491"/><use xlink:href="#S_BvTbs1N4uK_pad-1" x="52255" y="-92141"/><use xlink:href="#S_BvTbs1N4uK_pad-1" x="52355" y="-100241"/><use xlink:href="#S_BvTbs1N4uK_pad-1" x="52355" y="-101241"/><use xlink:href="#S_BvTbs1N4uK_pad-1" x="52387" y="-99250"/><use xlink:href="#S_BvTbs1N4uK_pad-1" x="52505" y="-102341"/><use xlink:href="#S_BvTbs1N4uK_pad-1" x="52655" y="-102941"/><use xlink:href="#S_BvTbs1N4uK_pad-1" x="52741" y="-98750"/><use xlink:href="#S_BvTbs1N4uK_pad-1" x="52741" y="-99750"/><use xlink:href="#S_BvTbs1N4uK_pad-1" x="52755" y="-100741"/><use xlink:href="#S_BvTbs1N4uK_pad-1" x="52755" y="-101741"/><use xlink:href="#S_BvTbs1N4uK_pad-1" x="53630" y="-93791"/><use xlink:href="#S_BvTbs1N4uK_pad-1" x="53988" y="-93200"/><use xlink:href="#S_BvTbs1N4uK_pad-1" x="54600" y="-93200"/><use xlink:href="#S_BvTbs1N4uK_pad-1" x="55148" y="-89798"/><use xlink:href="#S_BvTbs1N4uK_pad-1" x="55304" y="-93200"/><use xlink:href="#S_BvTbs1N4uK_pad-1" x="55850" y="-89796"/><use xlink:href="#S_BvTbs1N4uK_pad-1" x="55916" y="-93209"/><use xlink:href="#S_BvTbs1N4uK_pad-1" x="56552" y="-89794"/><use xlink:href="#S_BvTbs1N4uK_pad-1" x="56581" y="-95744"/><use xlink:href="#S_BvTbs1N4uK_pad-1" x="57155" y="-92041"/><use xlink:href="#S_BvTbs1N4uK_pad-1" x="57855" y="-92041"/><use xlink:href="#S_BvTbs1N4uK_pad-1" x="58005" y="-93091"/><use xlink:href="#S_BvTbs1N4uK_pad-1" x="58555" y="-92041"/><use xlink:href="#S_BvTbs1N4uK_pad-1" x="58919" y="-95744"/><use xlink:href="#S_BvTbs1N4uK_pad-1" x="59155" y="-103891"/><use xlink:href="#S_BvTbs1N4uK_pad-1" x="59405" y="-92891"/><use xlink:href="#S_BvTbs1N4uK_pad-1" x="59905" y="-105091"/><use xlink:href="#S_BvTbs1N4uK_pad-1" x="62805" y="-105341"/><use xlink:href="#S_BvTbs1N4uK_pad-1" x="63121" y="-105866"/><use xlink:href="#S_BvTbs1N4uK_pad-1" x="63155" y="-103141"/><use xlink:href="#S_BvTbs1N4uK_pad-1" x="63605" y="-103591"/><use xlink:href="#S_BvTbs1N4uK_pad-1" x="64605" y="-97691"/><use xlink:href="#S_BvTbs1N4uK_pad-1" x="65906" y="-97641"/><use xlink:href="#S_BvTbs1N4uK_pad-1" x="66156" y="-104266"/><use xlink:href="#S_BvTbs1N4uK_pad-1" x="66505" y="-94941"/><use xlink:href="#S_BvTbs1N4uK_pad-1" x="67531" y="-97591"/><use xlink:href="#S_BvTbs1N4uK_pad-1" x="67680" y="-92691"/><use xlink:href="#S_BvTbs1N4uK_pad-1" x="67706" y="-95141"/><use xlink:href="#S_BvTbs1N4uK_pad-1" x="69105" y="-93791"/><use xlink:href="#S_BvTbs1N4uK_pad-2" x="49905" y="-103941"/><use xlink:href="#S_BvTbs1N4uK_pad-2" x="53305" y="-105191"/><use xlink:href="#S_BvTbs1N4uK_pad-2" x="53405" y="-103941"/><use xlink:href="#S_BvTbs1N4uK_pad-2" x="55244" y="-101256"/><use xlink:href="#S_BvTbs1N4uK_pad-2" x="58305" y="-103891"/><use xlink:href="#S_BvTbs1N4uK_pad-2" x="59255" y="-89241"/><use xlink:href="#S_BvTbs1N4uK_pad-2" x="62450" y="-102896"/><use xlink:href="#S_BvTbs1N4uK_pad-2" x="62855" y="-93991"/><use xlink:href="#S_BvTbs1N4uK_pad-2" x="64005" y="-98391"/><use xlink:href="#S_BvTbs1N4uK_pad-2" x="66105" y="-93616"/><use xlink:href="#S_BvTbs1N4uK_pad-2" x="67031" y="-98266"/><use xlink:href="#S_BvTbs1N4uK_pad-3" x="51835" y="-108321"/><use xlink:href="#S_BvTbs1N4uK_pad-4" x="57956" y="-99291"/><use xlink:href="#S_BvTbs1N4uK_pad-5" x="45600" y="-92300"/><use xlink:href="#S_BvTbs1N4uK_pad-5" x="45600" y="-101900"/><use xlink:href="#S_BvTbs1N4uK_pad-5" x="70200" y="-102100"/><use xlink:href="#S_BvTbs1N4uK_pad-6" x="55650" y="-108370"/><use xlink:href="#S_BvTbs1N4uK_pad-7" x="50010" y="-95930"/><use xlink:href="#S_BvTbs1N4uK_pad-7" x="65782" y="-95646"/><use xlink:href="#S_BvTbs1N4uK_pad-8" x="50754" y="-104846"/><use xlink:href="#S_BvTbs1N4uK_pad-8" x="51448" y="-87250"/><use xlink:href="#S_BvTbs1N4uK_pad-8" x="64422" y="-87319"/><use xlink:href="#S_BvTbs1N4uK_pad-8" x="64555" y="-104886"/></g><clipPath id="pcb-stackup_top_out"><path d="M 57280.5 -106266 63655.5 -106266 63655.5 -108166 57280.5 -108166 57280.5 -106266 M 69600 -100750 69150 -103150 69135.95 -103875.658 68920.426 -104199.223 68682.851 -104199.223 66539.176 -106681.345 66539.176 -106886.396 66103.611 -107256.974 65654.55 -107611.563 65191.689 -107948.548 64714.722 -108266.316 64223.348 -108563.245 63717.258 -108837.72 63196.149 -109088.127 62659.721 -109312.847 53135.271 -109312.847 52593.407 -109085.232 52064.819 -108834.356 51550.026 -108560.922 51049.55 -108265.627 50563.913 -107949.166 50093.638 -107612.241 49639.241 -107255.546 49201.249 -106879.781 49201.249 -106540.784 47058.126 -104058.662 46885.596 -104058.662 46612.193 -103676.118 46600 -103100 46000 -100400 45713.182 -99791.705 45713.182 -94369.4 46200 -93500 46700 -91500 46688.85 -90334.506 46900.517 -90071.576 47152.423 -90071.576 49296.095 -87589.454 49296.095 -87296.206 49732.348 -86928.453 50183.557 -86580.533 50649.029 -86252.87 51128.073 -85945.885 51620 -85660 52124.12 -85395.634 52639.743 -85153.208 53166.177 -84933.148 53166.172 -84933.148 53166.166 -84933.148 53166.16 -84933.148 53166.155 -84933.148 53166.149 -84933.148 53166.143 -84933.148 53166.138 -84933.148 53166.132 -84933.148 62691.682 -84933.148 63257.467 -85173.243 63806.884 -85440.815 64339.942 -85734.38 64856.651 -86052.464 65357.02 -86393.586 65841.065 -86756.267 66308.789 -87139.031 66760.204 -87540.396 66760.204 -87787.34 68903.329 -90270.012 69042.236 -90270.012 69343.844 -90782.658 69624.711 -91308.666 69882.092 -91848.789 70113.246 -92403.768 70113.246 -99897.538 69600 -100750" fill="none" stroke-width="100"/></clipPath><mask id="pcb-stackup_top_mech-mask"><g fill="#000" stroke="#000"><rect x="45713.182" y="-109312.847" width="24400.064" height="24379.699" fill="#fff"/><use xlink:href="#pcb-stackup_top_drl1"/></g></mask><mask id="pcb-stackup_top_cf-mask"><g fill="#fff" stroke="#fff"><use xlink:href="#pcb-stackup_top_sm"/></g></mask><mask id="pcb-stackup_top_sm-mask"><g fill="#000" stroke="#000"><rect x="45713.182" y="-109312.847" width="24400.064" height="24379.699" fill="#fff"/><use xlink:href="#pcb-stackup_top_sm"/></g></mask></defs><g transform="translate(0,-194245.995) scale(1,-1)"><g mask="url(#pcb-stackup_top_mech-mask)" clip-path="url(#pcb-stackup_top_out)"><rect x="45713.182" y="-109312.847" width="24400.064" height="24379.699" fill="currentColor" class="pcb-stackup_fr4"/><use xlink:href="#pcb-stackup_top_cu" fill="currentColor" stroke="currentColor" class="pcb-stackup_cu"/><use xlink:href="#pcb-stackup_top_cu" fill="currentColor" stroke="currentColor" class="pcb-stackup_cf" mask="url(#pcb-stackup_top_cf-mask)"/><g mask="url(#pcb-stackup_top_sm-mask)"><rect x="45713.182" y="-109312.847" width="24400.064" height="24379.699" fill="currentColor" class="pcb-stackup_sm"/><use xlink:href="#pcb-stackup_top_ss" fill="currentColor" stroke="currentColor" class="pcb-stackup_ss"/></g></g></g></svg>