<svg id="pcb-stackup_top" version="1.1" xmlns:xlink="http://www.w3.org/1999/xlink" stroke-linecap="round" stroke-linejoin="round" stroke-width="0" fill-rule="evenodd" clip-rule="evenodd" viewBox="50000 -65000 12000 15000" width="12mm" height="15mm" xmlns="http://www.w3.org/2000/svg"><defs><style>.pcb-stackup_fr4 {color: #4D542C;}
.pcb-stackup_cu {color: lightgrey;}
.pcb-stackup_cf {color: goldenrod;}
.pcb-stackup_sm {color: #004400; opacity: 0.9;}
.pcb-stackup_ss {color: white;}
.pcb-stackup_sp {color: #000000; opacity: 0;}
.pcb-stackup_out {color: black;}</style><rect x="-1750" y="-2000" width="3500" height="4000" id="Xkfg5WaDhoC8_pad-10"/><rect x="-1000" y="-2000" width="2000" height="4000" id="Xkfg5WaDhoC8_pad-11"/><rect x="-635" y="-4000" width="1270" height="8000" id="Xkfg5WaDhoC8_pad-12"/><rect x="-635" y="-4350" width="1270" height="8700" id="Xkfg5WaDhoC8_pad-13"/><circle cx="0" cy="0" r="300" id="Xkfg5WaDhoC8_pad-14"/><circle cx="0" cy="0" r="400" id="Xkfg5WaDhoC8_pad-15"/><rect x="-1750" y="-2000" width="3500" height="4000" id="Xkfg5WaDhoC8_pad-10"/><rect x="-1000" y="-2000" width="2000" height="4000" id="Xkfg5WaDhoC8_pad-11"/><rect x="-635" y="-4000" width="1270" height="8000" id="Xkfg5WaDhoC8_pad-12"/><rect x="-635" y="-4350" width="1270" height="8700" id="Xkfg5WaDhoC8_pad-13"/><circle cx="0" cy="0" r="300" id="Xkfg5WaDhoC8_pad-14"/><circle cx="0" cy="0" r="400" id="Xkfg5WaDhoC8_pad-15"/><rect x="-1750" y="-2000" width="3500" height="4000" id="Xkfg5WaDhoC8_pad-10"/><rect x="-1000" y="-2000" width="2000" height="4000" id="Xkfg5WaDhoC8_pad-11"/><rect x="-635" y="-4000" width="1270" height="8000" id="Xkfg5WaDhoC8_pad-12"/><rect x="-635" y="-4350" width="1270" height="8700" id="Xkfg5WaDhoC8_pad-13"/><circle cx="0" cy="0" r="300" id="Xkfg5WaDhoC8_pad-14"/><circle cx="0" cy="0" r="400" id="Xkfg5WaDhoC8_pad-15"/><rect x="-1750" y="-2000" width="3500" height="4000" id="Xkfg5WaDhoC8_pad-10"/><rect x="-1000" y="-2000" width="2000" height="4000" id="Xkfg5WaDhoC8_pad-11"/><rect x="-635" y="-4000" width="1270" height="8000" id="Xkfg5WaDhoC8_pad-12"/><rect x="-635" y="-4350" width="1270" height="8700" id="Xkfg5WaDhoC8_pad-13"/><circle cx="0" cy="0" r="300" id="Xkfg5WaDhoC8_pad-14"/><circle cx="0" cy="0" r="400" id="Xkfg5WaDhoC8_pad-15"/><rect x="-1750" y="-2000" width="3500" height="4000" id="y_ISHro5h_Qu_pad-10"/><rect x="-1000" y="-2000" width="2000" height="4000" id="y_ISHro5h_Qu_pad-11"/><rect x="-635" y="-4000" width="1270" height="8000" id="y_ISHro5h_Qu_pad-12"/><rect x="-635" y="-4350" width="1270" height="8700" id="y_ISHro5h_Qu_pad-13"/><rect x="-1750" y="-2000" width="3500" height="4000" id="Xkfg5WaDhoC8_pad-10"/><rect x="-1000" y="-2000" width="2000" height="4000" id="Xkfg5WaDhoC8_pad-11"/><rect x="-635" y="-4000" width="1270" height="8000" id="Xkfg5WaDhoC8_pad-12"/><rect x="-635" y="-4350" width="1270" height="8700" id="Xkfg5WaDhoC8_pad-13"/><circle cx="0" cy="0" r="300" id="Xkfg5WaDhoC8_pad-14"/><circle cx="0" cy="0" r="400" id="Xkfg5WaDhoC8_pad-15"/><rect x="-1750" y="-2000" width="3500" height="4000" id="Xkfg5WaDhoC8_pad-10"/><rect x="-1000" y="-2000" width="2000" height="4000" id="Xkfg5WaDhoC8_pad-11"/><rect x="-635" y="-4000" width="1270" height="8000" id="Xkfg5WaDhoC8_pad-12"/><rect x="-635" y="-4350" width="1270" height="8700" id="Xkfg5WaDhoC8_pad-13"/><circle cx="0" cy="0" r="300" id="Xkfg5WaDhoC8_pad-14"/><circle cx="0" cy="0" r="400" id="Xkfg5WaDhoC8_pad-15"/><rect x="-1750" y="-2000" width="3500" height="4000" id="Xkfg5WaDhoC8_pad-10"/><rect x="-1000" y="-2000" width="2000" height="4000" id="Xkfg5WaDhoC8_pad-11"/><rect x="-635" y="-4000" width="1270" height="8000" id="Xkfg5WaDhoC8_pad-12"/><rect x="-635" y="-4350" width="1270" height="8700" id="Xkfg5WaDhoC8_pad-13"/><circle cx="0" cy="0" r="300" id="Xkfg5WaDhoC8_pad-14"/><circle cx="0" cy="0" r="400" id="Xkfg5WaDhoC8_pad-15"/><rect x="-1750" y="-2000" width="3500" height="4000" id="Xkfg5WaDhoC8_pad-10"/><rect x="-1000" y="-2000" width="2000" height="4000" id="Xkfg5WaDhoC8_pad-11"/><rect x="-635" y="-4000" width="1270" height="8000" id="Xkfg5WaDhoC8_pad-12"/><rect x="-635" y="-4350" width="1270" height="8700" id="Xkfg5WaDhoC8_pad-13"/><circle cx="0" cy="0" r="300" id="Xkfg5WaDhoC8_pad-14"/><circle cx="0" cy="0" r="400" id="Xkfg5WaDhoC8_pad-15"/><rect x="-1750" y="-2000" width="3500" height="4000" id="y_ISHro5h_Qu_pad-10"/><rect x="-1000" y="-2000" width="2000" height="4000" id="y_ISHro5h_Qu_pad-11"/><rect x="-635" y="-4000" width="1270" height="8000" id="y_ISHro5h_Qu_pad-12"/><rect x="-635" y="-4350" width="1270" height="8700" id="y_ISHro5h_Qu_pad-13"/><rect x="-1750" y="-2000" width="3500" height="4000" id="Xkfg5WaDhoC8_pad-10"/><rect x="-1000" y="-2000" width="2000" height="4000" id="Xkfg5WaDhoC8_pad-11"/><rect x="-635" y="-4000" width="1270" height="8000" id="Xkfg5WaDhoC8_pad-12"/><rect x="-635" y="-4350" width="1270" height="8700" id="Xkfg5WaDhoC8_pad-13"/><circle cx="0" cy="0" r="300" id="Xkfg5WaDhoC8_pad-14"/><circle cx="0" cy="0" r="400" id="Xkfg5WaDhoC8_pad-15"/><rect x="-1750" y="-2000" width="3500" height="4000" id="Xkfg5WaDhoC8_pad-10"/><rect x="-1000" y="-2000" width="2000" height="4000" id="Xkfg5WaDhoC8_pad-11"/><rect x="-635" y="-4000" width="1270" height="8000" id="Xkfg5WaDhoC8_pad-12"/><rect x="-635" y="-4350" width="1270" height="8700" id="Xkfg5WaDhoC8_pad-13"/><circle cx="0" cy="0" r="300" id="Xkfg5WaDhoC8_pad-14"/><circle cx="0" cy="0" r="400" id="Xkfg5WaDhoC8_pad-15"/><rect x="-1750" y="-2000" width="3500" height="4000" id="Xkfg5WaDhoC8_pad-10"/><rect x="-1000" y="-2000" width="2000" height="4000" id="Xkfg5WaDhoC8_pad-11"/><rect x="-635" y="-4000" width="1270" height="8000" id="Xkfg5WaDhoC8_pad-12"/><rect x="-635" y="-4350" width="1270" height="8700" id="Xkfg5WaDhoC8_pad-13"/><circle cx="0" cy="0" r="300" id="Xkfg5WaDhoC8_pad-14"/><circle cx="0" cy="0" r="400" id="Xkfg5WaDhoC8_pad-15"/><rect x="-1750" y="-2000" width="3500" height="4000" id="Xkfg5WaDhoC8_pad-10"/><rect x="-1000" y="-2000" width="2000" height="4000" id="Xkfg5WaDhoC8_pad-11"/><rect x="-635" y="-4000" width="1270" height="8000" id="Xkfg5WaDhoC8_pad-12"/><rect x="-635" y="-4350" width="1270" height="8700" id="Xkfg5WaDhoC8_pad-13"/><circle cx="0" cy="0" r="300" id="Xkfg5WaDhoC8_pad-14"/><circle cx="0" cy="0" r="400" id="Xkfg5WaDhoC8_pad-15"/><rect x="-1750" y="-2000" width="3500" height="4000" id="y_ISHro5h_Qu_pad-10"/><rect x="-1000" y="-2000" width="2000" height="4000" id="y_ISHro5h_Qu_pad-11"/><rect x="-635" y="-4000" width="1270" height="8000" id="y_ISHro5h_Qu_pad-12"/><rect x="-635" y="-4350" width="1270" height="8700" id="y_ISHro5h_Qu_pad-13"/><rect x="-1750" y="-2000" width="3500" height="4000" id="Xkfg5WaDhoC8_pad-10"/><rect x="-1000" y="-2000" width="2000" height="4000" id="Xkfg5WaDhoC8_pad-11"/><rect x="-635" y="-4000" width="1270" height="8000" id="Xkfg5WaDhoC8_pad-12"/><rect x="-635" y="-4350" width="1270" height="8700" id="Xkfg5WaDhoC8_pad-13"/><circle cx="0" cy="0" r="300" id="Xkfg5WaDhoC8_pad-14"/><circle cx="0" cy="0" r="400" id="Xkfg5WaDhoC8_pad-15"/><rect x="-1750" y="-2000" width="3500" height="4000" id="Xkfg5WaDhoC8_pad-10"/><rect x="-1000" y="-2000" width="2000" height="4000" id="Xkfg5WaDhoC8_pad-11"/><rect x="-635" y="-4000" width="1270" height="8000" id="Xkfg5WaDhoC8_pad-12"/><rect x="-635" y="-4350" width="1270" height="8700" id="Xkfg5WaDhoC8_pad-13"/><circle cx="0" cy="0" r="300" id="Xkfg5WaDhoC8_pad-14"/><circle cx="0" cy="0" r="400" id="Xkfg5WaDhoC8_pad-15"/><rect x="-1750" y="-2000" width="3500" height="4000" id="Xkfg5WaDhoC8_pad-10"/><rect x="-1000" y="-2000" width="2000" height="4000" id="Xkfg5WaDhoC8_pad-11"/><rect x="-635" y="-4000" width="1270" height="8000" id="Xkfg5WaDhoC8_pad-12"/><rect x="-635" y="-4350" width="1270" height="8700" id="Xkfg5WaDhoC8_pad-13"/><circle cx="0" cy="0" r="300" id="Xkfg5WaDhoC8_pad-14"/><circle cx="0" cy="0" r="400" id="Xkfg5WaDhoC8_pad-15"/><rect x="-1750" y="-2000" width="3500" height="4000" id="Xkfg5WaDhoC8_pad-10"/><rect x="-1000" y="-2000" width="2000" height="4000" id="Xkfg5WaDhoC8_pad-11"/><rect x="-635" y="-4000" width="1270" height="8000" id="Xkfg5WaDhoC8_pad-12"/><rect x="-635" y="-4350" width="1270" height="8700" id="Xkfg5WaDhoC8_pad-13"/><circle cx="0" cy="0" r="300" id="Xkfg5WaDhoC8_pad-14"/><circle cx="0" cy="0" r="400" id="Xkfg5WaDhoC8_pad-15"/><rect x="-1750" y="-2000" width="3500" height="4000" id="y_ISHro5h_Qu_pad-10"/><rect x="-1000" y="-2000" width="2000" height="4000" id="y_ISHro5h_Qu_pad-11"/><rect x="-635" y="-4000" width="1270" height="8000" id="y_ISHro5h_Qu_pad-12"/><rect x="-635" y="-4350" width="1270" height="8700" id="y_ISHro5h_Qu_pad-13"/><rect x="-1750" y="-2000" width="3500" height="4000" id="Xkfg5WaDhoC8_pad-10"/><rect x="-1000" y="-2000" width="2000" height="4000" id="Xkfg5WaDhoC8_pad-11"/><rect x="-635" y="-4000" width="1270" height="8000" id="Xkfg5WaDhoC8_pad-12"/><rect x="-635" y="-4350" width="1270" height="8700" id="Xkfg5WaDhoC8_pad-13"/><circle cx="0" cy="0" r="300" id="Xkfg5WaDhoC8_pad-14"/><circle cx="0" cy="0" r="400" id="Xkfg5WaDhoC8_pad-15"/><rect x="-1750" y="-2000" width="3500" height="4000" id="Xkfg5WaDhoC8_pad-10"/><rect x="-1000" y="-2000" width="2000" height="4000" id="Xkfg5WaDhoC8_pad-11"/><rect x="-635" y="-4000" width="1270" height="8000" id="Xkfg5WaDhoC8_pad-12"/><rect x="-635" y="-4350" width="1270" height="8700" id="Xkfg5WaDhoC8_pad-13"/><circle cx="0" cy="0" r="300" id="Xkfg5WaDhoC8_pad-14"/><circle cx="0" cy="0" r="400" id="Xkfg5WaDhoC8_pad-15"/><rect x="-1750" y="-2000" width="3500" height="4000" id="Xkfg5WaDhoC8_pad-10"/><rect x="-1000" y="-2000" width="2000" height="4000" id="Xkfg5WaDhoC8_pad-11"/><rect x="-635" y="-4000" width="1270" height="8000" id="Xkfg5WaDhoC8_pad-12"/><rect x="-635" y="-4350" width="1270" height="8700" id="Xkfg5WaDhoC8_pad-13"/><circle cx="0" cy="0" r="300" id="Xkfg5WaDhoC8_pad-14"/><circle cx="0" cy="0" r="400" id="Xkfg5WaDhoC8_pad-15"/><rect x="-1750" y="-2000" width="3500" height="4000" id="Xkfg5WaDhoC8_pad-10"/><rect x="-1000" y="-2000" width="2000" height="4000" id="Xkfg5WaDhoC8_pad-11"/><rect x="-635" y="-4000" width="1270" height="8000" id="Xkfg5WaDhoC8_pad-12"/><rect x="-635" y="-4350" width="1270" height="8700" id="Xkfg5WaDhoC8_pad-13"/><circle cx="0" cy="0" r="300" id="Xkfg5WaDhoC8_pad-14"/><circle cx="0" cy="0" r="400" id="Xkfg5WaDhoC8_pad-15"/><rect x="-1750" y="-2000" width="3500" height="4000" id="y_ISHro5h_Qu_pad-10"/><rect x="-1000" y="-2000" width="2000" height="4000" id="y_ISHro5h_Qu_pad-11"/><rect x="-635" y="-4000" width="1270" height="8000" id="y_ISHro5h_Qu_pad-12"/><rect x="-635" y="-4350" width="1270" height="8700" id="y_ISHro5h_Qu_pad-13"/><rect x="-1750" y="-2000" width="3500" height="4000" id="Xkfg5WaDhoC8_pad-10"/><rect x="-1000" y="-2000" width="2000" height="4000" id="Xkfg5WaDhoC8_pad-11"/><rect x="-635" y="-4000" width="1270" height="8000" id="Xkfg5WaDhoC8_pad-12"/><rect x="-635" y="-4350" width="1270" height="8700" id="Xkfg5WaDhoC8_pad-13"/><circle cx="0" cy="0" r="300" id="Xkfg5WaDhoC8_pad-14"/><circle cx="0" cy="0" r="400" id="Xkfg5WaDhoC8_pad-15"/><rect x="-1750" y="-2000" width="3500" height="4000" id="Xkfg5WaDhoC8_pad-10"/><rect x="-1000" y="-2000" width="2000" height="4000" id="Xkfg5WaDhoC8_pad-11"/><rect x="-635" y="-4000" width="1270" height="8000" id="Xkfg5WaDhoC8_pad-12"/><rect x="-635" y="-4350" width="1270" height="8700" id="Xkfg5WaDhoC8_pad-13"/><circle cx="0" cy="0" r="300" id="Xkfg5WaDhoC8_pad-14"/><circle cx="0" cy="0" r="400" id="Xkfg5WaDhoC8_pad-15"/><rect x="-1750" y="-2000" width="3500" height="4000" id="Xkfg5WaDhoC8_pad-10"/><rect x="-1000" y="-2000" width="2000" height="4000" id="Xkfg5WaDhoC8_pad-11"/><rect x="-635" y="-4000" width="1270" height="8000" id="Xkfg5WaDhoC8_pad-12"/><rect x="-635" y="-4350" width="1270" height="8700" id="Xkfg5WaDhoC8_pad-13"/><circle cx="0" cy="0" r="300" id="Xkfg5WaDhoC8_pad-14"/><circle cx="0" cy="0" r="400" id="Xkfg5WaDhoC8_pad-15"/><rect x="-1750" y="-2000" width="3500" height="4000" id="Xkfg5WaDhoC8_pad-10"/><rect x="-1000" y="-2000" width="2000" height="4000" id="Xkfg5WaDhoC8_pad-11"/><rect x="-635" y="-4000" width="1270" height="8000" id="Xkfg5WaDhoC8_pad-12"/><rect x="-635" y="-4350" width="1270" height="8700" id="Xkfg5WaDhoC8_pad-13"/><circle cx="0" cy="0" r="300" id="Xkfg5WaDhoC8_pad-14"/><circle cx="0" cy="0" r="400" id="Xkfg5WaDhoC8_pad-15"/><rect x="-1750" y="-2000" width="3500" height="4000" id="y_ISHro5h_Qu_pad-10"/><rect x="-1000" y="-2000" width="2000" height="4000" id="y_ISHro5h_Qu_pad-11"/><rect x="-635" y="-4000" width="1270" height="8000" id="y_ISHro5h_Qu_pad-12"/><rect x="-635" y="-4350" width="1270" height="8700" id="y_ISHro5h_Qu_pad-13"/><rect x="-1750" y="-2000" width="3500" height="4000" id="Xkfg5WaDhoC8_pad-10"/><rect x="-1000" y="-2000" width="2000" height="4000" id="Xkfg5WaDhoC8_pad-11"/><rect x="-635" y="-4000" width="1270" height="8000" id="Xkfg5WaDhoC8_pad-12"/><rect x="-635" y="-4350" width="1270" height="8700" id="Xkfg5WaDhoC8_pad-13"/><circle cx="0" cy="0" r="300" id="Xkfg5WaDhoC8_pad-14"/><circle cx="0" cy="0" r="400" id="Xkfg5WaDhoC8_pad-15"/><rect x="-1750" y="-2000" width="3500" height="4000" id="Xkfg5WaDhoC8_pad-10"/><rect x="-1000" y="-2000" width="2000" height="4000" id="Xkfg5WaDhoC8_pad-11"/><rect x="-635" y="-4000" width="1270" height="8000" id="Xkfg5WaDhoC8_pad-12"/><rect x="-635" y="-4350" width="1270" height="8700" id="Xkfg5WaDhoC8_pad-13"/><circle cx="0" cy="0" r="300" id="Xkfg5WaDhoC8_pad-14"/><circle cx="0" cy="0" r="400" id="Xkfg5WaDhoC8_pad-15"/><rect x="-1750" y="-2000" width="3500" height="4000" id="Xkfg5WaDhoC8_pad-10"/><rect x="-1000" y="-2000" width="2000" height="4000" id="Xkfg5WaDhoC8_pad-11"/><rect x="-635" y="-4000" width="1270" height="8000" id="Xkfg5WaDhoC8_pad-12"/><rect x="-635" y="-4350" width="1270" height="8700" id="Xkfg5WaDhoC8_pad-13"/><circle cx="0" cy="0" r="300" id="Xkfg5WaDhoC8_pad-14"/><circle cx="0" cy="0" r="400" id="Xkfg5WaDhoC8_pad-15"/><rect x="-1750" y="-2000" width="3500" height="4000" id="Xkfg5WaDhoC8_pad-10"/><rect x="-1000" y="-2000" width="2000" height="4000" id="Xkfg5WaDhoC8_pad-11"/><rect x="-635" y="-4000" width="1270" height="8000" id="Xkfg5WaDhoC8_pad-12"/><rect x="-635" y="-4350" width="1270" height="8700" id="Xkfg5WaDhoC8_pad-13"/><circle cx="0" cy="0" r="300" id="Xkfg5WaDhoC8_pad-14"/><circle cx="0" cy="0" r="400" id="Xkfg5WaDhoC8_pad-15"/><rect x="-1750" y="-2000" width="3500" height="4000" id="y_ISHro5h_Qu_pad-10"/><rect x="-1000" y="-2000" width="2000" height="4000" id="y_ISHro5h_Qu_pad-11"/><rect x="-635" y="-4000" width="1270" height="8000" id="y_ISHro5h_Qu_pad-12"/><rect x="-635" y="-4350" width="1270" height="8700" id="y_ISHro5h_Qu_pad-13"/><rect x="-1750" y="-2000" width="3500" height="4000" id="Xkfg5WaDhoC8_pad-10"/><rect x="-1000" y="-2000" width="2000" height="4000" id="Xkfg5WaDhoC8_pad-11"/><rect x="-635" y="-4000" width="1270" height="8000" id="Xkfg5WaDhoC8_pad-12"/><rect x="-635" y="-4350" width="1270" height="8700" id="Xkfg5WaDhoC8_pad-13"/><circle cx="0" cy="0" r="300" id="Xkfg5WaDhoC8_pad-14"/><circle cx="0" cy="0" r="400" id="Xkfg5WaDhoC8_pad-15"/><rect x="-1750" y="-2000" width="3500" height="4000" id="Xkfg5WaDhoC8_pad-10"/><rect x="-1000" y="-2000" width="2000" height="4000" id="Xkfg5WaDhoC8_pad-11"/><rect x="-635" y="-4000" width="1270" height="8000" id="Xkfg5WaDhoC8_pad-12"/><rect x="-635" y="-4350" width="1270" height="8700" id="Xkfg5WaDhoC8_pad-13"/><circle cx="0" cy="0" r="300" id="Xkfg5WaDhoC8_pad-14"/><circle cx="0" cy="0" r="400" id="Xkfg5WaDhoC8_pad-15"/><rect x="-1750" y="-2000" width="3500" height="4000" id="Xkfg5WaDhoC8_pad-10"/><rect x="-1000" y="-2000" width="2000" height="4000" id="Xkfg5WaDhoC8_pad-11"/><rect x="-635" y="-4000" width="1270" height="8000" id="Xkfg5WaDhoC8_pad-12"/><rect x="-635" y="-4350" width="1270" height="8700" id="Xkfg5WaDhoC8_pad-13"/><circle cx="0" cy="0" r="300" id="Xkfg5WaDhoC8_pad-14"/><circle cx="0" cy="0" r="400" id="Xkfg5WaDhoC8_pad-15"/><rect x="-1750" y="-2000" width="3500" height="4000" id="Xkfg5WaDhoC8_pad-10"/><rect x="-1000" y="-2000" width="2000" height="4000" id="Xkfg5WaDhoC8_pad-11"/><rect x="-635" y="-4000" width="1270" height="8000" id="Xkfg5WaDhoC8_pad-12"/><rect x="-635" y="-4350" width="1270" height="8700" id="Xkfg5WaDhoC8_pad-13"/><circle cx="0" cy="0" r="300" id="Xkfg5WaDhoC8_pad-14"/><circle cx="0" cy="0" r="400" id="Xkfg5WaDhoC8_pad-15"/><rect x="-1750" y="-2000" width="3500" height="4000" id="y_ISHro5h_Qu_pad-10"/><rect x="-1000" y="-2000" width="2000" height="4000" id="y_ISHro5h_Qu_pad-11"/><rect x="-635" y="-4000" width="1270" height="8000" id="y_ISHro5h_Qu_pad-12"/><rect x="-635" y="-4350" width="1270" height="8700" id="y_ISHro5h_Qu_pad-13"/><circle cx="0" cy="0" r="5.9" id="sZ2B_NwrrqLx_pad-1"/><circle cx="0" cy="0" r="7.85" id="sZ2B_NwrrqLx_pad-2"/><rect x="-1750" y="-2000" width="3500" height="4000" id="Xkfg5WaDhoC8_pad-10"/><rect x="-1000" y="-2000" width="2000" height="4000" id="Xkfg5WaDhoC8_pad-11"/><rect x="-635" y="-4000" width="1270" height="8000" id="Xkfg5WaDhoC8_pad-12"/><rect x="-635" y="-4350" width="1270" height="8700" id="Xkfg5WaDhoC8_pad-13"/><circle cx="0" cy="0" r="300" id="Xkfg5WaDhoC8_pad-14"/><circle cx="0" cy="0" r="400" id="Xkfg5WaDhoC8_pad-15"/><rect x="-1750" y="-2000" width="3500" height="4000" id="Xkfg5WaDhoC8_pad-10"/><rect x="-1000" y="-2000" width="2000" height="4000" id="Xkfg5WaDhoC8_pad-11"/><rect x="-635" y="-4000" width="1270" height="8000" id="Xkfg5WaDhoC8_pad-12"/><rect x="-635" y="-4350" width="1270" height="8700" id="Xkfg5WaDhoC8_pad-13"/><circle cx="0" cy="0" r="300" id="Xkfg5WaDhoC8_pad-14"/><circle cx="0" cy="0" r="400" id="Xkfg5WaDhoC8_pad-15"/><rect x="-1750" y="-2000" width="3500" height="4000" id="Xkfg5WaDhoC8_pad-10"/><rect x="-1000" y="-2000" width="2000" height="4000" id="Xkfg5WaDhoC8_pad-11"/><rect x="-635" y="-4000" width="1270" height="8000" id="Xkfg5WaDhoC8_pad-12"/><rect x="-635" y="-4350" width="1270" height="8700" id="Xkfg5WaDhoC8_pad-13"/><circle cx="0" cy="0" r="300" id="Xkfg5WaDhoC8_pad-14"/><circle cx="0" cy="0" r="400" id="Xkfg5WaDhoC8_pad-15"/><rect x="-1750" y="-2000" width="3500" height="4000" id="Xkfg5WaDhoC8_pad-10"/><rect x="-1000" y="-2000" width="2000" height="4000" id="Xkfg5WaDhoC8_pad-11"/><rect x="-635" y="-4000" width="1270" height="8000" id="Xkfg5WaDhoC8_pad-12"/><rect x="-635" y="-4350" width="1270" height="8700" id="Xkfg5WaDhoC8_pad-13"/><circle cx="0" cy="0" r="300" id="Xkfg5WaDhoC8_pad-14"/><circle cx="0" cy="0" r="400" id="Xkfg5WaDhoC8_pad-15"/><rect x="-1750" y="-2000" width="3500" height="4000" id="y_ISHro5h_Qu_pad-10"/><rect x="-1000" y="-2000" width="2000" height="4000" id="y_ISHro5h_Qu_pad-11"/><rect x="-635" y="-4000" width="1270" height="8000" id="y_ISHro5h_Qu_pad-12"/><rect x="-635" y="-4350" width="1270" height="8700" id="y_ISHro5h_Qu_pad-13"/><rect x="-1750" y="-2000" width="3500" height="4000" id="Xkfg5WaDhoC8_pad-10"/><rect x="-1000" y="-2000" width="2000" height="4000" id="Xkfg5WaDhoC8_pad-11"/><rect x="-635" y="-4000" width="1270" height="8000" id="Xkfg5WaDhoC8_pad-12"/><rect x="-635" y="-4350" width="1270" height="8700" id="Xkfg5WaDhoC8_pad-13"/><circle cx="0" cy="0" r="300" id="Xkfg5WaDhoC8_pad-14"/><circle cx="0" cy="0" r="400" id="Xkfg5WaDhoC8_pad-15"/><rect x="-1750" y="-2000" width="3500" height="4000" id="Xkfg5WaDhoC8_pad-10"/><rect x="-1000" y="-2000" width="2000" height="4000" id="Xkfg5WaDhoC8_pad-11"/><rect x="-635" y="-4000" width="1270" height="8000" id="Xkfg5WaDhoC8_pad-12"/><rect x="-635" y="-4350" width="1270" height="8700" id="Xkfg5WaDhoC8_pad-13"/><circle cx="0" cy="0" r="300" id="Xkfg5WaDhoC8_pad-14"/><circle cx="0" cy="0" r="400" id="Xkfg5WaDhoC8_pad-15"/><rect x="-1750" y="-2000" width="3500" height="4000" id="Xkfg5WaDhoC8_pad-10"/><rect x="-1000" y="-2000" width="2000" height="4000" id="Xkfg5WaDhoC8_pad-11"/><rect x="-635" y="-4000" width="1270" height="8000" id="Xkfg5WaDhoC8_pad-12"/><rect x="-635" y="-4350" width="1270" height="8700" id="Xkfg5WaDhoC8_pad-13"/><circle cx="0" cy="0" r="300" id="Xkfg5WaDhoC8_pad-14"/><circle cx="0" cy="0" r="400" id="Xkfg5WaDhoC8_pad-15"/><rect x="-1750" y="-2000" width="3500" height="4000" id="Xkfg5WaDhoC8_pad-10"/><rect x="-1000" y="-2000" width="2000" height="4000" id="Xkfg5WaDhoC8_pad-11"/><rect x="-635" y="-4000" width="1270" height="8000" id="Xkfg5WaDhoC8_pad-12"/><rect x="-635" y="-4350" width="1270" height="8700" id="Xkfg5WaDhoC8_pad-13"/><circle cx="0" cy="0" r="300" id="Xkfg5WaDhoC8_pad-14"/><circle cx="0" cy="0" r="400" id="Xkfg5WaDhoC8_pad-15"/><rect x="-1750" y="-2000" width="3500" height="4000" id="y_ISHro5h_Qu_pad-10"/><rect x="-1000" y="-2000" width="2000" height="4000" id="y_ISHro5h_Qu_pad-11"/><rect x="-635" y="-4000" width="1270" height="8000" id="y_ISHro5h_Qu_pad-12"/><rect x="-635" y="-4350" width="1270" height="8700" id="y_ISHro5h_Qu_pad-13"/><rect x="-1750" y="-2000" width="3500" height="4000" id="Xkfg5WaDhoC8_pad-10"/><rect x="-1000" y="-2000" width="2000" height="4000" id="Xkfg5WaDhoC8_pad-11"/><rect x="-635" y="-4000" width="1270" height="8000" id="Xkfg5WaDhoC8_pad-12"/><rect x="-635" y="-4350" width="1270" height="8700" id="Xkfg5WaDhoC8_pad-13"/><circle cx="0" cy="0" r="300" id="Xkfg5WaDhoC8_pad-14"/><circle cx="0" cy="0" r="400" id="Xkfg5WaDhoC8_pad-15"/><rect x="-1750" y="-2000" width="3500" height="4000" id="Xkfg5WaDhoC8_pad-10"/><rect x="-1000" y="-2000" width="2000" height="4000" id="Xkfg5WaDhoC8_pad-11"/><rect x="-635" y="-4000" width="1270" height="8000" id="Xkfg5WaDhoC8_pad-12"/><rect x="-635" y="-4350" width="1270" height="8700" id="Xkfg5WaDhoC8_pad-13"/><circle cx="0" cy="0" r="300" id="Xkfg5WaDhoC8_pad-14"/><circle cx="0" cy="0" r="400" id="Xkfg5WaDhoC8_pad-15"/><rect x="-1750" y="-2000" width="3500" height="4000" id="Xkfg5WaDhoC8_pad-10"/><rect x="-1000" y="-2000" width="2000" height="4000" id="Xkfg5WaDhoC8_pad-11"/><rect x="-635" y="-4000" width="1270" height="8000" id="Xkfg5WaDhoC8_pad-12"/><rect x="-635" y="-4350" width="1270" height="8700" id="Xkfg5WaDhoC8_pad-13"/><circle cx="0" cy="0" r="300" id="Xkfg5WaDhoC8_pad-14"/><circle cx="0" cy="0" r="400" id="Xkfg5WaDhoC8_pad-15"/><rect x="-1750" y="-2000" width="3500" height="4000" id="Xkfg5WaDhoC8_pad-10"/><rect x="-1000" y="-2000" width="2000" height="4000" id="Xkfg5WaDhoC8_pad-11"/><rect x="-635" y="-4000" width="1270" height="8000" id="Xkfg5WaDhoC8_pad-12"/><rect x="-635" y="-4350" width="1270" height="8700" id="Xkfg5WaDhoC8_pad-13"/><circle cx="0" cy="0" r="300" id="Xkfg5WaDhoC8_pad-14"/><circle cx="0" cy="0" r="400" id="Xkfg5WaDhoC8_pad-15"/><rect x="-1750" y="-2000" width="3500" height="4000" id="y_ISHro5h_Qu_pad-10"/><rect x="-1000" y="-2000" width="2000" height="4000" id="y_ISHro5h_Qu_pad-11"/><rect x="-635" y="-4000" width="1270" height="8000" id="y_ISHro5h_Qu_pad-12"/><rect x="-635" y="-4350" width="1270" height="8700" id="y_ISHro5h_Qu_pad-13"/><rect x="-1750" y="-2000" width="3500" height="4000" id="Xkfg5WaDhoC8_pad-10"/><rect x="-1000" y="-2000" width="2000" height="4000" id="Xkfg5WaDhoC8_pad-11"/><rect x="-635" y="-4000" width="1270" height="8000" id="Xkfg5WaDhoC8_pad-12"/><rect x="-635" y="-4350" width="1270" height="8700" id="Xkfg5WaDhoC8_pad-13"/><circle cx="0" cy="0" r="300" id="Xkfg5WaDhoC8_pad-14"/><circle cx="0" cy="0" r="400" id="Xkfg5WaDhoC8_pad-15"/><rect x="-1750" y="-2000" width="3500" height="4000" id="Xkfg5WaDhoC8_pad-10"/><rect x="-1000" y="-2000" width="2000" height="4000" id="Xkfg5WaDhoC8_pad-11"/><rect x="-635" y="-4000" width="1270" height="8000" id="Xkfg5WaDhoC8_pad-12"/><rect x="-635" y="-4350" width="1270" height="8700" id="Xkfg5WaDhoC8_pad-13"/><circle cx="0" cy="0" r="300" id="Xkfg5WaDhoC8_pad-14"/><circle cx="0" cy="0" r="400" id="Xkfg5WaDhoC8_pad-15"/><rect x="-1750" y="-2000" width="3500" height="4000" id="Xkfg5WaDhoC8_pad-10"/><rect x="-1000" y="-2000" width="2000" height="4000" id="Xkfg5WaDhoC8_pad-11"/><rect x="-635" y="-4000" width="1270" height="8000" id="Xkfg5WaDhoC8_pad-12"/><rect x="-635" y="-4350" width="1270" height="8700" id="Xkfg5WaDhoC8_pad-13"/><circle cx="0" cy="0" r="300" id="Xkfg5WaDhoC8_pad-14"/><circle cx="0" cy="0" r="400" id="Xkfg5WaDhoC8_pad-15"/><rect x="-1750" y="-2000" width="3500" height="4000" id="Xkfg5WaDhoC8_pad-10"/><rect x="-1000" y="-2000" width="2000" height="4000" id="Xkfg5WaDhoC8_pad-11"/><rect x="-635" y="-4000" width="1270" height="8000" id="Xkfg5WaDhoC8_pad-12"/><rect x="-635" y="-4350" width="1270" height="8700" id="Xkfg5WaDhoC8_pad-13"/><circle cx="0" cy="0" r="300" id="Xkfg5WaDhoC8_pad-14"/><circle cx="0" cy="0" r="400" id="Xkfg5WaDhoC8_pad-15"/><rect x="-1750" y="-2000" width="3500" height="4000" id="y_ISHro5h_Qu_pad-10"/><rect x="-1000" y="-2000" width="2000" height="4000" id="y_ISHro5h_Qu_pad-11"/><rect x="-635" y="-4000" width="1270" height="8000" id="y_ISHro5h_Qu_pad-12"/><rect x="-635" y="-4350" width="1270" height="8700" id="y_ISHro5h_Qu_pad-13"/><rect x="-1750" y="-2000" width="3500" height="4000" id="Xkfg5WaDhoC8_pad-10"/><rect x="-1000" y="-2000" width="2000" height="4000" id="Xkfg5WaDhoC8_pad-11"/><rect x="-635" y="-4000" width="1270" height="8000" id="Xkfg5WaDhoC8_pad-12"/><rect x="-635" y="-4350" width="1270" height="8700" id="Xkfg5WaDhoC8_pad-13"/><circle cx="0" cy="0" r="300" id="Xkfg5WaDhoC8_pad-14"/><circle cx="0" cy="0" r="400" id="Xkfg5WaDhoC8_pad-15"/><rect x="-1750" y="-2000" width="3500" height="4000" id="Xkfg5WaDhoC8_pad-10"/><rect x="-1000" y="-2000" width="2000" height="4000" id="Xkfg5WaDhoC8_pad-11"/><rect x="-635" y="-4000" width="1270" height="8000" id="Xkfg5WaDhoC8_pad-12"/><rect x="-635" y="-4350" width="1270" height="8700" id="Xkfg5WaDhoC8_pad-13"/><circle cx="0" cy="0" r="300" id="Xkfg5WaDhoC8_pad-14"/><circle cx="0" cy="0" r="400" id="Xkfg5WaDhoC8_pad-15"/><rect x="-1750" y="-2000" width="3500" height="4000" id="Xkfg5WaDhoC8_pad-10"/><rect x="-1000" y="-2000" width="2000" height="4000" id="Xkfg5WaDhoC8_pad-11"/><rect x="-635" y="-4000" width="1270" height="8000" id="Xkfg5WaDhoC8_pad-12"/><rect x="-635" y="-4350" width="1270" height="8700" id="Xkfg5WaDhoC8_pad-13"/><circle cx="0" cy="0" r="300" id="Xkfg5WaDhoC8_pad-14"/><circle cx="0" cy="0" r="400" id="Xkfg5WaDhoC8_pad-15"/><rect x="-1750" y="-2000" width="3500" height="4000" id="Xkfg5WaDhoC8_pad-10"/><rect x="-1000" y="-2000" width="2000" height="4000" id="Xkfg5WaDhoC8_pad-11"/><rect x="-635" y="-4000" width="1270" height="8000" id="Xkfg5WaDhoC8_pad-12"/><rect x="-635" y="-4350" width="1270" height="8700" id="Xkfg5WaDhoC8_pad-13"/><circle cx="0" cy="0" r="300" id="Xkfg5WaDhoC8_pad-14"/><circle cx="0" cy="0" r="400" id="Xkfg5WaDhoC8_pad-15"/><rect x="-1750" y="-2000" width="3500" height="4000" id="y_ISHro5h_Qu_pad-10"/><rect x="-1000" y="-2000" width="2000" height="4000" id="y_ISHro5h_Qu_pad-11"/><rect x="-635" y="-4000" width="1270" height="8000" id="y_ISHro5h_Qu_pad-12"/><rect x="-635" y="-4350" width="1270" height="8700" id="y_ISHro5h_Qu_pad-13"/><rect x="-1750" y="-2000" width="3500" height="4000" id="Xkfg5WaDhoC8_pad-10"/><rect x="-1000" y="-2000" width="2000" height="4000" id="Xkfg5WaDhoC8_pad-11"/><rect x="-635" y="-4000" width="1270" height="8000" id="Xkfg5WaDhoC8_pad-12"/><rect x="-635" y="-4350" width="1270" height="8700" id="Xkfg5WaDhoC8_pad-13"/><circle cx="0" cy="0" r="300" id="Xkfg5WaDhoC8_pad-14"/><circle cx="0" cy="0" r="400" id="Xkfg5WaDhoC8_pad-15"/><rect x="-1750" y="-2000" width="3500" height="4000" id="Xkfg5WaDhoC8_pad-10"/><rect x="-1000" y="-2000" width="2000" height="4000" id="Xkfg5WaDhoC8_pad-11"/><rect x="-635" y="-4000" width="1270" height="8000" id="Xkfg5WaDhoC8_pad-12"/><rect x="-635" y="-4350" width="1270" height="8700" id="Xkfg5WaDhoC8_pad-13"/><circle cx="0" cy="0" r="300" id="Xkfg5WaDhoC8_pad-14"/><circle cx="0" cy="0" r="400" id="Xkfg5WaDhoC8_pad-15"/><rect x="-1750" y="-2000" width="3500" height="4000" id="Xkfg5WaDhoC8_pad-10"/><rect x="-1000" y="-2000" width="2000" height="4000" id="Xkfg5WaDhoC8_pad-11"/><rect x="-635" y="-4000" width="1270" height="8000" id="Xkfg5WaDhoC8_pad-12"/><rect x="-635" y="-4350" width="1270" height="8700" id="Xkfg5WaDhoC8_pad-13"/><circle cx="0" cy="0" r="300" id="Xkfg5WaDhoC8_pad-14"/><circle cx="0" cy="0" r="400" id="Xkfg5WaDhoC8_pad-15"/><rect x="-1750" y="-2000" width="3500" height="4000" id="Xkfg5WaDhoC8_pad-10"/><rect x="-1000" y="-2000" width="2000" height="4000" id="Xkfg5WaDhoC8_pad-11"/><rect x="-635" y="-4000" width="1270" height="8000" id="Xkfg5WaDhoC8_pad-12"/><rect x="-635" y="-4350" width="1270" height="8700" id="Xkfg5WaDhoC8_pad-13"/><circle cx="0" cy="0" r="300" id="Xkfg5WaDhoC8_pad-14"/><circle cx="0" cy="0" r="400" id="Xkfg5WaDhoC8_pad-15"/><rect x="-1750" y="-2000" width="3500" height="4000" id="y_ISHro5h_Qu_pad-10"/><rect x="-1000" y="-2000" width="2000" height="4000" id="y_ISHro5h_Qu_pad-11"/><rect x="-635" y="-4000" width="1270" height="8000" id="y_ISHro5h_Qu_pad-12"/><rect x="-635" y="-4350" width="1270" height="8700" id="y_ISHro5h_Qu_pad-13"/><rect x="-1750" y="-2000" width="3500" height="4000" id="Xkfg5WaDhoC8_pad-10"/><rect x="-1000" y="-2000" width="2000" height="4000" id="Xkfg5WaDhoC8_pad-11"/><rect x="-635" y="-4000" width="1270" height="8000" id="Xkfg5WaDhoC8_pad-12"/><rect x="-635" y="-4350" width="1270" height="8700" id="Xkfg5WaDhoC8_pad-13"/><circle cx="0" cy="0" r="300" id="Xkfg5WaDhoC8_pad-14"/><circle cx="0" cy="0" r="400" id="Xkfg5WaDhoC8_pad-15"/><rect x="-1750" y="-2000" width="3500" height="4000" id="Xkfg5WaDhoC8_pad-10"/><rect x="-1000" y="-2000" width="2000" height="4000" id="Xkfg5WaDhoC8_pad-11"/><rect x="-635" y="-4000" width="1270" height="8000" id="Xkfg5WaDhoC8_pad-12"/><rect x="-635" y="-4350" width="1270" height="8700" id="Xkfg5WaDhoC8_pad-13"/><circle cx="0" cy="0" r="300" id="Xkfg5WaDhoC8_pad-14"/><circle cx="0" cy="0" r="400" id="Xkfg5WaDhoC8_pad-15"/><rect x="-1750" y="-2000" width="3500" height="4000" id="Xkfg5WaDhoC8_pad-10"/><rect x="-1000" y="-2000" width="2000" height="4000" id="Xkfg5WaDhoC8_pad-11"/><rect x="-635" y="-4000" width="1270" height="8000" id="Xkfg5WaDhoC8_pad-12"/><rect x="-635" y="-4350" width="1270" height="8700" id="Xkfg5WaDhoC8_pad-13"/><circle cx="0" cy="0" r="300" id="Xkfg5WaDhoC8_pad-14"/><circle cx="0" cy="0" r="400" id="Xkfg5WaDhoC8_pad-15"/><rect x="-1750" y="-2000" width="3500" height="4000" id="Xkfg5WaDhoC8_pad-10"/><rect x="-1000" y="-2000" width="2000" height="4000" id="Xkfg5WaDhoC8_pad-11"/><rect x="-635" y="-4000" width="1270" height="8000" id="Xkfg5WaDhoC8_pad-12"/><rect x="-635" y="-4350" width="1270" height="8700" id="Xkfg5WaDhoC8_pad-13"/><circle cx="0" cy="0" r="300" id="Xkfg5WaDhoC8_pad-14"/><circle cx="0" cy="0" r="400" id="Xkfg5WaDhoC8_pad-15"/><rect x="-1750" y="-2000" width="3500" height="4000" id="y_ISHro5h_Qu_pad-10"/><rect x="-1000" y="-2000" width="2000" height="4000" id="y_ISHro5h_Qu_pad-11"/><rect x="-635" y="-4000" width="1270" height="8000" id="y_ISHro5h_Qu_pad-12"/><rect x="-635" y="-4350" width="1270" height="8700" id="y_ISHro5h_Qu_pad-13"/><rect x="-1750" y="-2000" width="3500" height="4000" id="Xkfg5WaDhoC8_pad-10"/><rect x="-1000" y="-2000" width="2000" height="4000" id="Xkfg5WaDhoC8_pad-11"/><rect x="-635" y="-4000" width="1270" height="8000" id="Xkfg5WaDhoC8_pad-12"/><rect x="-635" y="-4350" width="1270" height="8700" id="Xkfg5WaDhoC8_pad-13"/><circle cx="0" cy="0" r="300" id="Xkfg5WaDhoC8_pad-14"/><circle cx="0" cy="0" r="400" id="Xkfg5WaDhoC8_pad-15"/><rect x="-1750" y="-2000" width="3500" height="4000" id="Xkfg5WaDhoC8_pad-10"/><rect x="-1000" y="-2000" width="2000" height="4000" id="Xkfg5WaDhoC8_pad-11"/><rect x="-635" y="-4000" width="1270" height="8000" id="Xkfg5WaDhoC8_pad-12"/><rect x="-635" y="-4350" width="1270" height="8700" id="Xkfg5WaDhoC8_pad-13"/><circle cx="0" cy="0" r="300" id="Xkfg5WaDhoC8_pad-14"/><circle cx="0" cy="0" r="400" id="Xkfg5WaDhoC8_pad-15"/><rect x="-1750" y="-2000" width="3500" height="4000" id="Xkfg5WaDhoC8_pad-10"/><rect x="-1000" y="-2000" width="2000" height="4000" id="Xkfg5WaDhoC8_pad-11"/><rect x="-635" y="-4000" width="1270" height="8000" id="Xkfg5WaDhoC8_pad-12"/><rect x="-635" y="-4350" width="1270" height="8700" id="Xkfg5WaDhoC8_pad-13"/><circle cx="0" cy="0" r="300" id="Xkfg5WaDhoC8_pad-14"/><circle cx="0" cy="0" r="400" id="Xkfg5WaDhoC8_pad-15"/><rect x="-1750" y="-2000" width="3500" height="4000" id="Xkfg5WaDhoC8_pad-10"/><rect x="-1000" y="-2000" width="2000" height="4000" id="Xkfg5WaDhoC8_pad-11"/><rect x="-635" y="-4000" width="1270" height="8000" id="Xkfg5WaDhoC8_pad-12"/><rect x="-635" y="-4350" width="1270" height="8700" id="Xkfg5WaDhoC8_pad-13"/><circle cx="0" cy="0" r="300" id="Xkfg5WaDhoC8_pad-14"/><circle cx="0" cy="0" r="400" id="Xkfg5WaDhoC8_pad-15"/><rect x="-1750" y="-2000" width="3500" height="4000" id="y_ISHro5h_Qu_pad-10"/><rect x="-1000" y="-2000" width="2000" height="4000" id="y_ISHro5h_Qu_pad-11"/><rect x="-635" y="-4000" width="1270" height="8000" id="y_ISHro5h_Qu_pad-12"/><rect x="-635" y="-4350" width="1270" height="8700" id="y_ISHro5h_Qu_pad-13"/><circle cx="0" cy="0" r="5.9" id="sZ2B_NwrrqLx_pad-1"/><circle cx="0" cy="0" r="7.85" id="sZ2B_NwrrqLx_pad-2"/><g id="pcb-stackup_top_cu"><use xlink:href="#Xkfg5WaDhoC8_pad-10" x="51900" y="-62800"/><use xlink:href="#Xkfg5WaDhoC8_pad-10" x="60100" y="-62800"/><use xlink:href="#Xkfg5WaDhoC8_pad-11" x="56000" y="-62800"/><use xlink:href="#Xkfg5WaDhoC8_pad-12" x="57167" y="-55300"/><use xlink:href="#Xkfg5WaDhoC8_pad-12" x="55033" y="-55300"/><use xlink:href="#Xkfg5WaDhoC8_pad-13" x="59950" y="-54950"/><use xlink:href="#Xkfg5WaDhoC8_pad-13" x="52290" y="-54950"/><use xlink:href="#Xkfg5WaDhoC8_pad-14" x="58530" y="-62720"/><use xlink:href="#Xkfg5WaDhoC8_pad-14" x="54225" y="-63700"/><use xlink:href="#Xkfg5WaDhoC8_pad-14" x="54250" y="-63050"/><use xlink:href="#Xkfg5WaDhoC8_pad-15" x="59975" y="-51300"/><use xlink:href="#Xkfg5WaDhoC8_pad-14" x="59090" y="-62610"/><use xlink:href="#Xkfg5WaDhoC8_pad-14" x="54145" y="-60130"/><use xlink:href="#Xkfg5WaDhoC8_pad-14" x="60210" y="-59100"/><use xlink:href="#Xkfg5WaDhoC8_pad-14" x="52825" y="-62700"/><use xlink:href="#Xkfg5WaDhoC8_pad-14" x="52125" y="-62500"/><use xlink:href="#Xkfg5WaDhoC8_pad-14" x="52375" y="-61750"/><use xlink:href="#Xkfg5WaDhoC8_pad-14" x="51525" y="-62025"/><use xlink:href="#Xkfg5WaDhoC8_pad-14" x="57900" y="-60429.999"/><use xlink:href="#Xkfg5WaDhoC8_pad-14" x="58603.937" y="-60140.049"/><use xlink:href="#Xkfg5WaDhoC8_pad-14" x="56525" y="-63575"/><use xlink:href="#Xkfg5WaDhoC8_pad-14" x="56525" y="-64300"/><use xlink:href="#Xkfg5WaDhoC8_pad-14" x="55750" y="-64325"/><use xlink:href="#Xkfg5WaDhoC8_pad-14" x="55441.49" y="-60963.088"/><path d="M 59950 -62650 60100 -62800 M 59950 -54950 59950 -62650" fill="none" stroke-width="1200"/><path d="M 60210 -55210 60210 -59100 M 59950 -54950 60210 -55210 M 56880 -60130 54145 -60130 M 57400 -61590 57400 -60850 57300 -60750 M 57300 -60550 56880 -60130 M 58530 -62720 57400 -61590 M 57300 -60750 57300 -60550" fill="none" stroke-width="200"/><path d="M 52290 -54950 52290 -61019.999" fill="none" stroke-width="1200"/><path d="M 57900 -60050 57900 -60429.999 M 57410 -59560 57900 -60050 M 55928 -59560 57410 -59560 M 55033 -55300 55033 -58665 55928 -59560 M 57167 -58665 57167 -58703.112 58303.938 -59840.05 58603.937 -60140.049" fill="none" stroke-width="200"/><path d="M 54398 -59601.451 55403.765 -59601.451 55631.267 -59828.953 55643.789 -59844.211 55659.047 -59856.733 55659.049 -59856.735 55676.552 -59871.099 55704.697 -59894.197 55774.186 -59931.34 55849.586 -59954.212 55908.353 -59960 55908.363 -59960 55927.999 -59961.934 55947.635 -59960 57244.315 -59960 57393.049 -60108.734 57368.287 -60145.792 57323.058 -60254.985 57300 -60370.904 57300 -60489.094 57323.058 -60605.013 57368.287 -60714.206 57433.95 -60812.477 57517.522 -60896.049 57615.793 -60961.712 57724.986 -61006.941 57840.905 -61029.999 57959.095 -61029.999 58075.014 -61006.941 58184.207 -60961.712 58282.478 -60896.049 58366.05 -60812.477 58429.743 -60717.154 58544.842 -60740.049 58663.032 -60740.049 58778.951 -60716.991 58888.144 -60671.762 58986.415 -60606.099 59069.987 -60522.527 59135.65 -60424.256 59180.879 -60315.063 59203.937 -60199.144 59203.937 -60080.954 59180.879 -59965.035 59135.65 -59855.842 59069.987 -59757.571 58986.415 -59673.999 58888.144 -59608.336 58868.019 -59600 61600 -59600 61600 -64600 57301.451 -64600 57301.451 -60800 57295.659 -60741.19 57278.504 -60684.64 57250.647 -60632.523 57213.158 -60586.842 57167.477 -60549.353 57115.36 -60521.496 57058.81 -60504.341 57000 -60498.549 55825.479 -60498.549 55823.968 -60497.038 55725.697 -60431.375 55616.504 -60386.146 55500.585 -60363.088 55382.395 -60363.088 55266.476 -60386.146 55157.283 -60431.375 55059.012 -60497.038 55057.501 -60498.549 55000 -60498.549 54941.19 -60504.341 54884.64 -60521.496 54832.523 -60549.353 54786.842 -60586.842 54749.353 -60632.523 54721.496 -60684.64 54704.341 -60741.19 54698.549 -60800 54698.549 -64600 53951.451 -64600 53951.451 -60800 53945.659 -60741.19 53928.504 -60684.64 53900.647 -60632.523 53863.158 -60586.842 53817.477 -60549.353 53765.36 -60521.496 53708.81 -60504.341 53650 -60498.549 53190 -60498.549 53190 -59600 54383.267 -59600 54398 -59601.451 54398 -59601.451"/><path d="M 54398 -59601.451 55403.765 -59601.451 55631.267 -59828.953 55643.789 -59844.211 55659.047 -59856.733 55659.049 -59856.735 55676.552 -59871.099 55704.697 -59894.197 55774.186 -59931.34 55849.586 -59954.212 55908.353 -59960 55908.363 -59960 55927.999 -59961.934 55947.635 -59960 57244.315 -59960 57393.049 -60108.734 57368.287 -60145.792 57323.058 -60254.985 57300 -60370.904 57300 -60489.094 57323.058 -60605.013 57368.287 -60714.206 57433.95 -60812.477 57517.522 -60896.049 57615.793 -60961.712 57724.986 -61006.941 57840.905 -61029.999 57959.095 -61029.999 58075.014 -61006.941 58184.207 -60961.712 58282.478 -60896.049 58366.05 -60812.477 58429.743 -60717.154 58544.842 -60740.049 58663.032 -60740.049 58778.951 -60716.991 58888.144 -60671.762 58986.415 -60606.099 59069.987 -60522.527 59135.65 -60424.256 59180.879 -60315.063 59203.937 -60199.144 59203.937 -60080.954 59180.879 -59965.035 59135.65 -59855.842 59069.987 -59757.571 58986.415 -59673.999 58888.144 -59608.336 58868.019 -59600 61600 -59600 61600 -64600 57301.451 -64600 57301.451 -60800 57295.659 -60741.19 57278.504 -60684.64 57250.647 -60632.523 57213.158 -60586.842 57167.477 -60549.353 57115.36 -60521.496 57058.81 -60504.341 57000 -60498.549 55825.479 -60498.549 55823.968 -60497.038 55725.697 -60431.375 55616.504 -60386.146 55500.585 -60363.088 55382.395 -60363.088 55266.476 -60386.146 55157.283 -60431.375 55059.012 -60497.038 55057.501 -60498.549 55000 -60498.549 54941.19 -60504.341 54884.64 -60521.496 54832.523 -60549.353 54786.842 -60586.842 54749.353 -60632.523 54721.496 -60684.64 54704.341 -60741.19 54698.549 -60800 54698.549 -64600 53951.451 -64600 53951.451 -60800 53945.659 -60741.19 53928.504 -60684.64 53900.647 -60632.523 53863.158 -60586.842 53817.477 -60549.353 53765.36 -60521.496 53708.81 -60504.341 53650 -60498.549 53190 -60498.549 53190 -59600 54383.267 -59600 54398 -59601.451" fill="none" stroke-width="200"/></g><g id="pcb-stackup_top_sm"><path d="M 63000 -59250 49500 -59250 49500 -49000 63000 -49000 63000 -59250"/><path d="M 63000 -59250 49500 -59250 49500 -49000 63000 -49000 63000 -59250" fill="none" stroke-width="150"/><path d="M 61850 -64800 58350 -64800 58350 -60800 61850 -60800 61850 -64800 61850 -64800"/><path d="M 57000 -64800 55000 -64800 55000 -60800 57000 -60800 57000 -64800 57000 -64800"/><path d="M 53650 -64800 50150 -64800 50150 -60800 53650 -60800 53650 -64800 53650 -64800"/><path d="M 60585 -59300 59315 -59300 59315 -50600 60585 -50600 60585 -59300 60585 -59300"/><path d="M 57802 -59300 56532 -59300 56532 -51300 57802 -51300 57802 -59300 57802 -59300"/><path d="M 55668 -59300 54398 -59300 54398 -51300 55668 -51300 55668 -59300 55668 -59300"/><path d="M 52925 -59300 51655 -59300 51655 -50600 52925 -50600 52925 -59300 52925 -59300"/></g><g id="pcb-stackup_top_sp"><use xlink:href="#y_ISHro5h_Qu_pad-10" x="51900" y="-62800"/><use xlink:href="#y_ISHro5h_Qu_pad-10" x="60100" y="-62800"/><use xlink:href="#y_ISHro5h_Qu_pad-11" x="56000" y="-62800"/><use xlink:href="#y_ISHro5h_Qu_pad-12" x="57167" y="-55300"/><use xlink:href="#y_ISHro5h_Qu_pad-12" x="55033" y="-55300"/><use xlink:href="#y_ISHro5h_Qu_pad-13" x="59950" y="-54950"/><use xlink:href="#y_ISHro5h_Qu_pad-13" x="52290" y="-54950"/></g><g id="pcb-stackup_top_ss"><path d="M 59338.095 -59600 59242.857 -59552.38 59100 -59552.38 58957.142 -59600 58861.904 -59695.238 58814.285 -59790.476 58766.666 -59980.952 58766.666 -60123.809 58814.285 -60314.285 58861.904 -60409.523 58957.142 -60504.761 59100 -60552.38 59195.238 -60552.38 59338.095 -60504.761 59385.714 -60457.142 59385.714 -60123.809 59195.238 -60123.809 M 59814.285 -60552.38 59814.285 -59552.38 60385.714 -60552.38 60385.714 -59552.38 M 60861.904 -60552.38 60861.904 -59552.38 61100 -59552.38 61242.857 -59600 61338.095 -59695.238 61385.714 -59790.476 61433.333 -59980.952 61433.333 -60123.809 61385.714 -60314.285 61338.095 -60409.523 61242.857 -60504.761 61100 -60552.38 60861.904 -60552.38 M 54547.619 -60552.38 54547.619 -59552.38 54785.714 -59552.38 54928.571 -59600 55023.809 -59695.238 55071.428 -59790.476 55119.047 -59980.952 55119.047 -60123.809 55071.428 -60314.285 55023.809 -60409.523 54928.571 -60504.761 54785.714 -60552.38 54547.619 -60552.38 M 55976.19 -60552.38 55976.19 -60028.571 55928.571 -59933.333 55833.333 -59885.714 55642.857 -59885.714 55547.619 -59933.333 M 55976.19 -60504.761 55880.952 -60552.38 55642.857 -60552.38 55547.619 -60504.761 55500 -60409.523 55500 -60314.285 55547.619 -60219.047 55642.857 -60171.428 55880.952 -60171.428 55976.19 -60123.809 M 56309.523 -59885.714 56690.476 -59885.714 M 56452.38 -59552.38 56452.38 -60409.523 56500 -60504.761 56595.238 -60552.38 56690.476 -60552.38 M 57452.38 -60552.38 57452.38 -60028.571 57404.761 -59933.333 57309.523 -59885.714 57119.047 -59885.714 57023.809 -59933.333 M 57452.38 -60504.761 57357.142 -60552.38 57119.047 -60552.38 57023.809 -60504.761 56976.19 -60409.523 56976.19 -60314.285 57023.809 -60219.047 57119.047 -60171.428 57357.142 -60171.428 57452.38 -60123.809 M 50614.285 -60171.428 51376.19 -60171.428 M 50995.238 -60552.38 50995.238 -59790.476 M 52328.571 -59552.38 51852.38 -59552.38 51804.761 -60028.571 51852.38 -59980.952 51947.619 -59933.333 52185.714 -59933.333 52280.952 -59980.952 52328.571 -60028.571 52376.19 -60123.809 52376.19 -60361.904 52328.571 -60457.142 52280.952 -60504.761 52185.714 -60552.38 51947.619 -60552.38 51852.38 -60504.761 51804.761 -60457.142 M 52661.904 -59552.38 52995.238 -60552.38 53328.571 -59552.38" fill="none" stroke-width="200"/></g><g id="pcb-stackup_top_drl1" transform="scale(25.4,25.4)"/><g id="pcb-stackup_top_drl2" transform="scale(25.4,25.4)"><use xlink:href="#sZ2B_NwrrqLx_pad-1" x="2028.5" y="-2441.9"/><use xlink:href="#sZ2B_NwrrqLx_pad-1" x="2052.2" y="-2460.6"/><use xlink:href="#sZ2B_NwrrqLx_pad-1" x="2062" y="-2431.1"/><use xlink:href="#sZ2B_NwrrqLx_pad-1" x="2079.7" y="-2468.5"/><use xlink:href="#sZ2B_NwrrqLx_pad-1" x="2131.7" y="-2367.3"/><use xlink:href="#sZ2B_NwrrqLx_pad-1" x="2134.8" y="-2507.9"/><use xlink:href="#sZ2B_NwrrqLx_pad-1" x="2135.8" y="-2482.3"/><use xlink:href="#sZ2B_NwrrqLx_pad-1" x="2182.7" y="-2400.1"/><use xlink:href="#sZ2B_NwrrqLx_pad-1" x="2194.9" y="-2532.5"/><use xlink:href="#sZ2B_NwrrqLx_pad-1" x="2225.4" y="-2503"/><use xlink:href="#sZ2B_NwrrqLx_pad-1" x="2225.4" y="-2531.5"/><use xlink:href="#sZ2B_NwrrqLx_pad-1" x="2279.5" y="-2379.1"/><use xlink:href="#sZ2B_NwrrqLx_pad-1" x="2304.3" y="-2469.3"/><use xlink:href="#sZ2B_NwrrqLx_pad-1" x="2307.2" y="-2367.7"/><use xlink:href="#sZ2B_NwrrqLx_pad-1" x="2326.4" y="-2465"/><use xlink:href="#sZ2B_NwrrqLx_pad-1" x="2370.5" y="-2326.8"/><use xlink:href="#sZ2B_NwrrqLx_pad-2" x="2361.2" y="-2019.7"/></g><clipPath id="pcb-stackup_top_out"><path d="M 50000 -50600 A 600 600 0 0 0 50600 -50000 L 61400 -50000 A 600 600 0 0 0 62000 -50600 L 62000 -65000 50000 -65000 50000 -50600" fill="none" stroke-width="200"/></clipPath><mask id="pcb-stackup_top_mech-mask"><g fill="#000" stroke="#000"><rect x="50000" y="-65000" width="12000" height="15000" fill="#fff"/><use xlink:href="#pcb-stackup_top_drl1"/><use xlink:href="#pcb-stackup_top_drl2"/></g></mask><mask id="pcb-stackup_top_cf-mask"><g fill="#fff" stroke="#fff"><use xlink:href="#pcb-stackup_top_sm"/></g></mask><mask id="pcb-stackup_top_sm-mask"><g fill="#000" stroke="#000"><rect x="50000" y="-65000" width="12000" height="15000" fill="#fff"/><use xlink:href="#pcb-stackup_top_sm"/></g></mask></defs><g transform="translate(0,-115000) scale(1,-1)"><g mask="url(#pcb-stackup_top_mech-mask)" clip-path="url(#pcb-stackup_top_out)"><rect x="50000" y="-65000" width="12000" height="15000" fill="currentColor" class="pcb-stackup_fr4"/><use xlink:href="#pcb-stackup_top_cu" fill="currentColor" stroke="currentColor" class="pcb-stackup_cu"/><use xlink:href="#pcb-stackup_top_cu" fill="currentColor" stroke="currentColor" class="pcb-stackup_cf" mask="url(#pcb-stackup_top_cf-mask)"/><g mask="url(#pcb-stackup_top_sm-mask)"><rect x="50000" y="-65000" width="12000" height="15000" fill="currentColor" class="pcb-stackup_sm"/><use xlink:href="#pcb-stackup_top_ss" fill="currentColor" stroke="currentColor" class="pcb-stackup_ss"/></g><use xlink:href="#pcb-stackup_top_sp" fill="currentColor" stroke="currentColor" class="pcb-stackup_sp"/></g></g></svg>